<svg id="Capa_1" enable-background="new 0 0 512 512" height="512" viewBox="0 0 512 512" width="512" xmlns="http://www.w3.org/2000/svg"><g><path d="m336.959 0v57.674h76.585l-90.802 90.802-39.961-39.961-40.782 40.782 39.961 39.961-55.314 55.314c-23.123-15.394-50.884-24.372-80.746-24.372-80.578-.001-145.9 65.321-145.9 145.9s65.322 145.9 145.9 145.9 145.9-65.322 145.9-145.9c0-29.862-8.978-57.623-24.372-80.746l55.314-55.314 39.961 39.961 40.782-40.782-39.961-39.961 90.802-90.802v76.585h57.674v-175.041zm-191.059 456.828c-50.108 0-90.728-40.62-90.728-90.728s40.62-90.728 90.728-90.728 90.728 40.62 90.728 90.728-40.62 90.728-90.728 90.728z"/></g></svg>