<svg width="77" height="76" viewBox="0 0 77 76" fill="none" xmlns="http://www.w3.org/2000/svg">
<path d="M44.7811 66.4133C50.3191 66.4133 55.4505 66.4777 60.582 66.3998C68.6467 66.2744 75.5835 59.9679 75.8376 52.0517C76.1255 43.024 75.9629 33.9828 75.9019 24.9483C75.8816 22.1526 73.3988 20.1261 70.6655 20.4006C68.1996 20.648 66.4553 22.7083 66.4519 25.4736C66.435 33.8303 66.4519 42.1904 66.4316 50.5471C66.4214 54.0985 64.1419 56.7621 60.7006 56.857C55.5691 56.9959 50.4308 56.8773 45.296 56.857C45.2384 56.857 45.1808 56.7011 44.981 56.4198C45.296 56.1657 45.6855 55.9217 45.987 55.5964C47.9549 53.4885 48.0124 50.6555 46.1495 48.7544C44.2968 46.8669 41.3703 46.8432 39.3245 48.8324C36.1305 51.9433 32.9737 55.0948 29.8711 58.3006C28.0658 60.1678 27.8625 62.784 29.5629 64.5868C32.8924 68.1179 36.3269 71.5541 39.8563 74.8819C41.6481 76.5695 44.4357 76.2577 46.1428 74.5159C47.8397 72.7808 47.9684 70.0901 46.4239 68.1958C46.0039 67.6841 45.5263 67.2199 44.7811 66.4133ZM31.2192 9.56328C30.0303 9.56328 29.2512 9.56328 28.4688 9.56328C24.0656 9.56667 19.6623 9.50229 15.2625 9.59039C7.24518 9.74628 0.332083 16.1917 0.132243 24.0774C-0.0980801 33.0509 0.0374043 42.0345 0.0848239 51.0147C0.0983723 53.4818 2.07645 55.4202 4.45758 55.593C6.79808 55.7624 8.91841 54.2036 9.42648 51.8789C9.55857 51.2825 9.54164 50.6454 9.54164 50.0252C9.5518 41.8922 9.54503 33.7625 9.55857 25.6295C9.56535 21.5934 12.0549 19.1061 16.116 19.0857C20.631 19.062 25.1461 19.0756 29.6645 19.0857C30.0743 19.0857 30.4841 19.1637 31.1006 19.2281C30.623 19.733 30.3148 20.0515 30.01 20.3769C28.0454 22.4881 27.9675 25.3211 29.8237 27.2188C31.6798 29.1199 34.6096 29.1606 36.6521 27.1781C39.8495 24.0706 43.0063 20.9191 46.1055 17.7099C47.9549 15.7952 48.0937 13.1249 46.3358 11.278C43.0673 7.84179 39.714 4.4869 36.2829 1.21335C34.4437 -0.542034 31.6154 -0.318375 29.8541 1.46073C28.0996 3.23306 28.0082 5.98813 29.6543 7.90956C30.054 8.36705 30.4943 8.79742 31.2192 9.56328Z" fill="white"/>
</svg>
