<svg width="317" height="316" viewBox="0 0 317 316" fill="none" xmlns="http://www.w3.org/2000/svg">
<path d="M285.772 126.649C281.548 126.649 278.11 123.211 278.11 118.988C278.11 114.764 281.548 111.326 285.772 111.326C289.996 111.326 293.434 114.764 293.434 118.988C293.434 123.211 289.996 126.649 285.772 126.649ZM285.772 114.199C283.128 114.199 280.983 116.344 280.983 118.988C280.983 121.631 283.128 123.776 285.772 123.776C288.415 123.776 290.561 121.631 290.561 118.988C290.561 116.344 288.415 114.199 285.772 114.199Z" fill="#B240E4"/>
<path d="M208.221 201.897C208.144 201.897 208.067 201.888 207.991 201.878C207.464 201.802 207.023 201.466 206.803 200.978L200.961 187.982C200.731 187.474 200.798 186.871 201.124 186.421C201.459 185.971 202.014 185.731 202.56 185.808L218.009 187.752C218.574 187.819 219.063 188.202 219.264 188.738C219.465 189.275 219.36 189.878 218.986 190.309L209.38 201.361C209.092 201.706 208.671 201.897 208.221 201.897ZM204.926 189.236L208.642 197.501L214.753 190.472L204.926 189.236Z" fill="#B240E4"/>
<path d="M28.4364 250.607C28.0629 250.607 27.6989 250.473 27.4116 250.224L5.47852 230.916L7.52816 228.589L26.8082 245.56L26.1952 220.621C26.1856 220.123 26.4155 219.644 26.8178 219.347C27.22 219.05 27.7372 218.954 28.2161 219.108L41.7112 223.389L46.0978 211.752L48.9999 212.844L44.0961 225.85C43.8087 226.616 42.9659 227.028 42.1805 226.779L29.3559 222.709L29.9976 249.017C30.0168 249.63 29.6624 250.195 29.1069 250.463C28.877 250.559 28.6567 250.607 28.4364 250.607Z" fill="#B240E4"/>
<path d="M114.177 209.818C114.177 209.818 128.294 223.235 148.724 223.235L124.683 245.234L105.7 211.724L114.177 209.818Z" fill="#540F90"/>
<path d="M183.261 209.981C183.261 209.981 169.402 223.226 149.289 223.226L173.003 245.847L191.747 211.714L183.261 209.981Z" fill="#540F90"/>
<path d="M88.4698 269.349H85.5964V300.954H88.4698V269.349Z" fill="white"/>
<path d="M148.053 315.32H147.718C112.501 315.32 78.4707 302.659 51.8733 279.683L51.3369 279.214L51.3848 278.505C53.6452 243.932 79.5051 214.568 112.893 208.697C113.133 208.668 113.295 208.63 113.458 208.601C113.64 208.563 113.813 208.534 113.975 208.506L114.617 208.41L115.115 208.831C125.172 217.384 136.799 221.904 148.733 221.904C160.725 221.904 172.352 217.441 182.342 208.994L182.859 208.554L183.52 208.669C195.454 210.804 206.784 215.832 216.285 223.207C219.484 225.687 222.501 228.455 225.26 231.433L223.152 233.387C220.499 230.524 217.597 227.871 214.523 225.476C205.558 218.523 194.908 213.735 183.673 211.618C173.271 220.219 161.213 224.768 148.733 224.768C136.32 224.768 124.243 220.171 113.774 211.455C113.621 211.484 113.477 211.513 113.324 211.522C81.526 217.125 56.7867 245.014 54.306 277.969C80.2905 300.207 113.439 312.447 147.728 312.447H148.063C161.309 312.418 174.43 310.589 187.035 307.026L187.82 309.794C174.938 313.424 161.567 315.282 148.053 315.32Z" fill="white"/>
<path d="M124.75 248.155L123.84 246.556C120.622 240.877 117.395 235.197 114.167 229.518C110.93 223.82 107.683 218.121 104.455 212.423L106.955 211.005C110.183 216.704 113.429 222.402 116.667 228.101C119.598 233.244 122.519 238.396 125.44 243.539C128.792 240.34 132.355 236.921 135.908 233.512C139.95 229.633 143.983 225.745 147.737 222.192L149.72 224.279C145.975 227.832 141.933 231.711 137.901 235.59C133.868 239.469 129.836 243.348 126.091 246.901L124.75 248.155Z" fill="white"/>
<path d="M172.802 248.155L171.471 246.901C167.132 242.811 162.372 238.252 157.765 233.847C154.327 230.552 150.917 227.296 147.737 224.27L149.72 222.182C152.909 225.208 156.319 228.465 159.757 231.759C163.895 235.714 168.157 239.794 172.122 243.539L190.416 211.283L192.915 212.701L172.802 248.155Z" fill="white"/>
<path d="M150.4 292.613L123.85 246.565L126.34 245.129L150.237 286.579L171.538 244.573L174.095 245.876L150.4 292.613Z" fill="white"/>
<path d="M263.743 273.18H213.938V255.942H263.743V273.18ZM216.812 270.307H260.87V258.815H216.812V270.307Z" fill="#B240E4"/>
<path d="M201.545 283.409C205.28 283.122 209.897 283.016 215.097 283.447C231.811 284.817 238.151 290.352 250.162 290.573C256.33 290.688 265.477 289.423 276.874 282.327C277.468 281.953 284.852 301.079 274.058 305.14C250.545 305.034 227.041 304.929 203.528 304.823C193.404 299.211 199.38 283.572 201.545 283.409Z" fill="#540F90"/>
<path d="M269.059 307.658H208.623C202.043 307.658 196.698 302.305 196.698 295.735V293.925C196.698 280.9 207.291 270.307 220.317 270.307H257.374C270.39 270.307 280.992 280.9 280.992 293.925V295.735C280.983 302.305 275.629 307.658 269.059 307.658ZM220.317 273.18C208.881 273.18 199.572 282.48 199.572 293.925V295.735C199.572 300.724 203.633 304.785 208.623 304.785H269.059C274.049 304.785 278.109 300.724 278.109 295.735V293.925C278.109 282.489 268.809 273.18 257.364 273.18H220.317Z" fill="#B240E4"/>
<path d="M273.713 195.05C273.206 193.556 274.01 191.937 275.504 191.439L291.882 185.913C295.57 165.178 291.356 148.505 289.976 143.62C283.454 146.197 255.832 157.957 240.287 189.303C224.752 220.65 232.127 249.764 234.023 256.507C240.545 253.93 268.168 242.169 283.712 210.814C286.825 204.522 288.99 198.335 290.493 192.387L277.324 196.831C275.83 197.348 274.211 196.544 273.713 195.05Z" fill="#540F90"/>
<path d="M224.033 295.792L221.265 295.035C225.796 278.515 231.274 262.071 237.567 246.144C243.84 230.255 251.052 214.53 259.011 199.398L261.549 200.739C253.638 215.775 246.464 231.414 240.239 247.207C233.985 263.029 228.535 279.377 224.033 295.792Z" fill="#B240E4"/>
<path d="M85.2517 195.385C81.5738 195.385 77.2638 194.801 72.7431 192.991C69.1036 191.554 65.7418 189.505 62.7535 186.89C58.7021 187.905 54.555 188.422 50.4078 188.422C39.5179 188.422 29.1547 185.003 20.4102 178.529C9.29043 170.254 1.99218 157.708 0.402266 144.099C0.134089 142.232 0 140.172 0 138.037C0 110.244 22.6131 87.6416 50.3982 87.6416C61.7 87.6416 72.3792 91.3001 81.2769 98.2148C81.5355 98.4351 86.3531 102.544 90.1363 107.38L87.694 109.296C84.1023 104.718 79.3614 100.667 79.3135 100.619C71.0095 94.1732 60.9912 90.7446 50.3886 90.7446C24.3084 90.7446 3.08404 111.958 3.08404 138.046C3.08404 140.048 3.20855 141.954 3.45757 143.726C4.96128 156.521 11.7998 168.301 22.2396 176.058C30.4381 182.13 40.1691 185.348 50.3886 185.348C54.5454 185.348 58.7021 184.802 62.7439 183.71C63.2516 183.576 63.7975 183.71 64.1902 184.065C67.0635 186.689 70.3199 188.729 73.8733 190.137C80.3096 192.713 86.2861 192.55 90.3279 191.899C88.0005 189.332 85.3475 185.3 84.5334 179.717C84.0736 176.738 84.2269 173.683 84.9739 170.628C85.0314 170.379 85.1559 170.149 85.3283 169.958C87.8185 167.209 89.9927 164.182 91.7837 160.955L94.4942 162.459C92.6553 165.782 90.4333 168.904 87.8951 171.748C87.3205 174.277 87.2151 176.805 87.5982 179.267C88.5847 185.971 92.7511 190.156 94.5038 191.64C94.9444 192.014 95.1359 192.608 95.0114 193.163C94.8869 193.728 94.4463 194.169 93.8908 194.312C91.8891 194.82 88.8721 195.385 85.2517 195.385Z" fill="#B240E4"/>
<path d="M104.685 152.144C104.493 151.196 102.779 150.276 100.95 149.309C97.3963 147.422 92.5308 144.836 90.9888 138.429C88.6135 128.546 91.6113 124.782 93.6131 123.422C95.9022 121.861 99.0628 121.947 101.476 123.642L99.8291 125.998C98.6319 125.155 96.745 124.772 95.2317 125.797C92.866 127.406 92.3393 131.764 93.7855 137.759C95.021 142.911 98.8905 144.961 102.3 146.771C104.848 148.131 107.051 149.299 107.501 151.588L104.685 152.144Z" fill="white"/>
<path d="M195.53 151.828L192.714 151.272C193.145 149.06 194.888 147.882 196.737 146.637C199.265 144.923 202.129 142.988 203.384 137.759C204.859 131.639 204.418 127.08 202.206 125.577C201.085 124.82 199.505 124.935 198.164 125.874L196.516 123.518C198.844 121.89 201.708 121.765 203.824 123.202C205.759 124.514 208.632 128.249 206.18 138.429C204.667 144.741 201.008 147.212 198.346 149.012C196.679 150.142 195.731 150.832 195.53 151.828Z" fill="white"/>
<path d="M102.597 132.175C96.8408 123.106 91.5155 102.496 108.085 82.8338C112.998 77.0109 120.383 72.931 127.518 68.9948C136.062 64.2828 144.136 59.8294 144.979 53.4893L145.17 52.0527L146.607 52.2539C149.873 52.7136 157.142 56.0368 161.96 65.3076C167.017 64.6084 172.151 65.2405 177.237 67.1943L177.39 67.2613C207.885 83.4276 201.928 113.95 199.371 122.914L198.949 124.408C198.231 126.985 197.762 128.689 196.584 130.911L194.045 129.561C195.08 127.617 195.492 126.123 196.181 123.633L196.603 122.129C199.677 111.316 203.834 84.5864 176.116 69.8376C171.193 67.9604 166.241 67.4433 161.385 68.2956L160.313 68.4872L159.843 67.5103C156.07 59.657 150.495 56.4104 147.507 55.4239C145.601 62.3003 137.47 66.7825 128.907 71.504C121.992 75.3157 114.847 79.2615 110.278 84.6822C94.7815 103.08 99.6758 122.225 105.02 130.634L102.597 132.175Z" fill="white"/>
<path d="M105.212 132.798L102.348 132.549C102.683 128.776 103.641 121.449 106.332 114.764C107.97 110.703 110.068 106.815 112.587 103.224L113.314 102.18L114.435 102.783C136.368 114.477 158.675 115.138 171.27 104.459C173.75 102.362 176.087 100.37 176.355 94.4222L176.499 91.1755L178.807 93.4645C179.363 94.02 180.091 94.6712 180.943 95.4182C184.381 98.4829 189.582 103.109 192.206 109.41C195.999 118.509 197.024 126.793 196.718 131.505L193.854 131.323C194.122 127.138 193.155 119.17 189.553 110.521C187.188 104.833 182.284 100.465 179.037 97.5731C178.999 97.5348 178.96 97.5061 178.922 97.4773C178.012 102.524 175.445 104.708 173.137 106.662C159.862 117.915 136.847 117.599 114.234 105.934C112.156 109.056 110.403 112.389 109.004 115.856C106.447 122.177 105.528 129.178 105.212 132.798Z" fill="white"/>
<path d="M150.045 173.137C144.71 173.137 137.575 169.239 137.278 169.076L138.667 166.558C138.734 166.596 145.457 170.264 150.045 170.264C155.15 170.264 161.318 166.625 161.385 166.586L162.86 169.057C162.573 169.22 155.936 173.137 150.045 173.137Z" fill="white"/>
<path d="M148.972 159.135C144.548 159.135 141.789 156.913 141.674 156.818L141.147 156.387L141.128 130.432C141.128 127.818 139.002 125.692 136.387 125.692H121.992V122.819H136.387C140.582 122.819 144.002 126.228 144.002 130.432L144.021 154.95C144.844 155.439 146.597 156.272 148.972 156.272C152.325 156.272 154.432 154.615 154.451 154.596L156.271 156.818C156.156 156.904 153.397 159.135 148.972 159.135Z" fill="white"/>
<path d="M150.543 197.904C142.01 197.904 133.983 194.58 127.94 188.547L116.657 177.255C112.366 172.965 109.052 167.918 106.821 162.267L106.773 162.114C106.735 161.989 103.258 149.031 102.156 129.752L105.02 129.59C106.064 147.786 109.244 160.218 109.522 161.281C111.61 166.529 114.694 171.212 118.688 175.215L129.97 186.507C135.468 192.004 142.766 195.031 150.543 195.031C158.378 195.031 165.992 191.803 171.442 186.181L182.131 175.148C185.646 171.519 188.548 166.969 191.009 161.242C192.82 157.019 193.682 147.097 193.883 128.067L196.756 128.096C196.545 147.786 195.645 157.718 193.653 162.372C191.048 168.435 187.954 173.262 184.19 177.15L173.501 188.183C167.515 194.36 159.144 197.904 150.543 197.904Z" fill="white"/>
<path d="M115.182 211.475L113.956 208.87C126.197 203.123 127.499 187.455 127.509 187.302L130.373 187.512C130.334 188.231 128.926 205.029 115.182 211.475Z" fill="white"/>
<path d="M183.721 211.484C169.862 205.259 170.254 188.595 170.274 187.886L173.147 187.982C173.147 188.135 172.812 203.439 184.899 208.87L183.721 211.484Z" fill="white"/>
<path d="M156.127 182.599C156.098 182.58 153.062 181.01 149.777 181.01C148.877 181.01 147.957 181.125 147.038 181.364L146.329 178.577C147.478 178.29 148.637 178.136 149.777 178.136C153.8 178.136 157.324 179.985 157.478 180.061L156.127 182.599Z" fill="white"/>
<path d="M129.175 139.1C131.027 139.1 132.528 137.599 132.528 135.748C132.528 133.897 131.027 132.396 129.175 132.396C127.324 132.396 125.823 133.897 125.823 135.748C125.823 137.599 127.324 139.1 129.175 139.1Z" fill="white"/>
<path d="M168.444 139.1C170.296 139.1 171.796 137.599 171.796 135.748C171.796 133.897 170.296 132.396 168.444 132.396C166.593 132.396 165.092 133.897 165.092 135.748C165.092 137.599 166.593 139.1 168.444 139.1Z" fill="white"/>
<path d="M73.1454 130.48H69.3143V127.607H73.1454V130.48ZM65.4832 130.48H61.6521V127.607H65.4832V130.48ZM57.821 130.48H53.9899V127.607H57.821V130.48ZM50.1588 130.48H46.3277V127.607H50.1588V130.48ZM42.4966 130.48H38.6655V127.607H42.4966V130.48ZM34.8344 130.48H31.0033V127.607H34.8344V130.48ZM27.1722 130.48H23.3411V127.607H27.1722V130.48Z" fill="#B240E4"/>
<path d="M73.1454 139.1H23.3411V141.973H73.1454V139.1Z" fill="#B240E4"/>
<path d="M47.2855 151.55H23.3411V154.423H47.2855V151.55Z" fill="#B240E4"/>
<path d="M86.3818 316C60.474 305.111 41.8356 289.069 30.7542 277.538L32.8229 275.546C43.7129 286.885 62.0447 302.649 87.4928 313.347L86.3818 316Z" fill="#B240E4"/>
<path d="M24.1167 270.173C20.5442 265.93 18.4754 262.952 18.2168 262.425L20.7932 261.161L19.5002 261.793L20.7741 261.123C20.9177 261.372 22.6992 264.044 26.31 268.325L24.1167 270.173Z" fill="#B240E4"/>
<path d="M161.376 52.9051H158.272V16.8087C158.272 16.7129 158.282 16.6171 158.301 16.5309C158.895 13.3034 160.705 10.4398 163.157 8.87874C165.121 7.62413 167.352 7.24104 169.613 7.77737H257.153L267.421 6.82922L267.708 9.91308L257.364 10.8708C257.316 10.8708 257.268 10.8804 257.22 10.8804H169.431C169.296 10.8804 169.172 10.8612 169.038 10.8325C167.544 10.4398 166.117 10.6697 164.824 11.4933C163.119 12.5851 161.835 14.6155 161.376 16.9619V52.9051Z" fill="#B240E4"/>
<g filter="url(#filter0_d)">
<path d="M247.432 154.509V151.406C253.619 151.406 258.849 146.426 258.849 140.527V15.6019C258.829 13.3226 259.73 11.1677 261.368 9.55873C263.101 7.85399 265.563 6.925 268.024 6.99204C272.593 7.11654 276.309 11.0719 276.309 15.8031V76.1681C276.309 79.1178 278.713 81.5217 281.663 81.5217H282.228C285.178 81.5217 287.582 79.1178 287.582 76.1681V55.4909C287.582 51.162 290.532 47.4365 294.602 46.6129C297.016 46.1244 299.477 46.632 301.537 48.0207C303.845 49.5818 305.464 52.1293 305.981 54.9929C306 55.0887 306.01 55.1749 306.01 55.2706V109.401H302.906V55.4239C302.514 53.4222 301.383 51.6696 299.794 50.5874C298.836 49.9361 297.255 49.2466 295.215 49.6488C292.591 50.1756 290.685 52.6273 290.685 55.4909V76.1681C290.685 80.8322 286.892 84.6151 282.237 84.6151H281.672C277.008 84.6151 273.225 80.8226 273.225 76.1681V15.8031C273.225 12.7288 270.859 10.1717 267.957 10.095C266.271 10.0472 264.691 10.6601 263.551 11.7806C262.517 12.7958 261.952 14.1558 261.961 15.5924V140.527C261.942 148.112 255.295 154.509 247.432 154.509Z" fill="#B240E4"/>
</g>
<path d="M247.729 154.538H202.445V151.435H238.946C235.891 148.955 233.937 145.2 233.937 141.015V140.172H212.981V137.069H235.488C236.341 137.069 237.04 137.759 237.04 138.621V141.015C237.04 146.761 241.829 151.435 247.729 151.435C248.581 151.435 249.28 152.125 249.28 152.987C249.271 153.839 248.581 154.538 247.729 154.538Z" fill="#B240E4"/>
<path d="M243.629 50.8748H222.558V53.9778H243.629V50.8748Z" fill="#B240E4"/>
<path d="M243.629 69.0714H199.572V72.1744H243.629V69.0714Z" fill="#B240E4"/>
<path d="M243.63 89.1835H212.023V92.2865H243.63V89.1835Z" fill="#B240E4"/>
<path d="M243.63 109.296H233.094V112.399H243.63V109.296Z" fill="#B240E4"/>
<path d="M223.516 109.296H212.023V112.399H223.516V109.296Z" fill="#B240E4"/>
<path d="M184.209 52.6273C182.82 54.016 180.569 54.016 179.19 52.6273C177.801 51.2387 177.801 48.988 179.19 47.6089C180.579 46.2202 182.83 46.2202 184.209 47.6089C185.588 48.9976 185.588 51.2482 184.209 52.6273Z" fill="#B240E4"/>
<path d="M193.48 52.7901L190.674 52.158C191.373 49.055 190.454 45.8563 188.213 43.6056C185.914 41.3071 182.533 40.3877 179.382 41.2017L178.664 38.4244C182.792 37.3517 187.236 38.5584 190.253 41.5752C193.193 44.5154 194.4 48.7103 193.48 52.7901Z" fill="#B240E4"/>
<path d="M202.388 53.518L199.553 53.0487C200.491 47.312 198.604 41.4412 194.496 37.3326C190.396 33.2335 184.535 31.3373 178.798 32.2662L178.338 29.4314C184.975 28.3588 191.775 30.5519 196.526 35.3022C201.286 40.0621 203.48 46.8715 202.388 53.518Z" fill="#B240E4"/>
<path d="M211.362 53.3935L208.508 53.0775C209.408 44.889 206.583 36.8633 200.769 31.0404C194.907 25.1792 186.824 22.3635 178.587 23.3116L178.261 20.4576C187.37 19.4041 196.315 22.5263 202.799 29.01C209.236 35.4555 212.358 44.3431 211.362 53.3935Z" fill="#B240E4"/>
<path d="M28.0534 86.5497C24.7203 78.0069 23.4369 69.0139 24.2223 59.8198C25.5823 43.9408 33.0434 29.5367 45.2359 19.2604C57.438 8.98407 72.9061 4.08055 88.786 5.44051C112.012 7.43256 132.087 22.8997 139.931 44.8698L137.01 45.9137C129.578 25.0929 110.547 10.4206 88.5178 8.53394C73.4616 7.24102 58.798 11.8955 47.2376 21.626C35.6773 31.366 28.5993 45.023 27.3159 60.0784C26.5688 68.8032 27.7948 77.3269 30.9459 85.4196L28.0534 86.5497Z" fill="#B240E4"/>
<path d="M50.9633 81.0812C50.2258 75.8041 49.8523 70.2877 49.8523 64.685C49.8523 48.6528 52.8884 33.8082 58.4052 22.8806C64.2189 11.3497 72.4367 5 81.5451 5C97.291 5 109.79 24.1256 112.644 52.5795L109.56 52.8859C106.878 26.0985 95.6149 8.09343 81.5451 8.09343C65.2438 8.09343 52.9459 32.4195 52.9459 64.6755C52.9459 70.144 53.3099 75.5168 54.0282 80.6406L50.9633 81.0812Z" fill="#B240E4"/>
<path d="M82.8383 6.93457H79.7351V86.4252H82.8383V6.93457Z" fill="#B240E4"/>
<path d="M109.541 65.2405H25.2566V68.3435H109.541V65.2405Z" fill="#B240E4"/>
<path d="M120.077 35.5513H32.9189V38.6543H120.077V35.5513Z" fill="#B240E4"/>
<defs>
<filter id="filter0_d" x="237.432" y="0.988647" width="78.5776" height="167.521" filterUnits="userSpaceOnUse" color-interpolation-filters="sRGB">
<feFlood flood-opacity="0" result="BackgroundImageFix"/>
<feColorMatrix in="SourceAlpha" type="matrix" values="0 0 0 0 0 0 0 0 0 0 0 0 0 0 0 0 0 0 127 0"/>
<feOffset dy="4"/>
<feGaussianBlur stdDeviation="5"/>
<feColorMatrix type="matrix" values="0 0 0 0 1 0 0 0 0 1 0 0 0 0 1 0 0 0 0.25 0"/>
<feBlend mode="normal" in2="BackgroundImageFix" result="effect1_dropShadow"/>
<feBlend mode="normal" in="SourceGraphic" in2="effect1_dropShadow" result="shape"/>
</filter>
</defs>
</svg>
