<svg width="321" height="307" viewBox="0 0 321 307" fill="none" xmlns="http://www.w3.org/2000/svg">
<path d="M289.767 260.898H287.631V271.883H289.767V260.898Z" fill="#30A5E7"/>
<path d="M305.722 276.097H294.943V278.233H305.722V276.097Z" fill="#30A5E7"/>
<path d="M289.767 283.892H287.631V294.279H289.767V283.892Z" fill="#30A5E7"/>
<path d="M282.776 276.097H271.378V278.233H282.776V276.097Z" fill="#30A5E7"/>
<path d="M274.909 221.303H272.773V227.504H274.909V221.303Z" fill="#30A5E7"/>
<path d="M283.452 229.419H277.365V231.555H283.452V229.419Z" fill="#30A5E7"/>
<path d="M274.909 234.281H272.773V240.14H274.909V234.281Z" fill="#30A5E7"/>
<path d="M270.495 229.419H264.066V231.555H270.495V229.419Z" fill="#30A5E7"/>
<path d="M187.881 73.3952H185.745V38.2282C185.745 27.8275 194.203 19.3704 204.605 19.3704H272.431C280.028 19.3704 286.848 23.8908 289.81 30.8886L287.845 31.7216C285.218 25.521 279.174 21.506 272.439 21.506H204.612C195.392 21.506 187.888 29.0093 187.888 38.2282V73.3952H187.881Z" fill="#30A5E7"/>
<path d="M272.439 178.284H262.037V176.149H272.439C281.658 176.149 289.162 168.645 289.162 159.426V87.9889H291.298V159.426C291.298 169.82 282.833 178.284 272.439 178.284Z" fill="#30A5E7"/>
<path d="M275.728 144.925H262.037V142.79H273.592V93.8263H275.728V144.925Z" fill="#30A5E7"/>
<path d="M203.174 67.1378H201.038V39.3885H252.148V41.5242H203.174V67.1378Z" fill="#30A5E7"/>
<path d="M243.804 28.9595H233.794V31.0951H243.804V28.9595Z" fill="#30A5E7"/>
<path d="M308.719 88.2238H263.675C256.904 88.2238 251.394 82.7138 251.394 75.9438V73.4949H234.279L251.394 51.8607V42.9764C251.394 36.2064 256.904 30.6964 263.675 30.6964H308.719C315.49 30.6964 321 36.2064 321 42.9764V75.9438C321 82.7138 315.49 88.2238 308.719 88.2238ZM238.685 71.3521H253.529V75.9366C253.529 81.532 258.079 86.081 263.675 86.081H308.719C314.315 86.081 318.864 81.532 318.864 75.9366V42.9764C318.864 37.381 314.315 32.8321 308.719 32.8321H263.675C258.079 32.8321 253.529 37.381 253.529 42.9764V52.6011L238.685 71.3521Z" fill="#30A5E7"/>
<path d="M210.051 130.98V128.844C211.788 128.844 213.205 127.427 213.205 125.69V113.325H228.049L213.205 94.5667V84.942C213.205 79.3466 208.656 74.7976 203.06 74.7976H158.015C152.42 74.7976 147.87 79.3466 147.87 84.942V87.9817H145.734V84.942C145.734 78.172 151.245 72.662 158.015 72.662H203.06C209.83 72.662 215.341 78.172 215.341 84.942V93.8263L232.456 115.46H215.341V125.69C215.341 128.609 212.97 130.98 210.051 130.98Z" fill="#30A5E7"/>
<path d="M305.238 52.174H267.989V54.3096H305.238V52.174Z" fill="#30A5E7"/>
<path d="M293.562 66.0699H267.989V68.2056H293.562V66.0699Z" fill="#30A5E7"/>
<path d="M172.674 269H170.538V258.186H16.8445V143.801H59.682V145.936H18.9803V256.05H172.674V269Z" fill="#30A5E7"/>
<path d="M171.677 295.346H16.9869C7.61777 295.346 0 287.729 0 278.361V271.014H188.664V278.361C188.664 287.729 181.047 295.346 171.677 295.346ZM2.13582 273.15V278.361C2.13582 286.548 8.79959 293.211 16.9869 293.211H171.677C179.865 293.211 186.529 286.548 186.529 278.361V273.15H2.13582Z" fill="#30A5E7"/>
<path d="M30.9338 253.993H28.798V157.156H59.2477V159.291H30.9338V253.993Z" fill="#30A5E7"/>
<path d="M57.9307 195.804H43.4285V177.444H58.1514V179.58H45.5643V193.668H57.9307V195.804Z" fill="#30A5E7"/>
<path d="M132.827 283.679H54.4137V271.228H56.5495V281.543H130.691V271.228H132.827V283.679Z" fill="#30A5E7"/>
<path d="M130.285 304.864H43.2576V307H130.285V304.864Z" fill="#30A5E7"/>
<path d="M143.022 304.864H135.86V307H143.022V304.864Z" fill="#30A5E7"/>
<path d="M72.0983 80.0229C68.6382 80.0229 65.1782 78.8625 62.2948 76.556L57.5676 72.7688C53.4383 69.4585 50.975 64.1835 50.975 58.6521V44.2009H53.1108V58.6521C53.1108 63.5428 55.2751 68.1914 58.8989 71.103L63.6262 74.8902C68.6881 78.948 75.4942 78.948 80.5632 74.8902L85.2905 71.103C88.9143 68.1985 91.0786 63.5428 91.0786 58.6521V42.2788H93.2144V58.645C93.2144 64.1764 90.7511 69.4514 86.6219 72.7617L81.8946 76.5489C79.0183 78.8625 75.5583 80.0229 72.0983 80.0229Z" fill="#30A5E7"/>
<path d="M44.3966 40.1503L43.2432 34.8681C41.8336 27.8133 43.2148 20.5521 46.9382 15.4265C49.3446 12.1091 52.5839 10.002 56.1009 9.4467C57.5533 7.64563 64.3238 0 75.0172 0C81.325 0 90.3453 3.38145 96.2971 10.9488C99.9565 15.6045 103.73 23.599 100.896 35.2667L99.7287 39.4384L97.6711 38.8617L98.8316 34.7257C101.452 23.9264 97.9844 16.5442 94.6169 12.2658C89.1421 5.30354 80.6202 2.13565 75.0172 2.13565C64.2526 2.13565 57.6031 10.9915 57.539 11.0769L57.2614 11.4471L56.7986 11.504C53.6589 11.8813 50.8468 13.6682 48.6611 16.6794C45.2865 21.3352 44.0406 27.9699 45.3292 34.4338L46.4755 39.6947L44.3966 40.1503Z" fill="#30A5E7"/>
<path d="M92.6876 57.9117L91.3919 56.2175L94.6597 53.7259C95.514 53.0709 96.1049 52.0957 96.3185 50.978L96.9521 47.682C97.1728 46.543 96.8881 45.3968 96.1761 44.5354C95.5496 43.7808 94.6953 43.368 93.7698 43.368H90.566V41.2323H93.7698C95.3218 41.2323 96.7955 41.9442 97.8207 43.1757C98.9385 44.5283 99.387 46.3223 99.0524 48.0877L98.4187 51.3838C98.1055 53.0211 97.2298 54.4591 95.9554 55.4273L92.6876 57.9117Z" fill="#30A5E7"/>
<path d="M51.4448 58.4172L48.1343 55.9256C46.8457 54.9503 45.9557 53.5123 45.6354 51.875L44.9946 48.579C44.6529 46.8277 45.1014 45.048 46.212 43.6954C47.2443 42.4425 48.7465 41.7235 50.3342 41.7235H53.5806V43.8592H50.3342C49.3802 43.8592 48.4974 44.2863 47.8637 45.0551C47.1589 45.9165 46.8741 47.0484 47.0948 48.1732L47.7356 51.4692C47.9492 52.5869 48.5543 53.5621 49.4229 54.2171L52.7334 56.7087L51.4448 58.4172Z" fill="#30A5E7"/>
<path d="M85.1339 73.7797H82.998V88.238H85.1339V73.7797Z" fill="#30A5E7"/>
<path d="M84.5101 82.5163L83.605 84.4506L95.1986 89.8751L96.1038 87.9408L84.5101 82.5163Z" fill="#30A5E7"/>
<path d="M67.0506 136.426C51.0889 135.892 35.6753 132.944 22.4831 127.89L21.5718 127.541L24.7114 116.578C28.6556 103.529 37.4409 93.0931 48.8178 87.932L60.4366 83.0983L61.2554 85.0702L49.665 89.8896C38.8791 94.7874 30.5209 104.74 26.7618 117.183L24.1632 126.238C36.9283 130.994 51.7581 133.777 67.1218 134.29L67.0506 136.426Z" fill="#30A5E7"/>
<path d="M61.9104 74.6624H59.7745V88.238H61.9104V74.6624Z" fill="#30A5E7"/>
<path d="M41.4635 121.134H39.3276V132.482H41.4635V121.134Z" fill="#30A5E7"/>
<path d="M87.8179 35.2738C86.6076 35.2738 85.3902 35.167 84.4291 34.9677L84.8634 32.8748C85.7746 33.0598 87.0277 33.1595 88.2024 33.131L88.2451 35.2667C88.1027 35.2738 87.9603 35.2738 87.8179 35.2738Z" fill="#30A5E7"/>
<path d="M81.9017 34.4552C70.8239 31.7002 64.4022 23.4708 64.1317 23.122L61.647 19.7975L63.3556 18.5232L65.8332 21.8335C66.0753 22.1467 72.0556 29.8066 82.4143 32.3836L81.9017 34.4552Z" fill="#30A5E7"/>
<path d="M92.1536 43.3466H89.192C72.7034 43.3466 62.0955 32.9745 58.7992 29.2157L52.406 42.2646L50.4908 41.3249L58.3792 25.222L59.4257 26.6173C59.5325 26.7597 70.5818 41.211 89.1991 41.211H92.1608V43.3466H92.1536Z" fill="#30A5E7"/>
<path d="M53.262 87.4108L51.9066 89.0614L66.4115 100.97L67.7668 99.3192L53.262 87.4108Z" fill="#30A5E7"/>
<path d="M45.4443 90.3183L44.1068 91.9833L66.4079 109.895L67.7453 108.23L45.4443 90.3183Z" fill="#30A5E7"/>
<path d="M111.49 79.6741L117.129 60.6169C113.434 56.5806 111.412 51.3838 111.412 45.9094V31.7714C111.412 25.635 116.402 20.6447 122.539 20.6447H156.285C162.422 20.6447 167.413 25.635 167.413 31.7714V56.5948C167.413 62.7312 162.422 67.7215 156.285 67.7215H135.71L111.49 79.6741ZM122.532 22.7803C117.577 22.7803 113.54 26.8167 113.54 31.7714V45.9165C113.54 51.0421 115.512 55.8971 119.086 59.5918L119.521 60.0403L114.921 75.6021L135.205 65.593H156.278C161.233 65.593 165.27 61.5566 165.27 56.6019V31.7714C165.27 26.8167 161.233 22.7803 156.278 22.7803H122.532Z" fill="#30A5E7"/>
<path d="M152.291 36.8257H149.443V34.6901H152.291V36.8257ZM146.596 36.8257H143.748V34.6901H146.596V36.8257ZM140.9 36.8257H138.052V34.6901H140.9V36.8257ZM135.205 36.8257H132.357V34.6901H135.205V36.8257ZM129.509 36.8257H126.661V34.6901H129.509V36.8257Z" fill="#30A5E7"/>
<path d="M152.605 44.4001H126.661V46.5358H152.605V44.4001Z" fill="#30A5E7"/>
<path d="M140.793 53.2205H126.661V55.3561H140.793V53.2205Z" fill="#30A5E7"/>
<path d="M18.9803 257.118H16.8445V269H18.9803V257.118Z" fill="#30A5E7"/>
<path d="M206.733 145.175V206.674H190.971V230.124L160.685 206.674H123.664V260.443H218.025L248.311 283.892V260.443H264.066V145.175H206.733Z" fill="#0059D6"/>
<path d="M192.039 232.302L160.322 207.742H65.2637V90.3452H207.801V207.749H192.039V232.302ZM67.3995 205.606H161.055L161.347 205.827L189.91 227.945V205.606H205.673V92.4809H67.3995V205.606Z" fill="white"/>
<path d="M243.363 274.844L211.639 250.284H116.58V226.977H118.716V248.148H212.372L241.227 270.487V248.148H256.982V137.821H211.838V135.685H259.118V250.284H243.363V274.844Z" fill="white"/>
<path d="M142.979 217.239H66.3315V219.374H142.979V217.239Z" fill="white"/>
<path d="M156.114 217.239H149.429V219.374H156.114V217.239Z" fill="white"/>
<path d="M184.101 186.471H181.253V184.335H184.101V186.471ZM178.405 186.471H175.558V184.335H178.405V186.471ZM172.71 186.471H169.862V184.335H172.71V186.471ZM167.014 186.471H164.167V184.335H167.014V186.471ZM161.319 186.471H158.471V184.335H161.319V186.471ZM155.623 186.471H152.775V184.335H155.623V186.471ZM149.928 186.471H147.08V184.335H149.928V186.471ZM144.232 186.471H141.384V184.335H144.232V186.471ZM138.537 186.471H135.689V184.335H138.537V186.471ZM132.841 186.471H129.993V184.335H132.841V186.471ZM127.146 186.471H124.298V184.335H127.146V186.471ZM121.45 186.471H118.602V184.335H121.45V186.471ZM115.755 186.471H112.907V184.335H115.755V186.471ZM110.059 186.471H107.211V184.335H110.059V186.471ZM104.363 186.471H101.516V184.335H104.363V186.471ZM98.6679 186.471H95.8202V184.335H98.6679V186.471ZM92.9724 186.471H90.1246V184.335H92.9724V186.471Z" fill="white"/>
<path d="M186.635 166.061H90.1246V168.197H186.635V166.061Z" fill="white"/>
<path d="M159.454 146.577H117.307V148.713H159.454V146.577Z" fill="white"/>
<path d="M159.454 128.303H117.307V130.439H159.454V128.303Z" fill="white"/>
<path d="M186.635 108.819H90.1246V110.954H186.635V108.819Z" fill="white"/>
</svg>
