<svg width="10" height="17" viewBox="0 0 10 17" fill="none" xmlns="http://www.w3.org/2000/svg">
<path d="M6.67969 11.6074C6.67969 11.1445 6.56543 10.7812 6.33691 10.5176C6.1084 10.2539 5.70703 10.0049 5.13281 9.77051C4.55859 9.53613 4.02832 9.29883 3.54199 9.05859C3.05566 8.81836 2.63672 8.54004 2.28516 8.22363C1.93359 7.90723 1.66406 7.54102 1.47656 7.125C1.28906 6.70898 1.19531 6.20508 1.19531 5.61328C1.19531 4.62305 1.5293 3.80859 2.19727 3.16992C2.86523 2.52539 3.75586 2.15039 4.86914 2.04492V0.19043H6.2666V2.08008C7.33887 2.23828 8.17969 2.68066 8.78906 3.40723C9.4043 4.12793 9.71191 5.04492 9.71191 6.1582H6.74121C6.74121 5.54883 6.62402 5.08008 6.38965 4.75195C6.15527 4.42383 5.82129 4.25977 5.3877 4.25977C5.00098 4.25977 4.69922 4.38281 4.48242 4.62891C4.27148 4.86914 4.16602 5.20312 4.16602 5.63086C4.16602 6.06445 4.28906 6.41016 4.53516 6.66797C4.78125 6.91992 5.17676 7.16309 5.72168 7.39746C6.2666 7.62598 6.7793 7.86621 7.25977 8.11816C7.74609 8.36426 8.16504 8.64551 8.5166 8.96191C8.86816 9.27832 9.14355 9.64746 9.34277 10.0693C9.54199 10.4912 9.6416 10.998 9.6416 11.5898C9.6416 12.5918 9.32227 13.4092 8.68359 14.042C8.05078 14.6748 7.18652 15.0439 6.09082 15.1494V16.916H4.69336V15.1406C3.41602 15.0059 2.43457 14.5693 1.74902 13.8311C1.06934 13.0869 0.729492 12.1084 0.729492 10.8955H3.69141C3.69141 11.5635 3.83789 12.0732 4.13086 12.4248C4.42969 12.7705 4.85156 12.9434 5.39648 12.9434C5.79492 12.9434 6.1084 12.8262 6.33691 12.5918C6.56543 12.3516 6.67969 12.0234 6.67969 11.6074Z" fill="#B240E4"/>
</svg>
