<svg width="17" height="29" viewBox="0 0 17 29" fill="none" xmlns="http://www.w3.org/2000/svg">
<path d="M16.5277 8.26387C16.5277 3.69988 12.8279 0 8.26387 0C3.69982 0 0 3.69988 0 8.26387C0 12.2687 2.84891 15.6078 6.63052 16.366V22.2118H3.12498V25.4785H6.63052V29H9.89721V25.4785H13.4028V22.2118H9.89721V16.366C13.6789 15.6078 16.5277 12.2687 16.5277 8.26387ZM3.12498 8.26387C3.12498 5.42572 5.42572 3.12498 8.26387 3.12498C11.102 3.12498 13.4028 5.42572 13.4028 8.26387C13.4028 11.102 11.102 13.4028 8.26387 13.4028C5.42572 13.4028 3.12498 11.102 3.12498 8.26387Z" fill="white"/>
</svg>
