<svg width="23" height="23" viewBox="0 0 23 23" fill="none" xmlns="http://www.w3.org/2000/svg">
<g clip-path="url(#clip0)">
<path d="M19.6301 3.36912C15.1371 -1.12398 7.86409 -1.1247 3.37036 3.36912C-1.12279 7.86222 -1.12346 15.1352 3.37036 19.6289C7.86337 24.122 15.1364 24.1227 19.6301 19.6289C24.1233 15.1358 24.1239 7.86289 19.6301 3.36912ZM19.1496 17.99C18.6124 17.5096 18.0378 17.0845 17.4321 16.7182C17.8324 15.3353 18.0696 13.8136 18.1257 12.2317H21.5059C21.3531 14.3639 20.5338 16.364 19.1496 17.99ZM1.49451 12.2317H4.87477C4.93084 13.8136 5.16801 15.3353 5.56834 16.7182C4.96266 17.0845 4.38804 17.5096 3.85085 17.99C2.46659 16.364 1.64739 14.3639 1.49451 12.2317ZM3.8509 5.00806C4.38808 5.48842 4.9627 5.91353 5.56839 6.27988C5.16805 7.66275 4.93088 9.18449 4.87482 10.7663H1.49451C1.64739 8.6342 2.46659 6.63407 3.8509 5.00806ZM10.7676 6.43132C9.57264 6.34586 8.42048 6.05155 7.35235 5.56603C7.97356 3.96636 9.11876 2.04774 10.7676 1.57227V6.43132ZM10.7676 7.89943V10.7664H6.34077C6.39149 9.42826 6.58109 8.14334 6.89641 6.96766C8.11024 7.49829 9.41568 7.81518 10.7676 7.89943ZM10.7676 12.2317V15.0987C9.41568 15.1829 8.11024 15.4998 6.89641 16.0304C6.58109 14.8548 6.39149 13.5698 6.34077 12.2317H10.7676ZM10.7676 16.5668V21.4258C9.11885 20.9503 7.97365 19.0319 7.35235 17.4321C8.42048 16.9465 9.57264 16.6522 10.7676 16.5668ZM12.2329 16.5668C13.4278 16.6522 14.58 16.9465 15.6481 17.4321C15.0269 19.0318 13.8817 20.9503 12.2329 21.4258V16.5668ZM12.2329 15.0987V12.2317H16.6597C16.609 13.5698 16.4194 14.8548 16.1041 16.0304C14.8902 15.4998 13.5848 15.1829 12.2329 15.0987ZM12.2329 10.7664V7.89943C13.5848 7.81518 14.8902 7.49829 16.1041 6.96766C16.4194 8.14334 16.609 9.42826 16.6597 10.7664H12.2329ZM12.2329 6.43132V1.57232C13.8817 2.04779 15.0269 3.96641 15.6481 5.56607C14.58 6.05155 13.4278 6.34586 12.2329 6.43132ZM15.5239 2.30381C16.4618 2.71451 17.3368 3.2714 18.1211 3.96237C17.7478 4.29155 17.3538 4.59004 16.9424 4.85697C16.5771 3.95245 16.1104 3.07341 15.5239 2.30381ZM6.05799 4.85697C5.64662 4.59004 5.25271 4.29155 4.87931 3.96237C5.66368 3.2714 6.53867 2.71451 7.47655 2.30381C6.88999 3.0735 6.42332 3.95254 6.05799 4.85697ZM6.05804 18.1411C6.42332 19.0456 6.89008 19.9247 7.47659 20.6943C6.53872 20.2836 5.66372 19.7267 4.87935 19.0357C5.25271 18.7065 5.64667 18.408 6.05804 18.1411ZM16.9424 18.1411C17.3538 18.408 17.7478 18.7065 18.1211 19.0357C17.3368 19.7266 16.4618 20.2835 15.5239 20.6942C16.1104 19.9247 16.5771 19.0456 16.9424 18.1411ZM18.1257 10.7664C18.0696 9.18454 17.8325 7.66275 17.4321 6.27993C18.0378 5.91357 18.6124 5.48846 19.1496 5.0081C20.5339 6.63407 21.3531 8.6342 21.506 10.7664H18.1257Z" fill="white"/>
</g>
<defs>
<clipPath id="clip0">
<rect width="23" height="23" fill="white"/>
</clipPath>
</defs>
</svg>
