<svg width="32" height="32" viewBox="0 0 32 32" fill="none" xmlns="http://www.w3.org/2000/svg">
<path fill-rule="evenodd" clip-rule="evenodd" d="M16 0C7.16444 0 0 7.16444 0 16C0 24.8356 7.16444 32 16 32C24.8356 32 32 24.8356 32 16C32 7.16444 24.8356 0 16 0ZM23.12 23.8311C21.2933 25.5244 18.8622 26.4311 16.3156 26.4311C12.1867 26.4311 8.64 24.0711 6.94222 20.6222V20.6178C6.25778 19.2267 5.87111 17.6622 5.87111 16C5.87111 14.3378 6.25778 12.7689 6.94222 11.3778C8.64 7.92889 12.1867 5.56889 16.3156 5.56889C18.9733 5.56889 21.3467 6.56444 23.2 8.17778L20.16 11.2133C19.1156 10.36 17.7867 9.84 16.3156 9.84C13.5778 9.84 11.2667 11.6089 10.4578 14.0667C10.2578 14.6756 10.1467 15.3244 10.1467 16.0044C10.1467 16.68 10.2578 17.3244 10.4578 17.9333L10.4622 17.9422C11.2711 20.4 13.5822 22.1689 16.32 22.1689C17.6622 22.1689 18.8489 21.8489 19.7867 21.2578C20.8756 20.5689 21.64 19.5156 21.92 18.1422H16.32V14.1111H26.0533C26.1956 14.7289 26.2889 15.3911 26.2889 16.0089C26.2889 19.4 25.04 22.0489 23.12 23.8311Z" fill="white"/>
</svg>
