<svg width="102" height="102" viewBox="0 0 102 102" fill="none" xmlns="http://www.w3.org/2000/svg">
<path d="M0.256844 29.7426C0.493835 24.3674 1.36308 20.6719 2.60828 17.4698C3.89284 14.0708 5.86909 11.0276 8.45829 8.49789C10.988 5.92876 14.0512 3.93244 17.4109 2.66794C20.6315 1.42275 24.3077 0.553505 29.6829 0.316509C35.0983 0.0594419 36.8175 0 50.5525 0C64.2874 0 66.0066 0.0594419 71.4019 0.296438C76.7772 0.533434 80.4726 1.40345 83.674 2.64787C87.0738 3.93244 90.1169 5.90869 92.6466 8.49789C95.2158 11.0276 97.2113 14.0908 98.4766 17.4505C99.7218 20.6719 100.591 24.3473 100.828 29.7225C101.085 35.1379 101.145 36.8571 101.145 50.5921C101.145 64.327 101.085 66.0462 100.848 71.4416C100.611 76.8168 99.7411 80.5122 98.4959 83.7144C97.2113 87.1134 95.2158 90.1565 92.6466 92.6863C90.1169 95.2554 87.0537 97.2517 83.6941 98.5162C80.4726 99.7614 76.7973 100.631 71.4212 100.868C66.0267 101.105 64.3067 101.164 50.5718 101.164C36.8368 101.164 35.1176 101.105 29.7223 100.868C24.3471 100.631 20.6516 99.7614 17.4502 98.5162C10.6515 95.8876 5.27621 90.5124 2.64764 83.7144C1.40322 80.4929 0.533211 76.8168 0.296211 71.4416C0.0592194 66.0462 -0.000228882 64.327 -0.000228882 50.5921C-0.000228882 36.8571 0.0198441 35.1379 0.256844 29.7426ZM9.36691 71.0463C9.5846 75.9869 10.4145 78.6549 11.1062 80.4335C12.806 84.8407 16.3039 88.3385 20.7111 90.0384C22.4897 90.7301 25.1769 91.56 30.0983 91.7769C35.4341 92.0147 37.0344 92.0733 50.5324 92.0733C64.0304 92.0733 65.6507 92.0147 70.9673 91.7769C75.9079 91.56 78.5759 90.7301 80.3545 90.0384C82.5477 89.2278 84.544 87.9433 86.1644 86.2635C87.8442 84.623 89.1288 82.6468 89.9393 80.4536C90.631 78.6749 91.4609 75.9869 91.6778 71.0664C91.9156 65.7305 91.9743 64.1294 91.9743 50.6315C91.9743 37.1335 91.9156 35.5131 91.6778 30.1973C91.4609 25.2567 90.631 22.5887 89.9393 20.8101C89.1288 18.6161 87.8442 16.6206 86.1443 14.9995C84.5046 13.3196 82.5284 12.0351 80.3344 11.2253C78.5558 10.5336 75.8678 9.70371 70.9472 9.48602C65.6114 9.24902 64.0103 9.18958 50.5131 9.18958C36.9951 9.18958 35.3948 9.24902 30.0782 9.48602C25.1376 9.70371 22.4696 10.5336 20.691 11.2253C18.4978 12.0351 16.5015 13.3196 14.8811 14.9995C13.2013 16.6399 11.9167 18.6161 11.1062 20.8101C10.4145 22.5887 9.5846 25.276 9.36691 30.1973C9.12991 35.5332 9.07047 37.1335 9.07047 50.6315C9.07047 64.1294 9.12991 65.7104 9.36691 71.0463Z" fill="white"/>
<path d="M50.5533 24.6043C64.9004 24.6043 76.541 36.2441 76.541 50.592C76.541 64.9399 64.9004 76.5797 50.5533 76.5797C36.2054 76.5797 24.5656 64.9399 24.5656 50.592C24.5656 36.2441 36.2054 24.6043 50.5533 24.6043ZM50.5533 67.4496C59.861 67.4496 67.4109 59.9005 67.4109 50.592C67.4109 41.2836 59.861 33.7344 50.5533 33.7344C41.2448 33.7344 33.6957 41.2836 33.6957 50.592C33.6957 59.9005 41.2448 67.4496 50.5533 67.4496Z" fill="white"/>
<path d="M17.4698 23.5768C17.4698 26.9272 20.1864 29.6438 23.5375 29.6438C26.8879 29.6438 29.6045 26.9272 29.6045 23.5768C29.6045 20.2257 26.8879 17.5099 23.5375 17.5099C20.1864 17.5099 17.4698 20.2257 17.4698 23.5768Z" fill="white"/>
</svg>
