<svg width="41" height="47" viewBox="0 0 41 47" fill="none" xmlns="http://www.w3.org/2000/svg">
<path d="M18.5234 21.1653C17.9078 21.1653 17.4936 21.2268 17.2754 21.2828V25.2282C17.5328 25.2898 17.8518 25.3066 18.2883 25.3066C19.8945 25.3066 20.885 24.4895 20.885 23.124C20.8906 21.8984 20.0344 21.1653 18.5234 21.1653Z" fill="#D022ED"/>
<path d="M38.0768 16.7274H36.9799V11.4389C36.9799 11.4053 36.9743 11.3717 36.9687 11.3381C36.9687 11.1255 36.9015 10.924 36.756 10.7561L27.953 0.69954L27.9474 0.693944C27.8971 0.63798 27.8355 0.587614 27.7684 0.548439C27.746 0.537247 27.7292 0.526054 27.7124 0.514862C27.6564 0.481284 27.5949 0.458898 27.5333 0.442109C27.5165 0.436513 27.5053 0.430917 27.4829 0.42532C27.4158 0.408532 27.3486 0.397339 27.2759 0.397339H5.64052C4.65557 0.397339 3.84971 1.20321 3.84971 2.18816V16.733H2.75282C1.33695 16.733 0.195312 17.8802 0.195312 19.2905V32.5985C0.195312 34.0144 1.34254 35.1561 2.75282 35.1561H3.84971V44.2669C3.84971 45.2574 4.65557 46.0577 5.64052 46.0577H35.1891C36.1796 46.0577 36.9799 45.2518 36.9799 44.2669V35.1561H38.0768C39.4926 35.1561 40.6343 34.0088 40.6343 32.5985V19.2849C40.6343 17.869 39.487 16.7274 38.0768 16.7274ZM5.64052 2.18256H26.3805V11.3493C26.3805 11.8418 26.7834 12.2447 27.2759 12.2447H35.1835V16.733H5.63493V2.18256H5.64052ZM23.8845 23.0456C23.8845 24.3552 23.448 25.4632 22.6533 26.2187C21.6236 27.1925 20.0958 27.629 18.3106 27.629C17.9132 27.629 17.5551 27.6122 17.2809 27.5675V32.3467H14.2868V19.1618C15.2214 18.9995 16.531 18.882 18.3722 18.882C20.2357 18.882 21.5676 19.2401 22.4575 19.9565C23.3081 20.628 23.8845 21.7361 23.8845 23.0456ZM4.79549 32.2516L5.13685 29.8116C5.55098 29.9515 6.08823 30.0522 6.68144 30.0522C7.9518 30.0522 8.74648 29.4758 8.74648 27.394V18.9827H11.7629V27.4331C11.7629 31.2386 9.93848 32.5706 7.00042 32.5706C6.30647 32.5706 5.38869 32.453 4.79549 32.2516ZM35.1891 43.78H5.64052V35.1561H35.1891V43.78ZM36.9799 31.7367C36.0509 32.0557 34.2825 32.4922 32.514 32.4922C30.074 32.4922 28.3056 31.8766 27.08 30.6846C25.8488 29.5374 25.1717 27.7857 25.1941 25.827C25.2164 21.3835 28.4511 18.8428 32.833 18.8428C34.5623 18.8428 35.8886 19.1786 36.5434 19.4976L35.9054 21.9152C35.1723 21.5962 34.2601 21.3388 32.7882 21.3388C30.2699 21.3388 28.3672 22.7658 28.3672 25.6647C28.3672 28.4237 30.0908 30.0522 32.5756 30.0522C33.2695 30.0522 33.8236 29.9683 34.0642 29.8508V27.0526H31.9992V24.6909H36.9799V31.7367Z" fill="#D022ED"/>
</svg>
