<svg width="41" height="47" viewBox="0 0 41 47" fill="none" xmlns="http://www.w3.org/2000/svg">
<path d="M18.5231 21.165C17.9075 21.165 17.4934 21.2266 17.2751 21.2826V25.228C17.5326 25.2895 17.8516 25.3063 18.2881 25.3063C19.8942 25.3063 20.8848 24.4893 20.8848 23.1237C20.8904 21.8982 20.0341 21.165 18.5231 21.165Z" fill="#30A5E7"/>
<path d="M38.0765 16.7275H36.9797V11.439C36.9797 11.4054 36.9741 11.3718 36.9685 11.3383C36.9685 11.1256 36.9013 10.9241 36.7558 10.7562L27.9528 0.699662L27.9472 0.694066C27.8968 0.638103 27.8353 0.587736 27.7681 0.548561C27.7457 0.537369 27.729 0.526176 27.7122 0.514984C27.6562 0.481406 27.5946 0.45902 27.5331 0.442231C27.5163 0.436635 27.5051 0.431039 27.4827 0.425443C27.4155 0.408654 27.3484 0.397461 27.2756 0.397461H5.64027C4.65532 0.397461 3.84946 1.20333 3.84946 2.18828V16.7331H2.75257C1.3367 16.7331 0.195068 17.8804 0.195068 19.2906V32.5987C0.195068 34.0145 1.3423 35.1562 2.75257 35.1562H3.84946V44.267C3.84946 45.2575 4.65532 46.0578 5.64027 46.0578H35.1888C36.1794 46.0578 36.9797 45.2519 36.9797 44.267V35.1562H38.0765C39.4924 35.1562 40.634 34.0089 40.634 32.5987V19.285C40.634 17.8692 39.4868 16.7275 38.0765 16.7275ZM5.64027 2.18269H26.3802V11.3495C26.3802 11.8419 26.7832 12.2449 27.2756 12.2449H35.1832V16.7331H5.63469V2.18269H5.64027ZM23.8843 23.0458C23.8843 24.3553 23.4477 25.4634 22.6531 26.2189C21.6233 27.1926 20.0955 27.6291 18.3103 27.6291C17.913 27.6291 17.5548 27.6123 17.2806 27.5676V32.3468H14.2866V19.1619C15.2212 18.9996 16.5307 18.8821 18.3719 18.8821C20.2355 18.8821 21.5674 19.2403 22.4572 19.9566C23.3079 20.6281 23.8843 21.7362 23.8843 23.0458ZM4.79524 32.2517L5.13661 29.8117C5.55073 29.9516 6.08799 30.0523 6.6812 30.0523C7.95156 30.0523 8.74624 29.4759 8.74624 27.3941V18.9828H11.7627V27.4333C11.7627 31.2388 9.93824 32.5707 7.00017 32.5707C6.30623 32.5707 5.38845 32.4532 4.79524 32.2517ZM35.1888 43.7801H5.64027V35.1562H35.1888V43.7801ZM36.9797 31.7368C36.0507 32.0558 34.2822 32.4923 32.5138 32.4923C30.0738 32.4923 28.3054 31.8767 27.0798 30.6847C25.8486 29.5375 25.1714 27.7858 25.1938 25.8271C25.2162 21.3836 28.4509 18.8429 32.8328 18.8429C34.562 18.8429 35.8884 19.1787 36.5431 19.4977L35.9051 21.9153C35.172 21.5963 34.2598 21.3389 32.788 21.3389C30.2696 21.3389 28.3669 22.7659 28.3669 25.6648C28.3669 28.4238 30.0906 30.0523 32.5754 30.0523C33.2693 30.0523 33.8233 29.9684 34.064 29.8509V27.0527H31.9989V24.6911H36.9797V31.7368Z" fill="#30A5E7"/>
</svg>
