<svg width="21" height="21" viewBox="0 0 21 21" fill="none" xmlns="http://www.w3.org/2000/svg">
<path d="M0.0533733 6.17408C0.102579 5.05826 0.283052 4.29115 0.541584 3.62644C0.80829 2.92086 1.21861 2.28916 1.75618 1.76402C2.28142 1.23071 2.91741 0.816309 3.61495 0.553821C4.28363 0.295339 5.04689 0.114899 6.16291 0.0657021C7.28727 0.0123392 7.64422 0 10.4959 0C13.3476 0 13.7046 0.0123392 14.8247 0.0615356C15.9408 0.110732 16.708 0.291333 17.3727 0.549654C18.0786 0.816309 18.7104 1.22655 19.2356 1.76402C19.7691 2.28916 20.1834 2.92503 20.4461 3.62243C20.7046 4.29115 20.8851 5.0541 20.9343 6.16991C20.9877 7.29406 21 7.65093 21 10.5021C21 13.3532 20.9877 13.7101 20.9385 14.8301C20.8892 15.9459 20.7086 16.713 20.4501 17.3777C20.1834 18.0833 19.7691 18.715 19.2356 19.2401C18.7104 19.7735 18.0744 20.1879 17.3769 20.4503C16.708 20.7088 15.9449 20.8893 14.8288 20.9385C13.7087 20.9878 13.3516 21 10.4999 21C7.64822 21 7.29128 20.9878 6.17109 20.9385C5.05506 20.8893 4.2878 20.7088 3.62312 20.4503C2.21154 19.9047 1.09551 18.7889 0.549759 17.3777C0.291388 16.709 0.110752 15.9459 0.0615463 14.8301C0.0123405 13.7101 0 13.3532 0 10.5021C0 7.65093 0.00416756 7.29406 0.0533733 6.17408ZM1.94483 14.748C1.99003 15.7736 2.16233 16.3275 2.30594 16.6967C2.65888 17.6115 3.38511 18.3376 4.30014 18.6905C4.66943 18.8341 5.22736 19.0063 6.24914 19.0514C7.357 19.1007 7.68926 19.1129 10.4917 19.1129C13.2942 19.1129 13.6307 19.1007 14.7345 19.0514C15.7603 19.0063 16.3142 18.8341 16.6835 18.6905C17.1389 18.5222 17.5533 18.2556 17.8898 17.9069C18.2385 17.5663 18.5052 17.1561 18.6735 16.7008C18.8172 16.3316 18.9895 15.7736 19.0345 14.7522C19.0839 13.6446 19.096 13.3122 19.096 10.5103C19.096 7.7083 19.0839 7.37194 19.0345 6.26846C18.9895 5.24287 18.8172 4.68905 18.6735 4.31983C18.5052 3.86441 18.2385 3.45016 17.8856 3.11364C17.5452 2.76494 17.1349 2.49828 16.6793 2.33018C16.3101 2.1866 15.752 2.01433 14.7303 1.96914C13.6225 1.91994 13.2901 1.9076 10.4877 1.9076C7.68108 1.9076 7.34882 1.91994 6.24498 1.96914C5.21919 2.01433 4.66526 2.1866 4.29597 2.33018C3.84062 2.49828 3.42614 2.76494 3.08971 3.11364C2.74094 3.45417 2.47424 3.86441 2.30594 4.31983C2.16233 4.68905 1.99003 5.24687 1.94483 6.26846C1.89563 7.3761 1.88329 7.7083 1.88329 10.5103C1.88329 13.3122 1.89563 13.6404 1.94483 14.748Z" fill="white"/>
<path d="M10.4959 5.10745C13.4747 5.10745 15.8916 7.52369 15.8916 10.5021C15.8916 13.4805 13.4747 15.8967 10.4959 15.8967C7.51699 15.8967 5.10029 13.4805 5.10029 10.5021C5.10029 7.52369 7.51699 5.10745 10.4959 5.10745ZM10.4959 14.0014C12.4284 14.0014 13.996 12.4344 13.996 10.5021C13.996 8.56979 12.4284 7.00272 10.4959 7.00272C8.56329 7.00272 6.99592 8.56979 6.99592 10.5021C6.99592 12.4344 8.56329 14.0014 10.4959 14.0014Z" fill="white"/>
<path d="M3.62802 4.89416C3.62802 5.58965 4.19205 6.15356 4.88782 6.15356C5.58344 6.15356 6.14746 5.58965 6.14746 4.89416C6.14746 4.19852 5.58344 3.63477 4.88782 3.63477C4.19205 3.63477 3.62802 4.19852 3.62802 4.89416Z" fill="white"/>
</svg>
