<svg width="25" height="21" viewBox="0 0 25 21" fill="none" xmlns="http://www.w3.org/2000/svg">
<path d="M12.2541 11.7688C12.4121 11.8881 12.6275 11.8881 12.7849 11.7688L15.4892 9.13025L22.7904 2.01333L24.5219 0.324378C24.2798 0.114664 23.9734 0.000176208 23.6564 0.000176208H1.3429C1.01605 -0.00517366 0.698606 0.111454 0.450195 0.328658L9.50959 9.13025L12.2541 11.7688Z" fill="white"/>
<path d="M0.0043145 17.8045L8.55486 9.45017L0.0043145 1.15039C-0.00143817 1.22315 -0.00143817 1.29644 0.0043145 1.36974V17.8045Z" fill="white"/>
<path d="M13.3919 12.4632C13.1393 12.6719 12.824 12.7848 12.4992 12.7826C12.2722 12.7821 12.0489 12.7206 11.8523 12.6045C11.7848 12.5659 11.7205 12.5215 11.6604 12.4718L9.20137 10.0799L0.00390625 19.0505V19.6304C0.00390625 20.3869 0.603228 21 1.34271 21H23.8257C24.4982 20.9123 25.0003 20.3238 24.995 19.6304V19.0414L15.8195 10.0981L13.3919 12.4632Z" fill="white"/>
<path d="M24.9949 1.1413L16.4443 9.46354L24.9949 17.7815V1.36974C25.0012 1.29377 25.0012 1.21726 24.9949 1.1413Z" fill="white"/>
</svg>
