<svg width="21" height="21" viewBox="0 0 21 21" fill="none" xmlns="http://www.w3.org/2000/svg">
<path d="M11.3595 0V2.36554H16.9618L12.8033 6.52407C11.4685 5.53379 9.81582 4.9478 8.02614 4.9478C3.59342 4.9478 0 8.54118 0 12.9739C0 17.4066 3.59342 21 8.0261 21C12.4588 21 16.0522 17.4066 16.0522 12.9739C16.0522 11.1842 15.4662 9.53154 14.4759 8.19673L18.6345 4.03823V9.64052H21V0L11.3595 0ZM8.0261 18.3566C5.05329 18.3566 2.64333 15.9467 2.64333 12.9739C2.64333 10.001 5.05329 7.59109 8.0261 7.59109C10.9989 7.59109 13.4089 10.001 13.4089 12.9739C13.4089 15.9467 10.9989 18.3566 8.0261 18.3566Z" fill="#28B5E1"/>
</svg>
