<svg width="116" height="66" viewBox="0 0 116 66" fill="none" xmlns="http://www.w3.org/2000/svg">
<path d="M52.5815 30.7785H61.3088C61.716 30.7785 62.0465 30.448 62.0465 30.0407C62.0465 29.6335 61.716 29.303 61.3088 29.303H52.5815C52.1743 29.303 51.8438 29.6335 51.8438 30.0407C51.8438 30.449 52.1743 30.7785 52.5815 30.7785Z" fill="#B240E4"/>
<path d="M57.6828 34.4043L57.6828 25.6771C57.6828 25.2698 57.3523 24.9393 56.945 24.9393C56.5378 24.9393 56.2073 25.2698 56.2073 25.6771L56.2073 34.4043C56.2073 34.8116 56.5378 35.1421 56.945 35.1421C57.3533 35.1421 57.6828 34.8116 57.6828 34.4043Z" fill="#B240E4"/>
<path d="M31.7288 41.1562C32.678 41.1562 33.4492 40.384 33.4492 39.4357V19.2495C33.4492 18.3003 32.6771 17.5291 31.7288 17.5291H6.67334C5.72409 17.5291 4.95288 18.3012 4.95288 19.2495V39.4357C4.95288 40.384 5.72507 41.1562 6.67334 41.1562H31.7288ZM6.42841 19.2495C6.42841 19.1138 6.53858 19.0036 6.67433 19.0036H31.7298C31.8655 19.0036 31.9757 19.1138 31.9757 19.2495V39.4357C31.9757 39.5715 31.8655 39.6816 31.7298 39.6816H31.0107L21.8231 30.494C21.1522 29.8231 20.0603 29.8231 19.3894 30.494L17.5008 32.3827L14.9146 29.7966C14.9009 29.7828 14.8871 29.771 14.8733 29.7592L11.7246 26.6065C11.3999 26.2819 10.9671 26.1029 10.5077 26.1029C10.0484 26.1029 9.61653 26.2819 9.29093 26.6065L6.42939 29.468V19.2495H6.42841ZM6.42841 39.4357V31.5544L10.3336 27.6492C10.3966 27.5862 10.4694 27.5774 10.5077 27.5774C10.5461 27.5774 10.6189 27.5862 10.6819 27.6492L14.0697 31.04C14.0834 31.0537 14.0972 31.0655 14.112 31.0783L16.6322 33.5985C16.8643 33.8307 17.1732 33.9586 17.5008 33.9586C17.8293 33.9586 18.1382 33.8307 18.3703 33.5985L20.4331 31.5357C20.5285 31.4403 20.6849 31.4403 20.7804 31.5357L28.9253 39.6807H6.67531C6.53858 39.6816 6.42841 39.5705 6.42841 39.4357Z" fill="#B240E4"/>
<path d="M6.82666 43.585C6.25907 43.529 5.75346 43.9431 5.69641 44.5107C5.63935 45.0783 6.05447 45.5839 6.62206 45.6409C7.18964 45.698 7.69526 45.2829 7.75231 44.7153C7.80838 44.1477 7.39424 43.6411 6.82666 43.585Z" fill="#B240E4"/>
<path d="M10.4786 43.585C9.91101 43.529 9.4054 43.9431 9.34835 44.5107C9.29228 45.0783 9.70641 45.5839 10.274 45.6409C10.8416 45.698 11.3472 45.2829 11.4042 44.7153C11.4603 44.1477 11.0462 43.6421 10.4786 43.585Z" fill="#B240E4"/>
<path d="M14.1304 43.586C13.5628 43.5299 13.0572 43.9441 13.0001 44.5117C12.9431 45.0793 13.3582 45.5849 13.9258 45.6419C14.4934 45.699 14.999 45.2839 15.056 44.7163C15.1121 44.1477 14.698 43.6421 14.1304 43.586Z" fill="#B240E4"/>
<path d="M18.8427 15.1467H22.0378C22.445 15.1467 22.7755 14.8162 22.7755 14.4089C22.7755 14.0017 22.445 13.6711 22.0378 13.6711H18.8427C18.4355 13.6711 18.105 14.0017 18.105 14.4089C18.105 14.8171 18.4355 15.1467 18.8427 15.1467Z" fill="#B240E4"/>
<path d="M6.33005 15.1467H15.0573C15.4645 15.1467 15.7951 14.8162 15.7951 14.4089C15.7951 14.0017 15.4645 13.6711 15.0573 13.6711H6.33005C5.9228 13.6711 5.59229 14.0017 5.59229 14.4089C5.59229 14.8171 5.9228 15.1467 6.33005 15.1467Z" fill="#B240E4"/>
<path d="M25.4469 27.8727C26.887 27.8727 28.0586 26.7011 28.0586 25.261C28.0586 23.8209 26.887 22.6493 25.4469 22.6493C24.0068 22.6493 22.8352 23.8209 22.8352 25.261C22.8352 26.7011 24.0068 27.8727 25.4469 27.8727ZM25.4469 24.1238C26.0735 24.1238 26.584 24.6334 26.584 25.261C26.584 25.8876 26.0745 26.3981 25.4469 26.3981C24.8193 26.3981 24.3097 25.8886 24.3097 25.261C24.3097 24.6334 24.8203 24.1238 25.4469 24.1238Z" fill="#B240E4"/>
<path d="M31.6265 54.1251L31.6275 54.1261C31.898 54.3562 32.2039 54.6179 32.5217 54.8953C32.6063 54.9691 32.7135 55.0094 32.8256 55.0094C32.9377 55.0094 33.046 54.9691 33.1296 54.8953C33.4483 54.6169 33.7552 54.3553 34.0257 54.1241C34.8185 53.4483 35.5022 52.866 35.9783 52.2905C36.5105 51.6482 36.7584 51.0393 36.7584 50.3743C36.7584 49.728 36.5371 49.1319 36.1347 48.6951C35.7275 48.2535 35.1687 48.0105 34.5608 48.0105C34.1064 48.0105 33.6912 48.1541 33.3243 48.4374C33.1394 48.58 32.9722 48.7551 32.8246 48.9588C32.6771 48.7551 32.5098 48.58 32.3249 48.4374C31.959 48.1541 31.5429 48.0105 31.0884 48.0105C30.4805 48.0105 29.9218 48.2535 29.5145 48.6951C29.1122 49.1319 28.8909 49.728 28.8909 50.3743C28.8909 51.0393 29.1388 51.6491 29.6709 52.2915C30.149 52.866 30.8336 53.4493 31.6265 54.1251Z" fill="#B240E4"/>
<path d="M40.1265 54.7971C40.1599 54.7302 40.1934 54.6623 40.2248 54.5944C40.2367 54.5688 40.2485 54.5433 40.2593 54.5177C40.3114 54.4026 40.3616 54.2855 40.4088 54.1675C40.4265 54.1242 40.4432 54.0819 40.4599 54.0386C40.4826 53.9786 40.5052 53.9186 40.5268 53.8576C40.5485 53.7957 40.5691 53.7337 40.5898 53.6717C40.6154 53.595 40.64 53.5173 40.6626 53.4386C40.6823 53.3727 40.701 53.3058 40.7196 53.2399C40.7334 53.1907 40.7462 53.1415 40.758 53.0913C40.7816 52.9959 40.8042 52.8995 40.8249 52.8031C40.8328 52.7648 40.8406 52.7264 40.8475 52.688C40.8652 52.5965 40.8819 52.5041 40.8967 52.4116C40.9026 52.3723 40.9095 52.3339 40.9144 52.2946C40.9321 52.1775 40.9469 52.0595 40.9597 51.9414C40.9606 51.9306 40.9616 51.9188 40.9626 51.907C40.9734 51.7939 40.9823 51.6798 40.9892 51.5647C40.9911 51.5312 40.9931 51.4988 40.9941 51.4653C41 51.3404 41.0039 51.2145 41.0039 51.0876C41.0039 50.9666 41.001 50.8456 40.9951 50.7256C40.9941 50.7098 40.9941 50.6931 40.9931 50.6774C40.9872 50.5643 40.9793 50.4511 40.9695 50.339C40.9675 50.3174 40.9656 50.2957 40.9636 50.2741C40.9528 50.1649 40.94 50.0557 40.9252 49.9475C40.9223 49.9258 40.9193 49.9042 40.9154 49.8816C40.8997 49.7724 40.8819 49.6642 40.8613 49.556C40.8583 49.5393 40.8544 49.5235 40.8515 49.5068C40.8318 49.4074 40.8111 49.3081 40.7875 49.2097C40.7836 49.191 40.7796 49.1733 40.7747 49.1546C40.7501 49.0533 40.7236 48.954 40.696 48.8546C40.6882 48.8261 40.6803 48.7985 40.6724 48.77C40.6449 48.6756 40.6154 48.5831 40.5849 48.4907C40.5741 48.4582 40.5632 48.4267 40.5524 48.3942C40.5219 48.3047 40.4895 48.2152 40.455 48.1267C40.4422 48.0942 40.4295 48.0618 40.4157 48.0283C40.3862 47.9555 40.3567 47.8827 40.3252 47.8109C40.3065 47.7667 40.2868 47.7234 40.2672 47.6791C40.2376 47.6132 40.2071 47.5483 40.1757 47.4843C40.158 47.447 40.1402 47.4106 40.1216 47.3732C40.0832 47.2974 40.0438 47.2227 40.0035 47.1479C39.9809 47.1066 39.9592 47.0663 39.9366 47.0259C39.8963 46.9551 39.855 46.8843 39.8137 46.8144C39.7881 46.7731 39.7625 46.7308 39.7369 46.6895C39.7045 46.6384 39.672 46.5872 39.6386 46.537C39.6012 46.48 39.5628 46.4239 39.5235 46.3679C39.494 46.3246 39.4635 46.2823 39.432 46.24C39.3897 46.181 39.3464 46.1229 39.3022 46.0659C39.2687 46.0226 39.2353 45.9793 39.2008 45.936C39.1693 45.8957 39.1369 45.8554 39.1044 45.816C39.0543 45.756 39.0041 45.697 38.9529 45.638C38.9195 45.5996 38.8861 45.5622 38.8526 45.5248C38.8005 45.4668 38.7474 45.4097 38.6933 45.3527C38.6598 45.3183 38.6264 45.2838 38.5919 45.2504C38.5477 45.2051 38.5024 45.1609 38.4572 45.1176C38.4365 45.0979 38.4168 45.0773 38.3962 45.0576V35.6142C38.3962 35.5788 38.3932 35.5444 38.3883 35.5109L38.3962 11.2287C38.3962 10.0089 37.4036 9.01636 36.1839 9.01636H2.21231C0.992537 9.01636 0 10.0089 0 11.2287V49.313C0 50.5328 0.992537 51.5253 2.21231 51.5253H24.4269C24.4288 51.5706 24.4338 51.6148 24.4367 51.6601C24.4406 51.724 24.4456 51.787 24.4515 51.8499C24.4574 51.9099 24.4633 51.969 24.4701 52.028C24.478 52.0998 24.4879 52.1706 24.4977 52.2424C24.5046 52.2916 24.5105 52.3408 24.5183 52.389C24.5351 52.4962 24.5548 52.6025 24.5754 52.7087C24.5823 52.7451 24.5902 52.7805 24.598 52.8159C24.6207 52.9221 24.6443 53.0274 24.6708 53.1317C24.6738 53.1425 24.6757 53.1543 24.6787 53.1651C24.7121 53.294 24.7485 53.4219 24.7879 53.5488C24.7879 53.5497 24.7889 53.5507 24.7889 53.5527C25.0308 54.3337 25.3889 55.0774 25.8572 55.763C25.8749 55.7886 25.8935 55.8122 25.9132 55.8348C26.6461 56.8795 27.6111 57.7501 28.7364 58.3659C28.7561 58.3796 28.7777 58.3924 28.7993 58.4032C29.1377 58.5842 29.4889 58.7406 29.8489 58.8725C29.8558 58.8754 29.8627 58.8774 29.8706 58.8803C29.9886 58.9236 30.1086 58.9639 30.2286 59.0013C30.2493 59.0082 30.27 59.0141 30.2916 59.02C30.3831 59.0476 30.4755 59.0741 30.569 59.0987C30.6044 59.1085 30.6408 59.1184 30.6762 59.1272C30.7766 59.1528 30.8779 59.1754 30.9782 59.1971C31.0244 59.2069 31.0717 59.2168 31.1189 59.2256C31.2025 59.2423 31.2871 59.2571 31.3717 59.2709C31.4238 59.2797 31.475 59.2876 31.5271 59.2945C31.6146 59.3072 31.7022 59.3181 31.7907 59.3279C31.8291 59.3318 31.8675 59.3368 31.9058 59.3407C32.0199 59.3515 32.134 59.3604 32.2481 59.3673C32.2767 59.3692 32.3052 59.3702 32.3327 59.3712C32.4577 59.3771 32.5836 59.381 32.7085 59.381C32.8462 59.381 32.9839 59.3771 33.1197 59.3702C33.1266 59.3702 33.1335 59.3702 33.1403 59.3692C33.2712 59.3623 33.401 59.3525 33.5299 59.3397C33.5427 59.3387 33.5555 59.3377 33.5682 59.3358C33.6922 59.323 33.8142 59.3072 33.9361 59.2886C33.9538 59.2856 33.9716 59.2836 33.9893 59.2807C34.1063 59.262 34.2224 59.2413 34.3375 59.2187C34.3601 59.2138 34.3827 59.2099 34.4054 59.2049C34.5155 59.1823 34.6247 59.1567 34.7329 59.1292C34.7605 59.1223 34.788 59.1154 34.8146 59.1085C34.9179 59.081 35.0202 59.0525 35.1225 59.021C35.1539 59.0112 35.1864 59.0013 35.2179 58.9915C35.3143 58.961 35.4097 58.9285 35.5051 58.8941C35.5415 58.8813 35.5769 58.8675 35.6133 58.8548C35.7028 58.8213 35.7924 58.7859 35.8799 58.7495C35.9202 58.7328 35.9606 58.7151 36.0009 58.6983C36.0835 58.6629 36.1652 58.6256 36.2468 58.5872C36.2911 58.5655 36.3363 58.5439 36.3806 58.5223C36.4495 58.4878 36.5183 58.4534 36.5862 58.417C36.6413 58.3875 36.6964 58.358 36.7505 58.3265C36.7987 58.3 36.8469 58.2714 36.8941 58.2439C36.9669 58.2016 37.0387 58.1573 37.1105 58.1121C37.1449 58.0904 37.1803 58.0678 37.2148 58.0452C37.2974 57.9911 37.379 57.936 37.4597 57.8799C37.4843 57.8622 37.5099 57.8445 37.5345 57.8268C37.623 57.7629 37.7115 57.697 37.7971 57.6301C37.8148 57.6163 37.8325 57.6025 37.8492 57.5888C37.9417 57.516 38.0322 57.4402 38.1217 57.3635C38.1335 57.3537 38.1453 57.3428 38.1571 57.333C38.2506 57.2513 38.3431 57.1667 38.4336 57.0812C38.4404 57.0743 38.4483 57.0674 38.4552 57.0605C38.5486 56.97 38.6401 56.8785 38.7296 56.7841C38.7326 56.7811 38.7355 56.7782 38.7385 56.7752V56.7743C39.1605 56.3267 39.5343 55.8329 39.8501 55.2997C39.8511 55.2977 39.853 55.2948 39.854 55.2918C39.9347 55.1561 40.0104 55.0174 40.0832 54.8767C40.0999 54.8512 40.1137 54.8246 40.1265 54.7971ZM1.4775 49.313V11.2296C1.4775 10.8234 1.80801 10.4919 2.21526 10.4919H36.1868C36.5931 10.4919 36.9246 10.8224 36.9246 11.2296L36.9157 36.5881C36.9157 36.6245 36.9187 36.6589 36.9246 36.6933V43.947C36.8262 43.889 36.7269 43.8339 36.6265 43.7798C36.6098 43.7709 36.5941 43.7621 36.5773 43.7542C36.4829 43.704 36.3885 43.6558 36.2921 43.6096C36.2842 43.6057 36.2763 43.6017 36.2685 43.5978C35.1903 43.0833 33.9853 42.7941 32.7134 42.7941C32.4813 42.7941 32.2521 42.805 32.0248 42.8246C32.013 42.8256 32.0022 42.8256 31.9904 42.8266C31.9255 42.8325 31.8616 42.8394 31.7966 42.8463C31.7465 42.8522 31.6963 42.8571 31.6461 42.864C31.5891 42.8718 31.531 42.8787 31.474 42.8876C31.4022 42.8984 31.3304 42.9102 31.2586 42.923C31.2231 42.9289 31.1868 42.9348 31.1513 42.9417C31.0412 42.9623 30.931 42.9869 30.8218 43.0115C30.7982 43.0174 30.7746 43.0233 30.751 43.0292C30.6497 43.0538 30.5493 43.0804 30.45 43.1079C30.4391 43.1109 30.4283 43.1138 30.4175 43.1168C29.5745 43.3588 28.7718 43.7336 28.037 44.2362C28.0104 44.2539 27.9858 44.2746 27.9622 44.2952C26.9254 45.0232 26.0627 45.9813 25.4489 47.0958C25.4302 47.1223 25.4125 47.1489 25.3968 47.1784C24.9207 48.0686 24.6118 49.0464 24.4849 50.0508H2.21624C1.809 50.0508 1.4775 49.7203 1.4775 49.313ZM26.0362 52.4795C26.0342 52.4677 26.0313 52.4569 26.0293 52.4451C25.987 52.2365 25.9545 52.024 25.9319 51.8096C25.9289 51.784 25.927 51.7584 25.925 51.7339C25.9172 51.6542 25.9113 51.5745 25.9063 51.4948C25.9044 51.4643 25.9024 51.4328 25.9014 51.4024C25.8965 51.303 25.8935 51.2027 25.8935 51.1023C25.8935 51.0984 25.8935 51.0935 25.8935 51.0895C25.8935 50.9843 25.8965 50.88 25.9014 50.7757C25.9024 50.7551 25.9034 50.7344 25.9044 50.7138C25.9093 50.6174 25.9172 50.521 25.926 50.4246C25.929 50.397 25.9319 50.3695 25.9349 50.3419C25.9437 50.2623 25.9536 50.1826 25.9654 50.1039C25.9703 50.0734 25.9742 50.0429 25.9791 50.0114C25.9919 49.9317 26.0067 49.8521 26.0224 49.7724C26.0293 49.7399 26.0352 49.7075 26.0421 49.674C26.0608 49.5855 26.0814 49.497 26.1031 49.4094C26.109 49.3878 26.1149 49.3661 26.1198 49.3455C26.1434 49.256 26.168 49.1664 26.1955 49.0789C26.1975 49.072 26.1995 49.0651 26.2014 49.0592C26.9333 46.719 28.8948 44.9169 31.3264 44.4133C31.3343 44.4113 31.3412 44.4103 31.3491 44.4084C31.5615 44.3651 31.777 44.3316 31.9953 44.309C32.015 44.307 32.0357 44.3051 32.0563 44.3031C32.1419 44.2952 32.2285 44.2883 32.315 44.2834C32.3406 44.2815 32.3672 44.2805 32.3927 44.2795C32.499 44.2746 32.6052 44.2716 32.7115 44.2716C36.4711 44.2716 39.5304 47.3309 39.5304 51.0905C39.5304 51.2076 39.5274 51.3246 39.5215 51.4407C39.3385 55.0381 36.354 57.9094 32.7115 57.9094C32.6042 57.9094 32.498 57.9065 32.3927 57.9016C32.375 57.9006 32.3563 57.8996 32.3386 57.8986C32.2393 57.8937 32.1409 57.8858 32.0435 57.876C32.018 57.873 31.9934 57.8711 31.9688 57.8681C31.8842 57.8593 31.8006 57.8484 31.7179 57.8357C31.6933 57.8317 31.6688 57.8288 31.6442 57.8248C31.5596 57.8111 31.475 57.7963 31.3914 57.7796C31.3609 57.7737 31.3304 57.7678 31.2999 57.7609C31.2094 57.7422 31.1189 57.7215 31.0294 57.6979C31.0107 57.693 30.991 57.6881 30.9723 57.6832C30.8789 57.6586 30.7864 57.633 30.6949 57.6045C30.691 57.6035 30.687 57.6025 30.6821 57.6006C28.3439 56.8677 26.5418 54.9092 26.0362 52.4795Z" fill="#B240E4"/>
<path d="M81.0542 47.6761H106.11C107.059 47.6761 107.83 46.904 107.83 45.9557V7.09717C107.83 6.14792 107.058 5.37671 106.11 5.37671H81.0542C80.1059 5.37671 79.3337 6.1489 79.3337 7.09717V45.9557C79.3337 46.904 80.1059 47.6761 81.0542 47.6761ZM89.8828 37.6435C90.4848 37.2993 91.2324 37.2993 91.8344 37.6435C92.9125 38.2593 94.2523 38.2593 95.3294 37.6435C95.9315 37.2993 96.6791 37.2993 97.2811 37.6435C97.8201 37.9514 98.4241 38.1059 99.0291 38.1059C99.6331 38.1059 100.238 37.9514 100.777 37.6435C101.379 37.2993 102.127 37.2993 102.729 37.6435C103.806 38.2593 105.199 38.2593 106.276 37.6435C106.302 37.6288 106.329 37.616 106.357 37.6022V39.2509C106.168 39.1801 105.951 39.183 105.754 39.2755C105.669 39.3148 105.585 39.3591 105.504 39.4053C104.895 39.7526 104.109 39.7526 103.501 39.4053C102.423 38.7895 101.083 38.7895 100.006 39.4053C99.4039 39.7496 98.6563 39.7496 98.0542 39.4053C96.9761 38.7895 95.6364 38.7895 94.5592 39.4053C93.9572 39.7496 93.2096 39.7496 92.6076 39.4053C91.5295 38.7895 90.1897 38.7895 89.1126 39.4053C88.5105 39.7496 87.7629 39.7496 87.1609 39.4053C86.0838 38.7895 84.6909 38.7895 83.6138 39.4053C83.0117 39.7496 82.2641 39.7496 81.6621 39.4053C81.5805 39.3591 81.4969 39.3148 81.4123 39.2755C81.2145 39.183 80.9991 39.1801 80.8093 39.2509V38.0744V37.6022C80.8358 37.616 80.8634 37.6288 80.8899 37.6435C81.968 38.2593 83.3078 38.2593 84.385 37.6435C84.9939 37.2963 85.7798 37.2963 86.3877 37.6435C87.4659 38.2593 88.8047 38.2593 89.8828 37.6435ZM87.7983 36.5212C89.0948 34.6187 91.2403 33.4668 93.5824 33.4668C95.9246 33.4668 98.07 34.6187 99.3665 36.5212C98.9219 36.5979 98.4546 36.5221 98.0533 36.2929C96.9751 35.6772 95.6354 35.6772 94.5582 36.2929C93.9562 36.6372 93.2086 36.6372 92.6066 36.2929C91.5285 35.6772 90.1887 35.6772 89.1116 36.2929C88.7092 36.5221 88.243 36.5979 87.7983 36.5212ZM80.8083 40.7146C80.8348 40.7284 80.8624 40.7412 80.8889 40.7569C81.9671 41.3727 83.3068 41.3727 84.384 40.7569C84.9929 40.4097 85.7788 40.4097 86.3868 40.7569C87.4649 41.3727 88.8047 41.3727 89.8818 40.7569C90.4838 40.4126 91.2314 40.4126 91.8334 40.7569C92.9115 41.3727 94.2513 41.3727 95.3285 40.7569C95.9305 40.4126 96.6781 40.4126 97.2801 40.7569C97.8191 41.0648 98.4231 41.2192 99.0281 41.2192C99.6321 41.2192 100.237 41.0648 100.776 40.7569C101.378 40.4126 102.126 40.4126 102.728 40.7569C103.805 41.3727 105.198 41.3727 106.275 40.7569C106.301 40.7421 106.328 40.7294 106.356 40.7156V42.4331C106.167 42.3623 105.95 42.3652 105.753 42.4577C105.668 42.497 105.584 42.5413 105.503 42.5875C104.894 42.9348 104.108 42.9348 103.5 42.5875C102.422 41.9718 101.082 41.9718 100.005 42.5875C99.4029 42.9318 98.6553 42.9318 98.0533 42.5875C96.9751 41.9718 95.6354 41.9718 94.5582 42.5875C93.9562 42.9318 93.2086 42.9318 92.6066 42.5875C91.5285 41.9718 90.1887 41.9718 89.1116 42.5875C88.5096 42.9318 87.762 42.9318 87.1599 42.5875C86.0828 41.9718 84.6899 41.9718 83.6128 42.5875C83.0108 42.9318 82.2632 42.9318 81.6611 42.5875C81.5795 42.5413 81.4959 42.497 81.4113 42.4577C81.2145 42.3652 80.9981 42.3623 80.8083 42.4331V40.7146ZM106.11 46.2006H105.391H103.304H81.0542C80.9185 46.2006 80.8083 46.0904 80.8083 45.9547V43.8949C80.8348 43.9086 80.8624 43.9214 80.8889 43.9362C81.9671 44.552 83.3068 44.552 84.384 43.9362C84.9929 43.5889 85.7788 43.5889 86.3868 43.9362C87.4649 44.552 88.8047 44.552 89.8818 43.9362C90.4838 43.5919 91.2314 43.5919 91.8334 43.9362C92.9115 44.552 94.2513 44.552 95.3285 43.9362C95.9305 43.5919 96.6781 43.5919 97.2801 43.9362C97.8191 44.2441 98.4231 44.3985 99.0281 44.3985C99.6321 44.3985 100.237 44.2441 100.776 43.9362C101.378 43.5919 102.126 43.5919 102.728 43.9362C103.805 44.552 105.198 44.552 106.275 43.9362C106.301 43.9214 106.328 43.9076 106.356 43.8939V45.9547C106.356 46.0904 106.245 46.2006 106.11 46.2006ZM81.0542 6.85125H106.11C106.245 6.85125 106.356 6.96143 106.356 7.09717V36.1385C106.167 36.0677 105.95 36.0706 105.753 36.1631C105.668 36.2024 105.584 36.2467 105.503 36.2929C104.894 36.6402 104.108 36.6402 103.5 36.2929C102.69 35.8306 101.733 35.7155 100.85 35.9477C99.756 34.1879 98.0867 32.9091 96.1557 32.3041C96.5797 30.2757 97.5614 28.3743 98.972 26.8555L99.4786 26.9568C100.111 27.0837 100.601 27.5273 100.788 28.1451C100.975 28.7628 100.814 29.4042 100.358 29.8606C100.054 30.1646 100.054 30.6574 100.358 30.9614C100.662 31.2653 101.155 31.2653 101.459 30.9614C102.327 30.0928 102.634 28.871 102.278 27.6946C102.085 27.0591 101.725 26.52 101.244 26.1207C102.479 26.1452 103.44 27.1761 103.44 28.3585V29.3107C103.44 29.7406 103.788 30.0888 104.218 30.0888C104.648 30.0888 104.996 29.7406 104.996 29.3107V28.3585C104.996 26.338 103.356 24.591 101.255 24.5635L102.56 23.2581C102.863 22.9542 102.863 22.4613 102.56 22.1574C102.256 21.8534 101.763 21.8534 101.459 22.1574L100.153 23.4627C100.125 21.3518 98.37 19.7208 96.3584 19.7208H95.4062C94.9763 19.7208 94.6281 20.069 94.6281 20.4989C94.6281 20.9288 94.9763 21.277 95.4062 21.277H96.3584C97.5398 21.277 98.5717 22.2371 98.5963 23.4726C98.1969 22.9916 97.6578 22.6305 97.0224 22.4387C95.8459 22.0826 94.6251 22.3886 93.7555 23.2581C93.4516 23.5621 93.4516 24.0549 93.7555 24.3589C94.0595 24.6628 94.5523 24.6628 94.8563 24.3589C95.3127 23.9024 95.9541 23.7421 96.5718 23.929C97.1896 24.1159 97.6342 24.6058 97.7601 25.2383L97.8654 25.7626C96.2482 27.4909 95.1219 29.6619 94.6359 31.9775C94.2897 31.9352 93.9385 31.9126 93.5844 31.9126C93.3227 31.9126 93.063 31.9254 92.8063 31.949V31.5122C92.8063 28.2592 91.5816 25.0799 89.3034 22.6512L89.4086 22.1269C89.6782 20.7773 91.3396 20.2756 92.3125 21.2475C92.6164 21.5514 93.1093 21.5514 93.4132 21.2475C93.7172 20.9435 93.7172 20.4507 93.4132 20.1467C91.9534 18.6869 89.7136 18.988 88.5725 20.3622C88.5981 19.0539 89.7726 18.1144 90.8104 18.1144H91.7626C92.1925 18.1144 92.5407 17.7662 92.5407 17.3364C92.5407 16.9065 92.1925 16.5583 91.7626 16.5583H90.8104C88.9443 16.5583 87.0448 18.1636 87.0153 20.3513L85.71 19.046C85.406 18.742 84.9132 18.742 84.6092 19.046C84.3053 19.35 84.3053 19.8428 84.6092 20.1467L85.9136 21.4521C83.8115 21.4806 82.1727 23.2276 82.1727 25.2471V26.1994C82.1727 26.6292 82.5209 26.9774 82.9507 26.9774C83.3806 26.9774 83.7288 26.6292 83.7288 26.1994V25.2471C83.7288 24.0657 84.6889 23.0339 85.9244 23.0093C85.4434 23.4086 85.0824 23.9477 84.8906 24.5832C84.5345 25.7596 84.8404 26.9804 85.71 27.85C86.0139 28.1539 86.5068 28.1539 86.8107 27.85C87.1147 27.546 87.1147 27.0532 86.8107 26.7492C86.3543 26.2928 86.194 25.6514 86.3809 25.0337C86.5678 24.4159 87.0576 23.9713 87.6901 23.8454L88.1967 23.7441C90.17 25.861 91.2521 28.6035 91.2521 31.5122V32.2343C89.2188 32.8068 87.456 34.119 86.3179 35.9516C85.4178 35.7165 84.4282 35.8316 83.6167 36.2949C83.0147 36.6392 82.2671 36.6392 81.6651 36.2949C81.5834 36.2487 81.4998 36.2044 81.4152 36.1651C81.2185 36.0726 81.0021 36.0696 80.8122 36.1405V35.99V7.09816C80.8083 6.96143 80.9194 6.85125 81.0542 6.85125Z" fill="#B240E4"/>
<path d="M107.545 65.8892C107.655 65.8833 107.764 65.8744 107.873 65.8646C107.913 65.8607 107.953 65.8567 107.994 65.8528C108.084 65.8429 108.174 65.8311 108.262 65.8184C108.327 65.8095 108.391 65.7997 108.455 65.7888C108.521 65.778 108.586 65.7662 108.651 65.7534C108.753 65.7338 108.854 65.7121 108.955 65.6885C108.982 65.6826 109.009 65.6757 109.036 65.6698C112.674 64.7924 115.386 61.5118 115.386 57.6085C115.386 55.2349 114.383 53.0934 112.779 51.5805V42.1361C112.779 42.1007 112.776 42.0663 112.771 42.0329L112.779 2.21231C112.779 0.992539 111.787 7.30552e-07 110.567 7.30552e-07H76.5963C75.3766 -0.000982954 74.384 0.991555 74.384 2.21132V55.833C74.384 57.0527 75.3766 58.0453 76.5963 58.0453H98.804C98.9594 61.0219 100.692 63.5864 103.178 64.9202C103.18 64.9212 103.182 64.9222 103.184 64.9232C103.268 64.9685 103.354 65.0117 103.439 65.053C103.485 65.0757 103.532 65.0973 103.578 65.119C103.633 65.1445 103.689 65.1701 103.744 65.1947C103.836 65.235 103.928 65.2734 104.021 65.3108C104.058 65.3255 104.094 65.3403 104.131 65.3541C104.201 65.3806 104.271 65.4072 104.342 65.4318C104.348 65.4337 104.354 65.4357 104.36 65.4377C104.51 65.4898 104.663 65.538 104.817 65.5823C104.825 65.5842 104.833 65.5872 104.841 65.5892C105.077 65.6561 105.316 65.7121 105.56 65.7574C105.576 65.7603 105.59 65.7633 105.606 65.7652C105.733 65.7879 105.862 65.8085 105.991 65.8252C106.036 65.8311 106.081 65.837 106.127 65.8429C106.187 65.8498 106.247 65.8567 106.308 65.8626C106.41 65.8725 106.511 65.8803 106.613 65.8862C106.651 65.8882 106.688 65.8902 106.726 65.8911C106.842 65.8961 106.958 65.9 107.075 65.9C107.079 65.9 107.083 65.9 107.086 65.9C107.087 65.9 107.089 65.9 107.09 65.9C107.091 65.9 107.092 65.9 107.093 65.9C107.095 65.9 107.097 65.9 107.1 65.9C107.229 65.9 107.357 65.8961 107.484 65.8902C107.505 65.8912 107.524 65.8902 107.545 65.8892ZM75.8586 55.833V2.21132C75.8586 1.80506 76.1891 1.47356 76.5963 1.47356H110.568C110.974 1.47356 111.306 1.80408 111.306 2.21132L111.297 43.108C111.297 43.1444 111.3 43.1788 111.306 43.2133V50.467C110.07 49.7351 108.63 49.3131 107.094 49.3131C106.945 49.3131 106.797 49.318 106.65 49.3259H106.648C106.548 49.3308 106.446 49.3387 106.346 49.3475C106.307 49.3515 106.267 49.3554 106.228 49.3593C106.143 49.3682 106.06 49.378 105.975 49.3889C105.947 49.3928 105.918 49.3967 105.889 49.4007C104.644 49.5797 103.458 50.0381 102.409 50.7552C102.374 50.7798 102.341 50.8063 102.312 50.8358C101.301 51.552 100.458 52.4884 99.8507 53.5754C99.8202 53.6128 99.7926 53.6531 99.769 53.6974C99.2929 54.5876 98.984 55.5654 98.8571 56.5698H76.5963C76.1901 56.5707 75.8586 56.2402 75.8586 55.833ZM101.476 61.4774C101.47 61.4685 101.466 61.4596 101.46 61.4508C100.685 60.3166 100.275 58.9876 100.275 57.6075C100.275 54.083 102.963 51.1742 106.397 50.824C106.502 50.8132 106.61 50.8054 106.716 50.7995C106.731 50.7985 106.745 50.7975 106.76 50.7965C106.869 50.7916 106.98 50.7877 107.091 50.7877C110.848 50.7906 113.904 53.8479 113.904 57.6066C113.904 61.3662 110.844 64.4255 107.085 64.4255C106.983 64.4255 106.882 64.4225 106.782 64.4176C106.755 64.4166 106.728 64.4156 106.701 64.4137C106.614 64.4087 106.528 64.4018 106.441 64.394C106.395 64.3891 106.348 64.3841 106.302 64.3792C106.26 64.3743 106.218 64.3684 106.177 64.3635C106.076 64.3497 105.976 64.334 105.877 64.3163C105.86 64.3133 105.844 64.3104 105.828 64.3074C105.63 64.27 105.434 64.2248 105.241 64.1707C105.233 64.1687 105.226 64.1667 105.218 64.1638C105.093 64.1284 104.969 64.089 104.846 64.0458C104.841 64.0438 104.835 64.0418 104.83 64.0408C104.771 64.0202 104.713 63.9985 104.654 63.9759C104.626 63.9651 104.6 63.9543 104.573 63.9435C104.492 63.911 104.411 63.8766 104.33 63.8411C104.289 63.8225 104.248 63.8048 104.207 63.7851C104.166 63.7654 104.124 63.7457 104.082 63.7261C103.034 63.2116 102.137 62.4325 101.476 61.4774Z" fill="#B240E4"/>
<path d="M96.6682 50.5554H88.7978H87.941H80.0715C79.6643 50.5554 79.3337 50.8859 79.3337 51.2932C79.3337 51.7004 79.6643 52.0309 80.0715 52.0309H87.942H88.7988H96.6692C97.0765 52.0309 97.407 51.7004 97.407 51.2932C97.407 50.8859 97.0755 50.5554 96.6682 50.5554Z" fill="#B240E4"/>
<path d="M107.086 62.3656C109.649 62.3656 111.731 60.2831 111.731 57.7206C111.731 55.1581 109.649 53.0757 107.086 53.0757C104.524 53.0757 102.441 55.1581 102.441 57.7206C102.441 60.2831 104.524 62.3656 107.086 62.3656ZM109.021 55.7847C109.447 55.7847 109.795 56.133 109.795 56.5589C109.795 56.9848 109.447 57.3331 109.021 57.3331C108.595 57.3331 108.247 56.9848 108.247 56.5589C108.247 56.133 108.596 55.7847 109.021 55.7847ZM108.748 59.4647C108.899 59.3132 109.144 59.3132 109.295 59.4647C109.446 59.6152 109.446 59.8611 109.295 60.0116C108.705 60.6019 107.921 60.9265 107.085 60.9265C106.25 60.9265 105.466 60.6009 104.876 60.0116C104.725 59.8602 104.725 59.6152 104.876 59.4647C105.028 59.3132 105.272 59.3132 105.423 59.4647C105.867 59.9084 106.457 60.1533 107.084 60.1533C107.714 60.1533 108.304 59.9093 108.748 59.4647ZM105.151 55.7847C105.577 55.7847 105.926 56.133 105.926 56.5589C105.926 56.9848 105.577 57.3331 105.151 57.3331C104.726 57.3331 104.377 56.9848 104.377 56.5589C104.377 56.133 104.726 55.7847 105.151 55.7847Z" fill="#B240E4"/>
</svg>
