<svg width="41" height="66" viewBox="0 0 41 66" fill="none" xmlns="http://www.w3.org/2000/svg">
<path d="M6.66985 47.6739H31.7241C32.6733 47.6739 33.4445 46.9017 33.4445 45.9535V7.09685C33.4445 6.14764 32.6723 5.37646 31.7241 5.37646H6.66985C5.72162 5.37646 4.94946 6.14862 4.94946 7.09685V45.9535C4.94946 46.9017 5.72162 47.6739 6.66985 47.6739ZM15.498 37.6418C16.1 37.2975 16.8475 37.2975 17.4495 37.6418C18.5276 38.2575 19.8673 38.2575 20.9444 37.6418C21.5464 37.2975 22.294 37.2975 22.8959 37.6418C23.435 37.9496 24.0389 38.1041 24.6439 38.1041C25.2478 38.1041 25.8528 37.9496 26.3918 37.6418C26.9938 37.2975 27.7413 37.2975 28.3433 37.6418C29.4204 38.2575 30.8132 38.2575 31.8903 37.6418C31.9169 37.627 31.9434 37.6142 31.971 37.6004V39.249C31.7821 39.1782 31.5657 39.1811 31.368 39.2736C31.2834 39.313 31.1998 39.3572 31.1182 39.4035C30.5093 39.7507 29.7234 39.7507 29.1155 39.4035C28.0374 38.7877 26.6977 38.7877 25.6206 39.4035C25.0186 39.7477 24.2711 39.7477 23.6691 39.4035C22.591 38.7877 21.2513 38.7877 20.1742 39.4035C19.5722 39.7477 18.8247 39.7477 18.2227 39.4035C17.1446 38.7877 15.8049 38.7877 14.7278 39.4035C14.1258 39.7477 13.3783 39.7477 12.7763 39.4035C11.6992 38.7877 10.3064 38.7877 9.22927 39.4035C8.62729 39.7477 7.87972 39.7477 7.27773 39.4035C7.19609 39.3572 7.11248 39.313 7.02789 39.2736C6.83018 39.1811 6.61476 39.1782 6.42492 39.249V38.0726V37.6004C6.45148 37.6142 6.47902 37.627 6.50558 37.6418C7.58365 38.2575 8.92336 38.2575 10.0004 37.6418C10.6093 37.2945 11.3952 37.2945 12.0031 37.6418C13.0812 38.2575 14.4199 38.2575 15.498 37.6418ZM13.4137 36.5194C14.7101 34.6171 16.8554 33.4652 19.1975 33.4652C21.5395 33.4652 23.6848 34.6171 24.9813 36.5194C24.5366 36.5961 24.0694 36.5204 23.6681 36.2912C22.59 35.6755 21.2503 35.6755 20.1732 36.2912C19.5712 36.6355 18.8237 36.6355 18.2217 36.2912C17.1436 35.6755 15.8039 35.6755 14.7268 36.2912C14.3245 36.5204 13.8583 36.5961 13.4137 36.5194ZM6.42394 40.7127C6.45049 40.7264 6.47804 40.7392 6.50459 40.755C7.58266 41.3707 8.92238 41.3707 9.99946 40.755C10.6083 40.4077 11.3943 40.4077 12.0021 40.755C13.0802 41.3707 14.4199 41.3707 15.497 40.755C16.099 40.4107 16.8466 40.4107 17.4486 40.755C18.5266 41.3707 19.8663 41.3707 20.9434 40.755C21.5454 40.4107 22.293 40.4107 22.895 40.755C23.434 41.0628 24.0379 41.2173 24.6429 41.2173C25.2468 41.2173 25.8518 41.0628 26.3908 40.755C26.9928 40.4107 27.7404 40.4107 28.3423 40.755C29.4194 41.3707 30.8123 41.3707 31.8893 40.755C31.9159 40.7402 31.9425 40.7274 31.97 40.7137V42.4311C31.7811 42.3603 31.5647 42.3632 31.367 42.4557C31.2824 42.495 31.1988 42.5393 31.1172 42.5855C30.5083 42.9327 29.7224 42.9327 29.1145 42.5855C28.0364 41.9698 26.6967 41.9698 25.6196 42.5855C25.0176 42.9298 24.2701 42.9298 23.6681 42.5855C22.59 41.9698 21.2503 41.9698 20.1732 42.5855C19.5712 42.9298 18.8237 42.9298 18.2217 42.5855C17.1436 41.9698 15.8039 41.9698 14.7268 42.5855C14.1248 42.9298 13.3773 42.9298 12.7753 42.5855C11.6982 41.9698 10.3054 41.9698 9.22829 42.5855C8.6263 42.9298 7.87874 42.9298 7.27675 42.5855C7.19511 42.5393 7.1115 42.495 7.02691 42.4557C6.83018 42.3632 6.61378 42.3603 6.42394 42.4311V40.7127ZM31.7241 46.1984H31.005H28.9188H6.66985C6.5341 46.1984 6.42394 46.0883 6.42394 45.9525V43.8928C6.45049 43.9065 6.47804 43.9193 6.50459 43.9341C7.58266 44.5498 8.92238 44.5498 9.99946 43.9341C10.6083 43.5869 11.3943 43.5869 12.0021 43.9341C13.0802 44.5498 14.4199 44.5498 15.497 43.9341C16.099 43.5898 16.8466 43.5898 17.4486 43.9341C18.5266 44.5498 19.8663 44.5498 20.9434 43.9341C21.5454 43.5898 22.293 43.5898 22.895 43.9341C23.434 44.242 24.0379 44.3964 24.6429 44.3964C25.2468 44.3964 25.8518 44.242 26.3908 43.9341C26.9928 43.5898 27.7404 43.5898 28.3423 43.9341C29.4194 44.5498 30.8123 44.5498 31.8893 43.9341C31.9159 43.9193 31.9425 43.9056 31.97 43.8918V45.9525C31.97 46.0883 31.8598 46.1984 31.7241 46.1984ZM6.66985 6.85094H31.7241C31.8598 6.85094 31.97 6.96111 31.97 7.09685V36.1368C31.7811 36.066 31.5647 36.0689 31.367 36.1614C31.2824 36.2007 31.1988 36.245 31.1172 36.2912C30.5083 36.6384 29.7224 36.6384 29.1145 36.2912C28.305 35.8289 27.3479 35.7138 26.4646 35.946C25.3708 34.1862 23.7015 32.9075 21.7707 32.3026C22.1946 30.2743 23.1763 28.3729 24.5868 26.8542L25.0934 26.9555C25.7259 27.0824 26.2157 27.526 26.4026 28.1437C26.5895 28.7615 26.4292 29.4028 25.9728 29.8592C25.6688 30.1632 25.6688 30.656 25.9728 30.9599C26.2767 31.2639 26.7695 31.2639 27.0734 30.9599C27.942 30.0914 28.2489 28.8697 27.8928 27.6932C27.7 27.0578 27.34 26.5188 26.859 26.1194C28.0935 26.144 29.0545 27.1749 29.0545 28.3572V29.3094C29.0545 29.7392 29.4027 30.0874 29.8326 30.0874C30.2624 30.0874 30.6106 29.7392 30.6106 29.3094V28.3572C30.6106 26.3368 28.9709 24.5899 26.8698 24.5623L28.1741 23.257C28.4781 22.9531 28.4781 22.4603 28.1741 22.1563C27.8702 21.8524 27.3774 21.8524 27.0734 22.1563L25.7682 23.4616C25.7396 21.3507 23.9848 19.7199 21.9733 19.7199H21.0211C20.5913 19.7199 20.2431 20.0681 20.2431 20.4979C20.2431 20.9278 20.5913 21.276 21.0211 21.276H21.9733C23.1546 21.276 24.1865 22.236 24.2111 23.4715C23.8117 22.9905 23.2727 22.6295 22.6372 22.4377C21.4608 22.0816 20.2401 22.3875 19.3706 23.257C19.0666 23.561 19.0666 24.0538 19.3706 24.3577C19.6745 24.6617 20.1673 24.6617 20.4713 24.3577C20.9277 23.9013 21.569 23.741 22.1867 23.9279C22.8045 24.1148 23.2491 24.6046 23.375 25.2371L23.4802 25.7614C21.8631 27.4896 20.7369 29.6605 20.2509 31.976C19.9047 31.9337 19.5535 31.9111 19.1994 31.9111C18.9378 31.9111 18.6781 31.9239 18.4214 31.9475V31.5107C18.4214 28.2579 17.1967 25.0787 14.9186 22.6501L15.0239 22.1259C15.2934 20.7763 16.9548 20.2746 17.9276 21.2465C18.2315 21.5504 18.7243 21.5504 19.0283 21.2465C19.3322 20.9425 19.3322 20.4497 19.0283 20.1458C17.5686 18.6861 15.3288 18.9871 14.1878 20.3612C14.2134 19.053 15.3878 18.1136 16.4256 18.1136H17.3777C17.8076 18.1136 18.1558 17.7654 18.1558 17.3355C18.1558 16.9057 17.8076 16.5575 17.3777 16.5575H16.4256C14.5596 16.5575 12.6602 18.1628 12.6307 20.3504L11.3254 19.0451C11.0215 18.7412 10.5287 18.7412 10.2247 19.0451C9.92077 19.349 9.92077 19.8418 10.2247 20.1458L11.529 21.4511C9.42698 21.4796 7.78824 23.2265 7.78824 25.246V26.1981C7.78824 26.628 8.13645 26.9762 8.5663 26.9762C8.99615 26.9762 9.34436 26.628 9.34436 26.1981V25.246C9.34436 24.0646 10.3044 23.0328 11.5398 23.0082C11.0588 23.4075 10.6978 23.9466 10.506 24.582C10.15 25.7584 10.4559 26.9791 11.3254 27.8487C11.6293 28.1526 12.1222 28.1526 12.4261 27.8487C12.73 27.5447 12.73 27.0519 12.4261 26.748C11.9697 26.2916 11.8094 25.6502 11.9962 25.0325C12.1831 24.4148 12.673 23.9702 13.3055 23.8443L13.812 23.743C15.7852 25.8597 16.8672 28.6021 16.8672 31.5107V32.2327C14.834 32.8052 13.0714 34.1174 11.9333 35.9499C11.0333 35.7148 10.0437 35.8299 9.23222 36.2932C8.63024 36.6375 7.88267 36.6375 7.28068 36.2932C7.19904 36.247 7.11543 36.2027 7.03084 36.1633C6.83411 36.0709 6.61771 36.0679 6.42787 36.1388V35.9883V7.09783C6.42394 6.96111 6.53509 6.85094 6.66985 6.85094Z" fill="#B240E4"/>
<path d="M33.1594 65.886C33.2696 65.8801 33.3788 65.8713 33.487 65.8615C33.5273 65.8575 33.5676 65.8536 33.608 65.8496C33.6985 65.8398 33.788 65.828 33.8765 65.8152C33.9414 65.8064 34.0053 65.7965 34.0693 65.7857C34.1352 65.7749 34.2001 65.7631 34.265 65.7503C34.3673 65.7306 34.4686 65.709 34.569 65.6854C34.5965 65.6795 34.6231 65.6726 34.6506 65.6667C38.2881 64.7893 41 61.5089 41 57.6058C41 55.2323 39.9967 53.0909 38.3934 51.578V42.1341C38.3934 42.0987 38.3904 42.0643 38.3855 42.0308L38.3934 2.2122C38.3934 0.992491 37.4009 7.30517e-07 36.1812 7.30517e-07H2.2122C0.992491 -0.000982907 0 0.991508 0 2.21122V55.8303C0 57.05 0.992491 58.0425 2.2122 58.0425H24.4188C24.5742 61.019 26.3064 63.5833 28.7931 64.9172C28.795 64.9181 28.797 64.9191 28.799 64.9201C28.8826 64.9654 28.9681 65.0086 29.0537 65.0499C29.0999 65.0726 29.1462 65.0942 29.1924 65.1158C29.2475 65.1414 29.3036 65.167 29.3586 65.1916C29.4501 65.2319 29.5426 65.2703 29.636 65.3077C29.6724 65.3224 29.7088 65.3372 29.7452 65.3509C29.8151 65.3775 29.8859 65.4041 29.9567 65.4286C29.9626 65.4306 29.9685 65.4326 29.9744 65.4345C30.1249 65.4867 30.2774 65.5349 30.4318 65.5791C30.4397 65.5811 30.4475 65.5841 30.4554 65.586C30.6915 65.6529 30.9305 65.709 31.1744 65.7542C31.1902 65.7572 31.2049 65.7601 31.2207 65.7621C31.3476 65.7847 31.4764 65.8054 31.6053 65.8221C31.6505 65.828 31.6958 65.8339 31.741 65.8398C31.801 65.8467 31.861 65.8536 31.922 65.8595C32.0243 65.8693 32.1256 65.8772 32.2279 65.8831C32.2653 65.885 32.3027 65.887 32.34 65.888C32.4561 65.8929 32.5722 65.8969 32.6892 65.8969C32.6932 65.8969 32.6971 65.8969 32.7001 65.8969C32.701 65.8969 32.703 65.8969 32.704 65.8969C32.705 65.8969 32.706 65.8969 32.7069 65.8969C32.7099 65.8969 32.7119 65.8969 32.7148 65.8969C32.8437 65.8969 32.9715 65.8929 33.0984 65.887C33.1191 65.888 33.1388 65.887 33.1594 65.886ZM1.47447 55.8303V2.21122C1.47447 1.80498 1.80498 1.47349 2.2122 1.47349H36.1821C36.5884 1.47349 36.9199 1.80399 36.9199 2.21122L36.911 43.106C36.911 43.1424 36.914 43.1768 36.9199 43.2112V50.4646C35.6844 49.7327 34.2444 49.3108 32.7079 49.3108C32.5594 49.3108 32.4119 49.3157 32.2643 49.3235H32.2623C32.162 49.3285 32.0607 49.3363 31.9604 49.3452C31.921 49.3491 31.8817 49.3531 31.8423 49.357C31.7577 49.3658 31.6741 49.3757 31.5895 49.3865C31.561 49.3904 31.5325 49.3944 31.504 49.3983C30.2587 49.5773 29.0724 50.0357 28.0238 50.7528C27.9884 50.7774 27.956 50.8039 27.9265 50.8334C26.9153 51.5495 26.0723 52.4859 25.4654 53.5729C25.4349 53.6102 25.4074 53.6506 25.3838 53.6948C24.9077 54.585 24.5988 55.5628 24.4719 56.5671H2.2122C1.80596 56.568 1.47447 56.2375 1.47447 55.8303ZM27.0904 61.4744C27.0845 61.4656 27.0805 61.4567 27.0746 61.4479C26.2995 60.3137 25.8894 58.9848 25.8894 57.6048C25.8894 54.0804 28.5776 51.1718 32.0115 50.8216C32.1168 50.8108 32.224 50.8029 32.3302 50.797C32.345 50.796 32.3597 50.7951 32.3745 50.7941C32.4837 50.7892 32.5948 50.7852 32.705 50.7852C36.4625 50.7882 39.5177 53.8453 39.5177 57.6038C39.5177 61.3633 36.4585 64.4224 32.6991 64.4224C32.5978 64.4224 32.4964 64.4194 32.3961 64.4145C32.3696 64.4135 32.342 64.4125 32.3155 64.4106C32.2289 64.4057 32.1423 64.3988 32.0558 64.3909C32.0095 64.386 31.9623 64.3811 31.9161 64.3762C31.8748 64.3712 31.8325 64.3653 31.7912 64.3604C31.6909 64.3466 31.5905 64.3309 31.4912 64.3132C31.4744 64.3102 31.4587 64.3073 31.442 64.3043C31.2443 64.267 31.0485 64.2217 30.8557 64.1676C30.8479 64.1656 30.84 64.1637 30.8321 64.1607C30.7072 64.1253 30.5833 64.086 30.4603 64.0427C30.4554 64.0407 30.4495 64.0388 30.4446 64.0378C30.3856 64.0171 30.3275 63.9955 30.2685 63.9729C30.241 63.962 30.2144 63.9512 30.1879 63.9404C30.1062 63.9079 30.0255 63.8735 29.9449 63.8381C29.9036 63.8194 29.8623 63.8017 29.8219 63.782C29.7806 63.7624 29.7383 63.7427 29.697 63.723C28.6485 63.2086 27.7514 62.4295 27.0904 61.4744Z" fill="#B240E4"/>
<path d="M22.2831 50.553H14.413H13.5563H5.68719C5.27997 50.553 4.94946 50.8835 4.94946 51.2907C4.94946 51.6979 5.27997 52.0284 5.68719 52.0284H13.5573H14.414H22.2841C22.6913 52.0284 23.0218 51.6979 23.0218 51.2907C23.0218 50.8835 22.6904 50.553 22.2831 50.553Z" fill="#B240E4"/>
<path d="M32.7004 62.3626C35.2628 62.3626 37.3451 60.2802 37.3451 57.7179C37.3451 55.1555 35.2628 53.0731 32.7004 53.0731C30.138 53.0731 28.0557 55.1555 28.0557 57.7179C28.0557 60.2802 30.138 62.3626 32.7004 62.3626ZM34.6352 55.7821C35.0611 55.7821 35.4093 56.1303 35.4093 56.5562C35.4093 56.9821 35.0611 57.3303 34.6352 57.3303C34.2093 57.3303 33.8611 56.9821 33.8611 56.5562C33.8611 56.1303 34.2103 55.7821 34.6352 55.7821ZM34.3618 59.4619C34.5132 59.3104 34.7582 59.3104 34.9087 59.4619C35.0602 59.6123 35.0602 59.8583 34.9087 60.0088C34.3185 60.5989 33.5345 60.9235 32.6994 60.9235C31.8643 60.9235 31.0804 60.598 30.4902 60.0088C30.3387 59.8573 30.3387 59.6123 30.4902 59.4619C30.6416 59.3104 30.8866 59.3104 31.0371 59.4619C31.4807 59.9055 32.0709 60.1504 32.6984 60.1504C33.328 60.1504 33.9181 59.9065 34.3618 59.4619ZM30.7656 55.7821C31.1915 55.7821 31.5397 56.1303 31.5397 56.5562C31.5397 56.9821 31.1915 57.3303 30.7656 57.3303C30.3397 57.3303 29.9915 56.9821 29.9915 56.5562C29.9915 56.1303 30.3397 55.7821 30.7656 55.7821Z" fill="#B240E4"/>
</svg>
