<svg width="41" height="50" viewBox="0 0 41 50" fill="none" xmlns="http://www.w3.org/2000/svg">
<path d="M31.4993 31.9071C32.4416 31.9071 33.2073 31.1405 33.2073 30.1991V10.1591C33.2073 9.21668 32.4407 8.45105 31.4993 8.45105H6.62524C5.68286 8.45105 4.91724 9.21765 4.91724 10.1591V30.1991C4.91724 31.1405 5.68384 31.9071 6.62524 31.9071H31.4993ZM6.38208 10.1591C6.38208 10.0243 6.49146 9.91492 6.62622 9.91492H31.5002C31.635 9.91492 31.7444 10.0243 31.7444 10.1591V30.1991C31.7444 30.3339 31.635 30.4432 31.5002 30.4432H30.7864L21.6653 21.3221C20.9993 20.6561 19.9153 20.6561 19.2493 21.3221L17.3743 23.1971L14.8069 20.6298C14.7932 20.6161 14.7795 20.6044 14.7659 20.5927L11.6399 17.4628C11.3176 17.1405 10.8879 16.9628 10.4319 16.9628C9.97583 16.9628 9.54712 17.1405 9.22387 17.4628L6.38306 20.3036V10.1591H6.38208ZM6.38208 30.1991V22.3749L10.259 18.4979C10.3215 18.4354 10.3938 18.4266 10.4319 18.4266C10.47 18.4266 10.5422 18.4354 10.6047 18.4979L13.968 21.8641C13.9817 21.8778 13.9954 21.8895 14.01 21.9022L16.512 24.4042C16.7424 24.6346 17.0491 24.7616 17.3743 24.7616C17.7004 24.7616 18.0071 24.6346 18.2375 24.4042L20.2854 22.3563C20.3801 22.2616 20.5354 22.2616 20.6301 22.3563L28.7161 30.4423H6.6272C6.49146 30.4432 6.38208 30.3329 6.38208 30.1991Z" fill="#B240E4"/>
<path d="M6.77767 34.3184C6.21419 34.2627 5.71224 34.6739 5.6556 35.2373C5.59896 35.8008 6.01107 36.3028 6.57454 36.3594C7.13802 36.4161 7.63997 36.0039 7.69661 35.4405C7.75228 34.877 7.34114 34.3741 6.77767 34.3184Z" fill="#B240E4"/>
<path d="M10.403 34.3184C9.83952 34.2627 9.33757 34.6739 9.28093 35.2373C9.22526 35.8008 9.6364 36.3028 10.1999 36.3594C10.7634 36.4161 11.2653 36.0039 11.3219 35.4405C11.3776 34.877 10.9665 34.375 10.403 34.3184Z" fill="#B240E4"/>
<path d="M14.0286 34.3194C13.4652 34.2637 12.9632 34.6749 12.9066 35.2383C12.8499 35.8018 13.262 36.3038 13.8255 36.3604C14.389 36.417 14.8909 36.0049 14.9476 35.4415C15.0033 34.877 14.5921 34.375 14.0286 34.3194Z" fill="#B240E4"/>
<path d="M18.7073 6.08594H21.8791C22.2834 6.08594 22.6116 5.75781 22.6116 5.35352C22.6116 4.94922 22.2834 4.62109 21.8791 4.62109H18.7073C18.303 4.62109 17.9749 4.94922 17.9749 5.35352C17.9749 5.75879 18.303 6.08594 18.7073 6.08594Z" fill="#B240E4"/>
<path d="M6.28442 6.08594H14.9485C15.3528 6.08594 15.6809 5.75781 15.6809 5.35352C15.6809 4.94922 15.3528 4.62109 14.9485 4.62109H6.28442C5.88013 4.62109 5.552 4.94922 5.552 5.35352C5.552 5.75879 5.88013 6.08594 6.28442 6.08594Z" fill="#B240E4"/>
<path d="M25.2634 18.7197C26.6931 18.7197 27.8562 17.5566 27.8562 16.127C27.8562 14.6973 26.6931 13.5342 25.2634 13.5342C23.8337 13.5342 22.6707 14.6973 22.6707 16.127C22.6707 17.5566 23.8337 18.7197 25.2634 18.7197ZM25.2634 14.998C25.8855 14.998 26.3923 15.5039 26.3923 16.127C26.3923 16.749 25.8865 17.2559 25.2634 17.2559C24.6404 17.2559 24.1345 16.75 24.1345 16.127C24.1345 15.5039 24.6414 14.998 25.2634 14.998Z" fill="#B240E4"/>
<path d="M31.3984 44.7822L31.3994 44.7832C31.668 45.0117 31.9717 45.2715 32.2871 45.5469C32.3711 45.6201 32.4775 45.6602 32.5889 45.6602C32.7002 45.6602 32.8076 45.6201 32.8906 45.5469C33.207 45.2705 33.5117 45.0107 33.7803 44.7812C34.5674 44.1103 35.2461 43.5322 35.7187 42.9609C36.2471 42.3232 36.4932 41.7187 36.4932 41.0586C36.4932 40.417 36.2734 39.8252 35.874 39.3916C35.4697 38.9531 34.915 38.7119 34.3115 38.7119C33.8604 38.7119 33.4482 38.8545 33.084 39.1357C32.9004 39.2773 32.7344 39.4512 32.5879 39.6533C32.4414 39.4512 32.2754 39.2773 32.0918 39.1357C31.7285 38.8545 31.3154 38.7119 30.8643 38.7119C30.2607 38.7119 29.7061 38.9531 29.3018 39.3916C28.9023 39.8252 28.6826 40.417 28.6826 41.0586C28.6826 41.7187 28.9287 42.3242 29.457 42.9619C29.9316 43.5322 30.6113 44.1113 31.3984 44.7822Z" fill="#B240E4"/>
<path d="M39.8359 45.4492C39.8691 45.3828 39.9023 45.3154 39.9336 45.2481C39.9453 45.2227 39.957 45.1973 39.9678 45.1719C40.0195 45.0576 40.0693 44.9414 40.1162 44.8242C40.1338 44.7812 40.1504 44.7393 40.167 44.6963C40.1895 44.6367 40.2119 44.5772 40.2334 44.5166C40.2549 44.4551 40.2754 44.3936 40.2959 44.332C40.3213 44.2559 40.3457 44.1787 40.3682 44.1006C40.3877 44.0352 40.4063 43.9688 40.4248 43.9033C40.4385 43.8545 40.4512 43.8057 40.4629 43.7559C40.4863 43.6611 40.5088 43.5654 40.5293 43.4697C40.5371 43.4316 40.5449 43.3936 40.5518 43.3555C40.5693 43.2647 40.5859 43.1729 40.6006 43.0811C40.6064 43.042 40.6133 43.0039 40.6182 42.9648C40.6357 42.8486 40.6504 42.7314 40.6631 42.6143C40.6641 42.6035 40.665 42.5918 40.666 42.5801C40.6768 42.4678 40.6856 42.3545 40.6924 42.2402C40.6943 42.207 40.6963 42.1748 40.6973 42.1416C40.7031 42.0176 40.707 41.8926 40.707 41.7666C40.707 41.6465 40.7041 41.5264 40.6982 41.4072C40.6973 41.3916 40.6973 41.375 40.6963 41.3594C40.6904 41.2471 40.6826 41.1348 40.6729 41.0234C40.6709 41.002 40.6689 40.9805 40.667 40.959C40.6563 40.8506 40.6436 40.7422 40.6289 40.6348C40.626 40.6133 40.6231 40.5918 40.6191 40.5693C40.6035 40.4609 40.5859 40.3535 40.5654 40.2461C40.5625 40.2295 40.5586 40.2139 40.5557 40.1973C40.5361 40.0986 40.5156 40 40.4922 39.9023C40.4883 39.8838 40.4844 39.8662 40.4795 39.8477C40.4551 39.7471 40.4287 39.6484 40.4014 39.5498C40.3936 39.5215 40.3857 39.4941 40.3779 39.4658C40.3506 39.3721 40.3213 39.2803 40.291 39.1885C40.2803 39.1563 40.2695 39.125 40.2588 39.0928C40.2285 39.0039 40.1963 38.915 40.1621 38.8272C40.1494 38.7949 40.1367 38.7627 40.1231 38.7295C40.0938 38.6572 40.0645 38.585 40.0332 38.5137C40.0147 38.4697 39.9951 38.4268 39.9756 38.3828C39.9463 38.3174 39.916 38.2529 39.8848 38.1895C39.8672 38.1523 39.8496 38.1162 39.8311 38.0791C39.793 38.0039 39.7539 37.9297 39.7139 37.8555C39.6914 37.8145 39.6699 37.7744 39.6475 37.7344C39.6074 37.6641 39.5664 37.5938 39.5254 37.5244C39.5 37.4834 39.4746 37.4414 39.4492 37.4004C39.417 37.3496 39.3848 37.2988 39.3516 37.249C39.3145 37.1924 39.2764 37.1367 39.2373 37.0811C39.208 37.0381 39.1777 36.9961 39.1465 36.9541C39.1045 36.8955 39.0615 36.8379 39.0176 36.7812C38.9844 36.7383 38.9512 36.6953 38.917 36.6523C38.8857 36.6123 38.8535 36.5723 38.8213 36.5332C38.7715 36.4736 38.7217 36.415 38.6709 36.3564C38.6377 36.3184 38.6045 36.2812 38.5713 36.2441C38.5195 36.1865 38.4668 36.1299 38.4131 36.0732C38.3799 36.0391 38.3467 36.0049 38.3125 35.9717C38.2686 35.9268 38.2236 35.8828 38.1787 35.8398C38.1582 35.8203 38.1387 35.7998 38.1182 35.7803V26.4053C38.1182 26.3701 38.1152 26.3359 38.1104 26.3027L38.1182 2.19629C38.1182 0.985352 37.1328 0 35.9219 0H2.19629C0.985351 0 0 0.985352 0 2.19629V40.0049C0 41.2158 0.985351 42.2012 2.19629 42.2012H24.25C24.252 42.2461 24.2568 42.29 24.2598 42.335C24.2637 42.3984 24.2686 42.4609 24.2744 42.5234C24.2803 42.583 24.2861 42.6416 24.293 42.7002C24.3008 42.7715 24.3106 42.8418 24.3203 42.9131C24.3272 42.9619 24.333 43.0107 24.3408 43.0586C24.3574 43.165 24.377 43.2705 24.3975 43.376C24.4043 43.4121 24.4121 43.4473 24.4199 43.4824C24.4424 43.5879 24.4658 43.6924 24.4922 43.7959C24.4951 43.8066 24.4971 43.8184 24.5 43.8291C24.5332 43.957 24.5693 44.084 24.6084 44.21C24.6084 44.2109 24.6094 44.2119 24.6094 44.2139C24.8496 44.9893 25.2051 45.7275 25.6699 46.4082C25.6875 46.4336 25.7061 46.457 25.7256 46.4795C26.4531 47.5166 27.4111 48.3809 28.5283 48.9922C28.5479 49.0059 28.5693 49.0186 28.5908 49.0293C28.9268 49.209 29.2754 49.3643 29.6328 49.4951C29.6397 49.498 29.6465 49.5 29.6543 49.5029C29.7715 49.5459 29.8906 49.5859 30.0098 49.623C30.0303 49.6299 30.0508 49.6357 30.0723 49.6416C30.1631 49.6689 30.2549 49.6953 30.3477 49.7197C30.3828 49.7295 30.419 49.7393 30.4541 49.7481C30.5537 49.7734 30.6543 49.7959 30.7539 49.8174C30.7998 49.8271 30.8467 49.8369 30.8936 49.8457C30.9766 49.8623 31.0606 49.877 31.1445 49.8906C31.1963 49.8994 31.2471 49.9072 31.2988 49.9141C31.3857 49.9268 31.4727 49.9375 31.5606 49.9473C31.5986 49.9512 31.6367 49.9561 31.6748 49.96C31.7881 49.9707 31.9014 49.9795 32.0147 49.9863C32.043 49.9883 32.0713 49.9893 32.0986 49.9902C32.2227 49.9961 32.3477 50 32.4717 50C32.6084 50 32.7451 49.9961 32.8799 49.9893C32.8867 49.9893 32.8936 49.9893 32.9004 49.9883C33.0303 49.9814 33.1592 49.9717 33.2871 49.959C33.2998 49.958 33.3125 49.957 33.3252 49.9551C33.4482 49.9424 33.5693 49.9268 33.6904 49.9082C33.708 49.9053 33.7256 49.9033 33.7432 49.9004C33.8594 49.8818 33.9746 49.8613 34.0889 49.8389C34.1113 49.834 34.1338 49.8301 34.1562 49.8252C34.2656 49.8027 34.374 49.7773 34.4815 49.75C34.5088 49.7432 34.5361 49.7363 34.5625 49.7295C34.665 49.7022 34.7666 49.6738 34.8682 49.6426C34.8994 49.6328 34.9316 49.6231 34.9629 49.6133C35.0586 49.583 35.1533 49.5508 35.2481 49.5166C35.2842 49.5039 35.3193 49.4902 35.3555 49.4775C35.4443 49.4443 35.5332 49.4092 35.6201 49.373C35.6602 49.3564 35.7002 49.3389 35.7402 49.3223C35.8223 49.2871 35.9033 49.25 35.9844 49.2119C36.0283 49.1904 36.0732 49.1689 36.1172 49.1475C36.1856 49.1133 36.2539 49.0791 36.3213 49.043C36.376 49.0137 36.4307 48.9844 36.4844 48.9531C36.5322 48.9268 36.5801 48.8984 36.627 48.8711C36.6992 48.8291 36.7705 48.7852 36.8418 48.7402C36.876 48.7188 36.9111 48.6963 36.9453 48.6738C37.0274 48.6201 37.1084 48.5654 37.1885 48.5098C37.2129 48.4922 37.2383 48.4746 37.2627 48.457C37.3506 48.3936 37.4385 48.3281 37.5234 48.2617C37.541 48.248 37.5586 48.2344 37.5752 48.2207C37.667 48.1484 37.7568 48.0732 37.8457 47.9971C37.8574 47.9873 37.8691 47.9766 37.8809 47.9668C37.9736 47.8857 38.0654 47.8018 38.1553 47.7168C38.1621 47.71 38.1699 47.7031 38.1768 47.6963C38.2695 47.6064 38.3604 47.5156 38.4492 47.4219C38.4522 47.4189 38.4551 47.416 38.458 47.4131V47.4121C38.877 46.9678 39.2481 46.4775 39.5615 45.9482C39.5625 45.9463 39.5645 45.9434 39.5654 45.9404C39.6455 45.8057 39.7207 45.668 39.793 45.5283C39.8096 45.5029 39.8232 45.4766 39.8359 45.4492ZM1.4668 40.0049V2.19727C1.4668 1.79395 1.79492 1.46484 2.19922 1.46484H35.9248C36.3281 1.46484 36.6572 1.79297 36.6572 2.19727L36.6484 27.3721C36.6484 27.4082 36.6514 27.4424 36.6572 27.4766V34.6777C36.5596 34.6201 36.4609 34.5654 36.3613 34.5117C36.3447 34.5029 36.3291 34.4941 36.3125 34.4863C36.2188 34.4365 36.125 34.3887 36.0293 34.3428C36.0215 34.3389 36.0137 34.335 36.0059 34.3311C34.9356 33.8203 33.7393 33.5332 32.4766 33.5332C32.2461 33.5332 32.0186 33.5439 31.793 33.5635C31.7813 33.5645 31.7705 33.5645 31.7588 33.5654C31.6943 33.5713 31.6309 33.5781 31.5664 33.585C31.5166 33.5908 31.4668 33.5957 31.417 33.6025C31.3604 33.6104 31.3027 33.6172 31.2461 33.626C31.1748 33.6367 31.1035 33.6484 31.0322 33.6611C30.9971 33.667 30.9609 33.6729 30.9258 33.6797C30.8164 33.7002 30.707 33.7246 30.5986 33.749C30.5752 33.7549 30.5518 33.7607 30.5283 33.7666C30.4277 33.791 30.3281 33.8174 30.2295 33.8447C30.2188 33.8477 30.208 33.8506 30.1973 33.8535C29.3604 34.0938 28.5635 34.4658 27.834 34.9648C27.8076 34.9824 27.7832 35.0029 27.7598 35.0234C26.7305 35.7461 25.874 36.6973 25.2647 37.8037C25.2461 37.8301 25.2285 37.8564 25.2129 37.8857C24.7402 38.7695 24.4336 39.7402 24.3076 40.7373H2.2002C1.7959 40.7373 1.4668 40.4092 1.4668 40.0049ZM25.8477 43.1484C25.8457 43.1367 25.8428 43.126 25.8408 43.1143C25.7988 42.9072 25.7666 42.6963 25.7441 42.4834C25.7412 42.458 25.7393 42.4326 25.7373 42.4082C25.7295 42.3291 25.7236 42.25 25.7188 42.1709C25.7168 42.1406 25.7148 42.1094 25.7139 42.0791C25.709 41.9805 25.7061 41.8809 25.7061 41.7813C25.7061 41.7773 25.7061 41.7725 25.7061 41.7686C25.7061 41.6641 25.709 41.5605 25.7139 41.457C25.7148 41.4365 25.7158 41.416 25.7168 41.3955C25.7217 41.2998 25.7295 41.2041 25.7383 41.1084C25.7412 41.0811 25.7441 41.0537 25.7471 41.0264C25.7559 40.9473 25.7656 40.8682 25.7774 40.79C25.7822 40.7598 25.7861 40.7295 25.791 40.6982C25.8037 40.6191 25.8184 40.54 25.834 40.4609C25.8408 40.4287 25.8467 40.3965 25.8535 40.3633C25.8721 40.2754 25.8926 40.1875 25.9141 40.1006C25.9199 40.0791 25.9258 40.0576 25.9307 40.0371C25.9541 39.9482 25.9785 39.8594 26.0059 39.7725C26.0078 39.7656 26.0098 39.7588 26.0117 39.7529C26.7383 37.4297 28.6856 35.6406 31.0996 35.1406C31.1074 35.1387 31.1143 35.1377 31.1221 35.1357C31.333 35.0928 31.5469 35.0596 31.7637 35.0371C31.7832 35.0352 31.8037 35.0332 31.8242 35.0313C31.9092 35.0234 31.9951 35.0166 32.0811 35.0117C32.1064 35.0098 32.1328 35.0088 32.1582 35.0078C32.2637 35.0029 32.3691 35 32.4746 35C36.207 35 39.2442 38.0371 39.2442 41.7695C39.2442 41.8857 39.2412 42.002 39.2354 42.1172C39.0537 45.6885 36.0908 48.5391 32.4746 48.5391C32.3682 48.5391 32.2627 48.5361 32.1582 48.5313C32.1406 48.5303 32.1221 48.5293 32.1045 48.5283C32.0059 48.5234 31.9082 48.5156 31.8115 48.5059C31.7861 48.5029 31.7617 48.501 31.7373 48.498C31.6533 48.4893 31.5703 48.4785 31.4883 48.4658C31.4639 48.4619 31.4395 48.459 31.415 48.4551C31.3311 48.4414 31.2471 48.4268 31.1641 48.4102C31.1338 48.4043 31.1035 48.3984 31.0732 48.3916C30.9834 48.3731 30.8936 48.3525 30.8047 48.3291C30.7861 48.3242 30.7666 48.3193 30.7481 48.3145C30.6553 48.29 30.5635 48.2646 30.4727 48.2363C30.4688 48.2354 30.4648 48.2344 30.46 48.2324C28.1387 47.5049 26.3496 45.5606 25.8477 43.1484Z" fill="#B240E4"/>
</svg>
