<svg width="41" height="47" viewBox="0 0 41 47" fill="none" xmlns="http://www.w3.org/2000/svg">
<path d="M10.6887 23.7899C10.6887 22.5587 9.83249 21.8256 8.32708 21.8256C7.71148 21.8256 7.29736 21.8872 7.0791 21.9431V25.8885C7.33653 25.9501 7.65552 25.9669 8.09203 25.9669C9.69818 25.9725 10.6887 25.161 10.6887 23.7899Z" fill="#D022ED"/>
<path d="M20.0117 21.8648C19.3346 21.8648 18.8981 21.9264 18.6406 21.9879V30.735C18.8981 30.7965 19.3178 30.7965 19.6927 30.7965C22.4293 30.8133 24.2146 29.3079 24.2146 26.1124C24.2425 23.331 22.614 21.8648 20.0117 21.8648Z" fill="#D022ED"/>
<path d="M37.8871 16.7274H36.7902V11.4389C36.7902 11.4053 36.7846 11.3717 36.779 11.3381C36.779 11.1255 36.7118 10.924 36.5663 10.7561L27.7633 0.69954L27.7577 0.693944C27.7074 0.63798 27.6458 0.587614 27.5786 0.548439C27.5563 0.537247 27.5395 0.526054 27.5171 0.514862C27.4611 0.481284 27.3996 0.458898 27.338 0.442109C27.3212 0.436513 27.31 0.430917 27.2876 0.42532C27.2205 0.408532 27.1533 0.397339 27.0806 0.397339H5.44522C4.46027 0.397339 3.65439 1.20321 3.65439 2.18816V16.733H2.55752C1.14165 16.733 0 17.8802 0 19.2905V32.5985C0 34.0144 1.14724 35.1561 2.55752 35.1561H3.65439V44.2669C3.65439 45.2574 4.46027 46.0577 5.44522 46.0577H34.9938C35.9843 46.0577 36.7846 45.2518 36.7846 44.2669V35.1561H37.8815C39.2973 35.1561 40.439 34.0088 40.439 32.5985V19.2849C40.4446 17.869 39.3029 16.7274 37.8871 16.7274ZM5.45081 2.18256H26.1908V11.3493C26.1908 11.8418 26.5937 12.2447 27.0862 12.2447H34.9938V16.733H5.44522V2.18256H5.45081ZM27.4331 26.0117C27.4331 28.5692 26.4986 30.3376 25.2114 31.4289C23.8011 32.5985 21.6633 33.1526 19.0443 33.1526C17.4773 33.1526 16.3636 33.0518 15.6137 32.9567V19.8222C16.7218 19.6431 18.1712 19.5423 19.699 19.5423C22.2398 19.5423 23.8851 19.9956 25.1722 20.9694C26.5601 22.0047 27.4331 23.65 27.4331 26.0117ZM4.08531 33.0183V19.8222C5.0143 19.6599 6.32384 19.5423 8.17062 19.5423C10.0342 19.5423 11.3661 19.9005 12.2615 20.6112C13.1122 21.2828 13.6886 22.3965 13.6886 23.706C13.6886 25.0155 13.2521 26.1236 12.4574 26.8791C11.4277 27.8473 9.89988 28.2894 8.11466 28.2894C7.71732 28.2894 7.35916 28.267 7.08494 28.2278V33.0183H4.08531ZM34.9994 43.78H5.45081V35.1561H34.9994V43.78ZM37.5905 22.1222H32.453V25.1778H37.2547V27.6346H32.453V33.0183H29.4198V19.6431H37.5905V22.1222Z" fill="#D022ED"/>
</svg>
