<svg width="41" height="47" viewBox="0 0 41 47" fill="none" xmlns="http://www.w3.org/2000/svg">
<path d="M10.6887 23.7905C10.6887 22.5593 9.83249 21.8262 8.32708 21.8262C7.71148 21.8262 7.29736 21.8877 7.0791 21.9437V25.8891C7.33653 25.9507 7.65552 25.9674 8.09203 25.9674C9.69818 25.973 10.6887 25.1616 10.6887 23.7905Z" fill="#30A5E7"/>
<path d="M20.0117 21.8652C19.3346 21.8652 18.8981 21.9268 18.6406 21.9884V30.7354C18.8981 30.797 19.3178 30.797 19.6927 30.797C22.4293 30.8137 24.2146 29.3083 24.2146 26.1128C24.2425 23.3315 22.614 21.8652 20.0117 21.8652Z" fill="#30A5E7"/>
<path d="M37.8871 16.7275H36.7902V11.439C36.7902 11.4054 36.7846 11.3718 36.779 11.3383C36.779 11.1256 36.7118 10.9241 36.5663 10.7562L27.7633 0.699662L27.7577 0.694066C27.7074 0.638103 27.6458 0.587736 27.5786 0.548561C27.5563 0.537369 27.5395 0.526176 27.5171 0.514984C27.4611 0.481406 27.3996 0.45902 27.338 0.442231C27.3212 0.436635 27.31 0.431039 27.2876 0.425443C27.2205 0.408654 27.1533 0.397461 27.0806 0.397461H5.44522C4.46027 0.397461 3.65439 1.20333 3.65439 2.18828V16.7331H2.55752C1.14165 16.7331 0 17.8804 0 19.2906V32.5987C0 34.0145 1.14724 35.1562 2.55752 35.1562H3.65439V44.267C3.65439 45.2575 4.46027 46.0578 5.44522 46.0578H34.9938C35.9843 46.0578 36.7846 45.2519 36.7846 44.267V35.1562H37.8815C39.2973 35.1562 40.439 34.0089 40.439 32.5987V19.285C40.4446 17.8692 39.3029 16.7275 37.8871 16.7275ZM5.45081 2.18269H26.1908V11.3495C26.1908 11.8419 26.5937 12.2449 27.0862 12.2449H34.9938V16.7331H5.44522V2.18269H5.45081ZM27.4331 26.0118C27.4331 28.5693 26.4986 30.3378 25.2114 31.429C23.8011 32.5987 21.6633 33.1527 19.0443 33.1527C17.4773 33.1527 16.3636 33.052 15.6137 32.9568V19.8223C16.7218 19.6432 18.1712 19.5425 19.699 19.5425C22.2398 19.5425 23.8851 19.9958 25.1722 20.9695C26.5601 22.0048 27.4331 23.6502 27.4331 26.0118ZM4.08531 33.0184V19.8223C5.0143 19.66 6.32384 19.5425 8.17062 19.5425C10.0342 19.5425 11.3661 19.9006 12.2615 20.6114C13.1122 21.2829 13.6886 22.3966 13.6886 23.7061C13.6886 25.0157 13.2521 26.1237 12.4574 26.8792C11.4277 27.8474 9.89988 28.2895 8.11466 28.2895C7.71732 28.2895 7.35916 28.2671 7.08494 28.2279V33.0184H4.08531ZM34.9994 43.7801H5.45081V35.1562H34.9994V43.7801ZM37.5905 22.1224H32.453V25.178H37.2547V27.6347H32.453V33.0184H29.4198V19.6432H37.5905V22.1224Z" fill="#30A5E7"/>
</svg>
