<svg width="23" height="23" viewBox="0 0 23 23" fill="none" xmlns="http://www.w3.org/2000/svg">
<path d="M19.6304 3.36693C15.1387 -1.12343 7.85732 -1.12208 3.36694 3.36962C-1.12344 7.86133 -1.12209 15.1427 3.36964 19.633C7.86136 24.1234 15.1427 24.122 19.6331 19.6308C21.7898 17.4736 23.0009 14.5479 23 11.4977C22.9996 8.448 21.7876 5.52316 19.6304 3.36693ZM17.4162 16.0195C17.4158 16.02 17.4153 16.0204 17.4149 16.0209V16.0173L16.8322 16.5963C16.0789 17.3595 14.981 17.6735 13.9379 17.4242C12.8872 17.143 11.8877 16.6951 10.9785 16.0981C10.1335 15.5582 9.35097 14.927 8.6439 14.2159C7.99343 13.5704 7.40945 12.8615 6.89959 12.1001C6.34211 11.2808 5.90098 10.3882 5.58877 9.44751C5.23075 8.34244 5.52723 7.13045 6.35559 6.31558L7.03795 5.63322C7.22752 5.44275 7.53613 5.44185 7.7266 5.63187C7.72705 5.63232 7.7275 5.63277 7.72795 5.63322L9.88239 7.78766C10.0729 7.97722 10.0738 8.28584 9.88374 8.4763C9.88329 8.47675 9.88284 8.4772 9.88239 8.47765L8.6174 9.74264C8.25443 10.1016 8.20861 10.6721 8.51004 11.0844C8.96734 11.7125 9.47406 12.3032 10.0243 12.8517C10.638 13.468 11.3051 14.0286 12.0175 14.5268C12.4295 14.8138 12.9878 14.7658 13.3436 14.4118L14.5664 13.1697C14.756 12.9792 15.0641 12.9783 15.255 13.1684C15.2555 13.1688 15.2559 13.1693 15.2564 13.1697L17.4144 15.3318C17.6053 15.5205 17.6062 15.8286 17.4162 16.0195Z" fill="white"/>
</svg>
