<svg width="42" height="47" viewBox="0 0 42 47" fill="none" xmlns="http://www.w3.org/2000/svg">
<path d="M10.4414 23.3311C10.4414 22.1726 9.63549 21.4787 8.21403 21.4787C7.63761 21.4787 7.24027 21.5347 7.0332 21.5906V25.3178C7.27944 25.3737 7.57605 25.3905 7.99018 25.3905C9.50118 25.3905 10.4414 24.6238 10.4414 23.3311Z" fill="#D022ED"/>
<path d="M38.765 16.7274H37.6681V11.4389C37.6681 11.4053 37.6625 11.3717 37.6569 11.3381C37.6569 11.1255 37.5898 10.924 37.4443 10.7561L28.6413 0.69954L28.6357 0.693944C28.5853 0.63798 28.5237 0.587614 28.4566 0.548439C28.4342 0.537247 28.4174 0.526054 28.395 0.514862C28.3391 0.481284 28.2775 0.458898 28.2159 0.442109C28.1992 0.436513 28.188 0.430917 28.1656 0.42532C28.0984 0.408532 28.0313 0.397339 27.9585 0.397339H6.32314C5.33819 0.397339 4.53232 1.20321 4.53232 2.18816V16.733H3.43545C2.01958 16.733 0.87793 17.8802 0.87793 19.2905V32.5985C0.87793 34.0144 2.02518 35.1561 3.43545 35.1561H4.53232V44.2669C4.53232 45.2574 5.33819 46.0577 6.32314 46.0577H35.8717C36.8622 46.0577 37.6625 45.2518 37.6625 44.2669V35.1561H38.7594C40.1753 35.1561 41.3169 34.0088 41.3169 32.5985V19.2849C41.3281 17.869 40.1809 16.7274 38.765 16.7274ZM6.33434 2.18256H27.0743V11.3493C27.0743 11.8418 27.4772 12.2447 27.9697 12.2447H35.8773V16.733H6.32874V2.18256H6.33434ZM17.7005 28.239V32.0389H15.0814V19.4192H18.4112L21.0303 24.0418C21.7802 25.3737 22.5301 26.9407 23.0897 28.3677H23.1457C22.961 26.7 22.905 24.9987 22.905 23.1072V19.4192H25.5241V32.0333H22.5301L19.8327 27.1645C19.0827 25.8158 18.2601 24.1873 17.6389 22.7099L17.5829 22.7266C17.6669 24.3999 17.7005 26.1796 17.7005 28.239ZM4.20774 32.0389V19.5871C5.08636 19.436 6.32314 19.3241 8.0636 19.3241C9.82084 19.3241 11.0744 19.6599 11.9195 20.337C12.7253 20.975 13.2682 22.0215 13.2682 23.2527C13.2682 24.4895 12.8596 25.536 12.1097 26.2467C11.136 27.1645 9.69772 27.5786 8.01323 27.5786C7.63828 27.5786 7.3025 27.5563 7.03947 27.5227V32.0333H4.20774V32.0389ZM35.8773 43.78H6.32874V35.1561H35.8773V43.78ZM38.5355 31.4569C37.6569 31.7535 35.9892 32.1676 34.3215 32.1676C32.0214 32.1676 30.3537 31.5856 29.1953 30.4663C28.0369 29.3807 27.3989 27.7353 27.4157 25.8774C27.4324 21.6857 30.4824 19.2905 34.6181 19.2905C36.2467 19.2905 37.5002 19.6095 38.1158 19.9061L37.517 22.1894C36.8231 21.8872 35.9612 21.6466 34.5789 21.6466C32.2005 21.6466 30.4041 22.9953 30.4041 25.7263C30.4041 28.3286 32.0326 29.8619 34.3719 29.8619C35.0267 29.8619 35.5527 29.7836 35.7766 29.6717V27.0302H33.829V24.8029H38.5243V31.4569H38.5355Z" fill="#D022ED"/>
</svg>
