<svg width="42" height="47" viewBox="0 0 42 47" fill="none" xmlns="http://www.w3.org/2000/svg">
<path d="M10.4418 23.3309C10.4418 22.1725 9.63598 21.4785 8.21451 21.4785C7.63809 21.4785 7.24076 21.5345 7.03369 21.5904V25.3176C7.27993 25.3736 7.57654 25.3903 7.99067 25.3903C9.50167 25.3903 10.4418 24.6236 10.4418 23.3309Z" fill="#30A5E7"/>
<path d="M38.765 16.7275H37.6681V11.439C37.6681 11.4054 37.6625 11.3718 37.6569 11.3383C37.6569 11.1256 37.5898 10.9241 37.4443 10.7562L28.6413 0.699662L28.6357 0.694066C28.5853 0.638103 28.5237 0.587736 28.4566 0.548561C28.4342 0.537369 28.4174 0.526176 28.395 0.514984C28.3391 0.481406 28.2775 0.45902 28.2159 0.442231C28.1992 0.436635 28.188 0.431039 28.1656 0.425443C28.0984 0.408654 28.0313 0.397461 27.9585 0.397461H6.32314C5.33819 0.397461 4.53232 1.20333 4.53232 2.18828V16.7331H3.43545C2.01958 16.7331 0.87793 17.8804 0.87793 19.2906V32.5987C0.87793 34.0145 2.02518 35.1562 3.43545 35.1562H4.53232V44.267C4.53232 45.2575 5.33819 46.0578 6.32314 46.0578H35.8717C36.8622 46.0578 37.6625 45.2519 37.6625 44.267V35.1562H38.7594C40.1753 35.1562 41.3169 34.0089 41.3169 32.5987V19.285C41.3281 17.8692 40.1809 16.7275 38.765 16.7275ZM6.33434 2.18269H27.0743V11.3495C27.0743 11.8419 27.4772 12.2449 27.9697 12.2449H35.8773V16.7331H6.32874V2.18269H6.33434ZM17.7005 28.2391V32.039H15.0814V19.4193H18.4112L21.0303 24.0419C21.7802 25.3738 22.5301 26.9408 23.0897 28.3679H23.1457C22.961 26.7001 22.905 24.9989 22.905 23.1073V19.4193H25.5241V32.0334H22.5301L19.8327 27.1646C19.0827 25.8159 18.2601 24.1874 17.6389 22.71L17.5829 22.7268C17.6669 24.4001 17.7005 26.1797 17.7005 28.2391ZM4.20774 32.039V19.5872C5.08636 19.4361 6.32314 19.3242 8.0636 19.3242C9.82084 19.3242 11.0744 19.66 11.9195 20.3371C12.7253 20.9751 13.2682 22.0216 13.2682 23.2528C13.2682 24.4896 12.8596 25.5361 12.1097 26.2468C11.136 27.1646 9.69772 27.5788 8.01323 27.5788C7.63828 27.5788 7.3025 27.5564 7.03947 27.5228V32.0334H4.20774V32.039ZM35.8773 43.7801H6.32874V35.1562H35.8773V43.7801ZM38.5355 31.457C37.6569 31.7536 35.9892 32.1677 34.3215 32.1677C32.0214 32.1677 30.3537 31.5857 29.1953 30.4665C28.0369 29.3808 27.3989 27.7355 27.4157 25.8775C27.4324 21.6859 30.4824 19.2906 34.6181 19.2906C36.2467 19.2906 37.5002 19.6096 38.1158 19.9062L37.517 22.1895C36.8231 21.8873 35.9612 21.6467 34.5789 21.6467C32.2005 21.6467 30.4041 22.9954 30.4041 25.7264C30.4041 28.3287 32.0326 29.8621 34.3719 29.8621C35.0267 29.8621 35.5527 29.7837 35.7766 29.6718V27.0303H33.829V24.803H38.5243V31.457H38.5355Z" fill="#30A5E7"/>
</svg>
