<svg width="19" height="23" viewBox="0 0 19 23" fill="none" xmlns="http://www.w3.org/2000/svg">
<path d="M14.0762 14.2586C14.4973 14.2586 14.8394 13.916 14.8394 13.4953V4.53988C14.8394 4.11875 14.4968 3.77661 14.0762 3.77661H2.96053C2.53941 3.77661 2.19727 4.11919 2.19727 4.53988V13.4953C2.19727 13.916 2.53984 14.2586 2.96053 14.2586H14.0762ZM2.85187 4.53988C2.85187 4.47966 2.90075 4.43078 2.96097 4.43078H14.0766C14.1368 4.43078 14.1857 4.47966 14.1857 4.53988V13.4953C14.1857 13.5555 14.1368 13.6044 14.0766 13.6044H13.7576L9.68158 9.5284C9.38395 9.23078 8.89954 9.23078 8.60192 9.5284L7.76402 10.3663L6.61671 9.21899C6.61061 9.21288 6.6045 9.20765 6.59839 9.20241L5.20146 7.80374C5.05745 7.65973 4.86543 7.5803 4.66163 7.5803C4.45783 7.5803 4.26625 7.65973 4.1218 7.80374L2.85231 9.07324V4.53988H2.85187ZM2.85187 13.4953V9.99885L4.58439 8.26633C4.61232 8.2384 4.64461 8.23447 4.66163 8.23447C4.67865 8.23447 4.71095 8.2384 4.73888 8.26633L6.24185 9.77061C6.24796 9.77672 6.25407 9.78195 6.26061 9.78763L7.37868 10.9057C7.48167 11.0087 7.6187 11.0654 7.76402 11.0654C7.90978 11.0654 8.04681 11.0087 8.1498 10.9057L9.06494 9.99055C9.10727 9.94822 9.17666 9.94822 9.21899 9.99055L12.8324 13.604H2.96141C2.90075 13.6044 2.85187 13.5551 2.85187 13.4953Z" fill="#1DABEA"/>
<path d="M3.02866 15.3361C2.77685 15.3112 2.55254 15.4949 2.52723 15.7467C2.50192 15.9985 2.68608 16.2228 2.93789 16.2481C3.18969 16.2734 3.414 16.0893 3.43931 15.8375C3.46419 15.5857 3.28046 15.3609 3.02866 15.3361Z" fill="#1DABEA"/>
<path d="M4.6487 15.3361C4.3969 15.3112 4.17259 15.4949 4.14727 15.7467C4.1224 15.9985 4.30613 16.2228 4.55793 16.2481C4.80974 16.2734 5.03405 16.0893 5.05936 15.8375C5.08423 15.5857 4.90051 15.3614 4.6487 15.3361Z" fill="#1DABEA"/>
<path d="M6.26889 15.3365C6.01708 15.3116 5.79277 15.4953 5.76746 15.7471C5.74215 15.9989 5.92632 16.2233 6.17812 16.2486C6.42992 16.2739 6.65423 16.0897 6.67955 15.8379C6.70442 15.5857 6.52069 15.3614 6.26889 15.3365Z" fill="#1DABEA"/>
<path d="M8.35953 2.71967H9.77697C9.95764 2.71967 10.1043 2.57304 10.1043 2.39237C10.1043 2.21169 9.95764 2.06506 9.77697 2.06506H8.35953C8.17886 2.06506 8.03223 2.21169 8.03223 2.39237C8.03223 2.57347 8.17886 2.71967 8.35953 2.71967Z" fill="#1DABEA"/>
<path d="M2.80826 2.71967H6.68003C6.8607 2.71967 7.00733 2.57304 7.00733 2.39237C7.00733 2.21169 6.8607 2.06506 6.68003 2.06506H2.80826C2.62759 2.06506 2.48096 2.21169 2.48096 2.39237C2.48096 2.57347 2.62759 2.71967 2.80826 2.71967Z" fill="#1DABEA"/>
<path d="M11.2895 8.3654C11.9284 8.3654 12.4482 7.84564 12.4482 7.20675C12.4482 6.56785 11.9284 6.0481 11.2895 6.0481C10.6506 6.0481 10.1309 6.56785 10.1309 7.20675C10.1309 7.84564 10.6506 8.3654 11.2895 8.3654ZM11.2895 6.70226C11.5675 6.70226 11.794 6.92832 11.794 7.20675C11.794 7.48473 11.5679 7.71123 11.2895 7.71123C11.0111 7.71123 10.785 7.48517 10.785 7.20675C10.785 6.92832 11.0115 6.70226 11.2895 6.70226Z" fill="#1DABEA"/>
<path d="M14.031 20.0121L14.0315 20.0126C14.1515 20.1147 14.2872 20.2308 14.4281 20.3538C14.4657 20.3866 14.5132 20.4044 14.563 20.4044C14.6127 20.4044 14.6607 20.3866 14.6978 20.3538C14.8392 20.2303 14.9754 20.1142 15.0954 20.0117C15.4471 19.7119 15.7504 19.4535 15.9617 19.1982C16.1978 18.9133 16.3077 18.6431 16.3077 18.3481C16.3077 18.0614 16.2095 17.7969 16.0311 17.6032C15.8504 17.4072 15.6025 17.2994 15.3328 17.2994C15.1312 17.2994 14.947 17.3632 14.7842 17.4888C14.7022 17.5521 14.628 17.6298 14.5626 17.7201C14.4971 17.6298 14.4229 17.5521 14.3409 17.4888C14.1785 17.3632 13.9939 17.2994 13.7923 17.2994C13.5226 17.2994 13.2747 17.4072 13.0941 17.6032C12.9156 17.7969 12.8174 18.0614 12.8174 18.3481C12.8174 18.6431 12.9274 18.9137 13.1634 19.1987C13.3755 19.4535 13.6793 19.7123 14.031 20.0121Z" fill="#1DABEA"/>
<path d="M17.8018 20.3102C17.8166 20.2805 17.8314 20.2504 17.8454 20.2203C17.8506 20.209 17.8559 20.1976 17.8607 20.1863C17.8838 20.1352 17.9061 20.0833 17.927 20.0309C17.9349 20.0117 17.9423 19.9929 17.9497 19.9737C17.9597 19.9471 17.9698 19.9205 17.9794 19.8934C17.989 19.8659 17.9981 19.8384 18.0073 19.811C18.0186 19.7769 18.0296 19.7424 18.0396 19.7075C18.0483 19.6783 18.0566 19.6486 18.0649 19.6194C18.071 19.5976 18.0767 19.5757 18.0819 19.5535C18.0924 19.5111 18.1024 19.4684 18.1116 19.4256C18.1151 19.4086 18.1186 19.3916 18.1216 19.3745C18.1295 19.334 18.1369 19.2929 18.1435 19.2519C18.1461 19.2345 18.1491 19.2174 18.1513 19.2C18.1592 19.1481 18.1657 19.0957 18.1714 19.0433C18.1718 19.0385 18.1723 19.0333 18.1727 19.028C18.1775 18.9779 18.1814 18.9272 18.1845 18.8762C18.1854 18.8613 18.1862 18.8469 18.1867 18.8321C18.1893 18.7767 18.191 18.7208 18.191 18.6645C18.191 18.6108 18.1897 18.5572 18.1871 18.5039C18.1867 18.4969 18.1867 18.4895 18.1862 18.4825C18.1836 18.4324 18.1801 18.3822 18.1758 18.3324C18.1749 18.3228 18.174 18.3132 18.1731 18.3036C18.1683 18.2552 18.1627 18.2067 18.1561 18.1587C18.1548 18.1491 18.1535 18.1395 18.1518 18.1295C18.1448 18.0811 18.1369 18.033 18.1277 17.985C18.1264 17.9776 18.1247 17.9706 18.1234 17.9632C18.1147 17.9191 18.1055 17.8751 18.095 17.8314C18.0933 17.8231 18.0915 17.8153 18.0893 17.807C18.0784 17.762 18.0667 17.718 18.0544 17.6739C18.0509 17.6612 18.0475 17.649 18.044 17.6364C18.0317 17.5945 18.0186 17.5534 18.0051 17.5124C18.0003 17.498 17.9955 17.4841 17.9907 17.4697C17.9772 17.4299 17.9628 17.3902 17.9475 17.351C17.9418 17.3365 17.9362 17.3221 17.9301 17.3073C17.917 17.275 17.9039 17.2427 17.8899 17.2109C17.8816 17.1912 17.8729 17.172 17.8642 17.1524C17.8511 17.1231 17.8375 17.0943 17.8236 17.066C17.8157 17.0494 17.8079 17.0332 17.7996 17.0167C17.7826 16.9831 17.7651 16.9499 17.7472 16.9167C17.7372 16.8984 17.7276 16.8805 17.7175 16.8626C17.6996 16.8312 17.6813 16.7998 17.663 16.7688C17.6516 16.7505 17.6403 16.7317 17.6289 16.7134C17.6145 16.6907 17.6001 16.668 17.5853 16.6457C17.5687 16.6204 17.5517 16.5955 17.5342 16.5707C17.5211 16.5515 17.5076 16.5327 17.4937 16.5139C17.4749 16.4877 17.4557 16.462 17.436 16.4367C17.4212 16.4175 17.4064 16.3983 17.3911 16.3791C17.3771 16.3612 17.3627 16.3433 17.3483 16.3258C17.3261 16.2992 17.3038 16.273 17.2811 16.2469C17.2663 16.2298 17.2515 16.2132 17.2366 16.1967C17.2135 16.1709 17.1899 16.1456 17.1659 16.1203C17.1511 16.105 17.1362 16.0897 17.121 16.0749C17.1013 16.0548 17.0813 16.0352 17.0612 16.016C17.052 16.0073 17.0433 15.9981 17.0341 15.9894V11.7999C17.0341 11.7842 17.0328 11.7689 17.0306 11.7541L17.0341 0.981471C17.0341 0.440331 16.5938 0 16.0527 0H0.98147C0.44033 0 0 0.440331 0 0.981471V17.8773C0 18.4184 0.44033 18.8587 0.98147 18.8587H10.8368C10.8376 18.8788 10.8398 18.8984 10.8411 18.9185C10.8429 18.9469 10.8451 18.9748 10.8477 19.0027C10.8503 19.0294 10.8529 19.0555 10.856 19.0817C10.8595 19.1136 10.8638 19.145 10.8682 19.1769C10.8712 19.1987 10.8739 19.2205 10.8773 19.2419C10.8848 19.2895 10.8935 19.3366 10.9027 19.3837C10.9057 19.3999 10.9092 19.4156 10.9127 19.4313C10.9227 19.4784 10.9332 19.5251 10.945 19.5714C10.9463 19.5762 10.9472 19.5814 10.9485 19.5862C10.9633 19.6434 10.9795 19.7001 10.9969 19.7564C10.9969 19.7568 10.9974 19.7573 10.9974 19.7581C11.1047 20.1047 11.2636 20.4346 11.4713 20.7387C11.4792 20.7501 11.4874 20.7606 11.4962 20.7706C11.8213 21.2341 12.2494 21.6203 12.7486 21.8935C12.7574 21.8996 12.767 21.9053 12.7766 21.9101C12.9267 21.9903 13.0825 22.0597 13.2422 22.1182C13.2453 22.1195 13.2483 22.1204 13.2518 22.1217C13.3042 22.1409 13.3574 22.1588 13.4107 22.1754C13.4198 22.1784 13.429 22.1811 13.4386 22.1837C13.4792 22.1959 13.5202 22.2077 13.5617 22.2186C13.5774 22.223 13.5935 22.2273 13.6092 22.2312C13.6537 22.2426 13.6987 22.2526 13.7432 22.2622C13.7637 22.2666 13.7847 22.271 13.8056 22.2749C13.8427 22.2823 13.8802 22.2888 13.9178 22.295C13.9409 22.2989 13.9636 22.3024 13.9867 22.3054C14.0256 22.3111 14.0644 22.3159 14.1037 22.3203C14.1207 22.322 14.1377 22.3242 14.1547 22.3259C14.2054 22.3307 14.256 22.3347 14.3066 22.3377C14.3193 22.3386 14.3319 22.339 14.3441 22.3395C14.3996 22.3421 14.4554 22.3438 14.5108 22.3438C14.5719 22.3438 14.633 22.3421 14.6933 22.339C14.6963 22.339 14.6994 22.339 14.7024 22.3386C14.7605 22.3355 14.8181 22.3312 14.8752 22.3255C14.8809 22.3251 14.8866 22.3246 14.8923 22.3238C14.9472 22.3181 15.0014 22.3111 15.0555 22.3028C15.0633 22.3015 15.0712 22.3006 15.079 22.2993C15.131 22.291 15.1825 22.2819 15.2335 22.2718C15.2436 22.2696 15.2536 22.2679 15.2636 22.2657C15.3125 22.2557 15.361 22.2443 15.409 22.2321C15.4212 22.2291 15.4334 22.226 15.4452 22.223C15.491 22.2107 15.5364 22.1981 15.5818 22.1841C15.5957 22.1797 15.6101 22.1754 15.6241 22.171C15.6669 22.1575 15.7092 22.1431 15.7515 22.1278C15.7677 22.1221 15.7834 22.116 15.7995 22.1104C15.8393 22.0955 15.879 22.0798 15.9178 22.0637C15.9357 22.0562 15.9536 22.0484 15.9715 22.041C16.0081 22.0253 16.0444 22.0087 16.0806 21.9917C16.1002 21.9821 16.1203 21.9725 16.1399 21.9629C16.1705 21.9476 16.201 21.9323 16.2311 21.9162C16.2556 21.9031 16.28 21.89 16.304 21.876C16.3254 21.8642 16.3468 21.8516 16.3677 21.8394C16.4 21.8206 16.4319 21.801 16.4637 21.7809C16.479 21.7713 16.4947 21.7612 16.51 21.7512C16.5467 21.7272 16.5829 21.7028 16.6187 21.6779C16.6296 21.67 16.6409 21.6622 16.6518 21.6543C16.6911 21.626 16.7304 21.5967 16.7684 21.567C16.7762 21.5609 16.7841 21.5548 16.7915 21.5487C16.8325 21.5164 16.8727 21.4828 16.9124 21.4488C16.9176 21.4444 16.9228 21.4396 16.9281 21.4352C16.9695 21.399 17.0106 21.3615 17.0507 21.3235C17.0538 21.3205 17.0573 21.3174 17.0603 21.3144C17.1018 21.2742 17.1424 21.2336 17.1821 21.1917C17.1834 21.1904 17.1847 21.1891 17.186 21.1878V21.1874C17.3732 20.9888 17.539 20.7697 17.6791 20.5332C17.6796 20.5323 17.6804 20.531 17.6809 20.5297C17.7167 20.4695 17.7503 20.408 17.7826 20.3455C17.79 20.3342 17.7961 20.3224 17.8018 20.3102ZM0.655478 17.8773V0.981907C0.655478 0.801672 0.80211 0.654605 0.982781 0.654605H16.054C16.2342 0.654605 16.3813 0.801236 16.3813 0.981907L16.3773 12.2319C16.3773 12.2481 16.3786 12.2634 16.3813 12.2786V15.4967C16.3376 15.4709 16.2935 15.4465 16.249 15.4225C16.2416 15.4186 16.2346 15.4146 16.2272 15.4111C16.1853 15.3889 16.1434 15.3675 16.1007 15.347C16.0972 15.3452 16.0937 15.3435 16.0902 15.3418C15.6119 15.1135 15.0773 14.9852 14.513 14.9852C14.41 14.9852 14.3083 14.99 14.2075 14.9987C14.2023 14.9992 14.1975 14.9992 14.1923 14.9996C14.1635 15.0022 14.1351 15.0053 14.1063 15.0083C14.084 15.011 14.0618 15.0131 14.0395 15.0162C14.0142 15.0197 13.9885 15.0227 13.9632 15.0267C13.9313 15.0315 13.8994 15.0367 13.8676 15.0424C13.8519 15.045 13.8357 15.0476 13.82 15.0507C13.7711 15.0598 13.7223 15.0707 13.6738 15.0817C13.6633 15.0843 13.6529 15.0869 13.6424 15.0895C13.5975 15.1004 13.5529 15.1122 13.5089 15.1244C13.5041 15.1257 13.4993 15.127 13.4945 15.1283C13.1205 15.2357 12.7644 15.402 12.4384 15.625C12.4266 15.6328 12.4157 15.642 12.4052 15.6512C11.9452 15.9741 11.5625 16.3992 11.2902 16.8936C11.2819 16.9054 11.274 16.9172 11.2671 16.9303C11.0558 17.3252 10.9188 17.759 10.8625 18.2046H0.983217C0.802547 18.2046 0.655478 18.0579 0.655478 17.8773ZM11.5507 19.282C11.5498 19.2768 11.5485 19.272 11.5477 19.2668C11.5289 19.1742 11.5145 19.08 11.5045 18.9848C11.5031 18.9735 11.5023 18.9621 11.5014 18.9512C11.4979 18.9159 11.4953 18.8805 11.4931 18.8452C11.4922 18.8317 11.4914 18.8177 11.4909 18.8042C11.4887 18.7601 11.4874 18.7156 11.4874 18.6711C11.4874 18.6693 11.4874 18.6671 11.4874 18.6654C11.4874 18.6187 11.4887 18.5724 11.4909 18.5262C11.4914 18.517 11.4918 18.5079 11.4922 18.4987C11.4944 18.4559 11.4979 18.4132 11.5018 18.3704C11.5031 18.3582 11.5045 18.3459 11.5058 18.3337C11.5097 18.2984 11.5141 18.263 11.5193 18.2281C11.5215 18.2146 11.5232 18.2011 11.5254 18.1871C11.5311 18.1517 11.5376 18.1164 11.5446 18.0811C11.5477 18.0667 11.5503 18.0522 11.5533 18.0374C11.5616 17.9981 11.5708 17.9589 11.5804 17.92C11.583 17.9104 11.5856 17.9008 11.5878 17.8917C11.5983 17.8519 11.6092 17.8122 11.6214 17.7734C11.6223 17.7703 11.6232 17.7673 11.624 17.7647C11.9487 16.7265 12.8189 15.927 13.8977 15.7035C13.9012 15.7027 13.9042 15.7022 13.9077 15.7013C14.002 15.6821 14.0976 15.6673 14.1944 15.6573C14.2032 15.6564 14.2123 15.6555 14.2215 15.6547C14.2595 15.6512 14.2979 15.6481 14.3363 15.6459C14.3476 15.6451 14.3594 15.6446 14.3708 15.6442C14.4179 15.642 14.465 15.6407 14.5121 15.6407C16.1801 15.6407 17.5373 16.9979 17.5373 18.6658C17.5373 18.7178 17.536 18.7697 17.5334 18.8212C17.4522 20.4171 16.1281 21.691 14.5121 21.691C14.4646 21.691 14.4174 21.6897 14.3708 21.6875C14.3629 21.687 14.3546 21.6866 14.3468 21.6862C14.3027 21.684 14.259 21.6805 14.2158 21.6761C14.2045 21.6748 14.1936 21.674 14.1827 21.6726C14.1451 21.6687 14.108 21.6639 14.0714 21.6582C14.0605 21.6565 14.0496 21.6552 14.0387 21.6534C14.0011 21.6473 13.9636 21.6408 13.9265 21.6334C13.913 21.6308 13.8994 21.6281 13.8859 21.6251C13.8458 21.6168 13.8056 21.6076 13.7659 21.5972C13.7576 21.595 13.7489 21.5928 13.7406 21.5906C13.6991 21.5797 13.6581 21.5683 13.6175 21.5557C13.6158 21.5553 13.614 21.5548 13.6118 21.5539C12.5745 21.2288 11.775 20.3599 11.5507 19.282Z" fill="#1DABEA"/>
</svg>
