<svg width="52" height="30" viewBox="0 0 52 30" fill="none" xmlns="http://www.w3.org/2000/svg">
<path d="M23.3273 13.6546H27.1991C27.3797 13.6546 27.5264 13.508 27.5264 13.3273C27.5264 13.1466 27.3797 13 27.1991 13H23.3273C23.1466 13 23 13.1466 23 13.3273C23 13.5084 23.1466 13.6546 23.3273 13.6546Z" fill="#1DABEA"/>
<path d="M25.5906 15.2632L25.5906 11.3914C25.5906 11.2108 25.444 11.0641 25.2633 11.0641C25.0827 11.0641 24.936 11.2108 24.936 11.3914L24.936 15.2632C24.936 15.4439 25.0827 15.5905 25.2633 15.5905C25.4444 15.5905 25.5906 15.4439 25.5906 15.2632Z" fill="#1DABEA"/>
<path d="M14.0762 18.2586C14.4973 18.2586 14.8394 17.916 14.8394 17.4953V8.53988C14.8394 8.11875 14.4968 7.77661 14.0762 7.77661H2.96053C2.53941 7.77661 2.19727 8.11919 2.19727 8.53988V17.4953C2.19727 17.916 2.53984 18.2586 2.96053 18.2586H14.0762ZM2.85187 8.53988C2.85187 8.47966 2.90075 8.43078 2.96097 8.43078H14.0766C14.1368 8.43078 14.1857 8.47966 14.1857 8.53988V17.4953C14.1857 17.5555 14.1368 17.6044 14.0766 17.6044H13.7576L9.68158 13.5284C9.38395 13.2308 8.89954 13.2308 8.60192 13.5284L7.76402 14.3663L6.61671 13.219C6.61061 13.2129 6.6045 13.2076 6.59839 13.2024L5.20146 11.8037C5.05745 11.6597 4.86543 11.5803 4.66163 11.5803C4.45783 11.5803 4.26625 11.6597 4.1218 11.8037L2.85231 13.0732V8.53988H2.85187ZM2.85187 17.4953V13.9988L4.58439 12.2663C4.61232 12.2384 4.64461 12.2345 4.66163 12.2345C4.67865 12.2345 4.71095 12.2384 4.73888 12.2663L6.24185 13.7706C6.24796 13.7767 6.25407 13.782 6.26061 13.7876L7.37868 14.9057C7.48167 15.0087 7.6187 15.0654 7.76402 15.0654C7.90978 15.0654 8.04681 15.0087 8.1498 14.9057L9.06494 13.9906C9.10727 13.9482 9.17666 13.9482 9.21899 13.9906L12.8324 17.604H2.96141C2.90075 17.6044 2.85187 17.5551 2.85187 17.4953Z" fill="#1DABEA"/>
<path d="M3.02866 19.3361C2.77685 19.3112 2.55254 19.4949 2.52723 19.7467C2.50192 19.9985 2.68608 20.2228 2.93789 20.2481C3.18969 20.2734 3.414 20.0893 3.43931 19.8375C3.46419 19.5857 3.28046 19.3609 3.02866 19.3361Z" fill="#1DABEA"/>
<path d="M4.6487 19.3361C4.3969 19.3112 4.17259 19.4949 4.14727 19.7467C4.1224 19.9985 4.30613 20.2228 4.55793 20.2481C4.80974 20.2734 5.03405 20.0893 5.05936 19.8375C5.08423 19.5857 4.90051 19.3614 4.6487 19.3361Z" fill="#1DABEA"/>
<path d="M6.26889 19.3365C6.01708 19.3116 5.79277 19.4953 5.76746 19.7471C5.74215 19.9989 5.92632 20.2233 6.17812 20.2486C6.42992 20.2739 6.65423 20.0897 6.67955 19.8379C6.70442 19.5857 6.52069 19.3614 6.26889 19.3365Z" fill="#1DABEA"/>
<path d="M8.35953 6.71967H9.77697C9.95764 6.71967 10.1043 6.57304 10.1043 6.39237C10.1043 6.21169 9.95764 6.06506 9.77697 6.06506H8.35953C8.17886 6.06506 8.03223 6.21169 8.03223 6.39237C8.03223 6.57347 8.17886 6.71967 8.35953 6.71967Z" fill="#1DABEA"/>
<path d="M2.80826 6.71967H6.68003C6.8607 6.71967 7.00733 6.57304 7.00733 6.39237C7.00733 6.21169 6.8607 6.06506 6.68003 6.06506H2.80826C2.62759 6.06506 2.48096 6.21169 2.48096 6.39237C2.48096 6.57347 2.62759 6.71967 2.80826 6.71967Z" fill="#1DABEA"/>
<path d="M11.2895 12.3654C11.9284 12.3654 12.4482 11.8456 12.4482 11.2067C12.4482 10.5679 11.9284 10.0481 11.2895 10.0481C10.6506 10.0481 10.1309 10.5679 10.1309 11.2067C10.1309 11.8456 10.6506 12.3654 11.2895 12.3654ZM11.2895 10.7023C11.5675 10.7023 11.794 10.9283 11.794 11.2067C11.794 11.4847 11.5679 11.7112 11.2895 11.7112C11.0111 11.7112 10.785 11.4852 10.785 11.2067C10.785 10.9283 11.0115 10.7023 11.2895 10.7023Z" fill="#1DABEA"/>
<path d="M14.031 24.0121L14.0315 24.0126C14.1515 24.1147 14.2872 24.2308 14.4281 24.3538C14.4657 24.3866 14.5132 24.4044 14.563 24.4044C14.6127 24.4044 14.6607 24.3866 14.6978 24.3538C14.8392 24.2303 14.9754 24.1142 15.0954 24.0117C15.4471 23.7119 15.7504 23.4535 15.9617 23.1982C16.1978 22.9133 16.3077 22.6431 16.3077 22.3481C16.3077 22.0614 16.2095 21.7969 16.0311 21.6032C15.8504 21.4072 15.6025 21.2994 15.3328 21.2994C15.1312 21.2994 14.947 21.3632 14.7842 21.4888C14.7022 21.5521 14.628 21.6298 14.5626 21.7201C14.4971 21.6298 14.4229 21.5521 14.3409 21.4888C14.1785 21.3632 13.9939 21.2994 13.7923 21.2994C13.5226 21.2994 13.2747 21.4072 13.0941 21.6032C12.9156 21.7969 12.8174 22.0614 12.8174 22.3481C12.8174 22.6431 12.9274 22.9137 13.1634 23.1987C13.3755 23.4535 13.6793 23.7123 14.031 24.0121Z" fill="#1DABEA"/>
<path d="M17.8018 24.3102C17.8166 24.2805 17.8314 24.2504 17.8454 24.2203C17.8506 24.209 17.8559 24.1976 17.8607 24.1863C17.8838 24.1352 17.9061 24.0833 17.927 24.0309C17.9349 24.0117 17.9423 23.9929 17.9497 23.9737C17.9597 23.9471 17.9698 23.9205 17.9794 23.8934C17.989 23.8659 17.9981 23.8384 18.0073 23.811C18.0186 23.7769 18.0296 23.7424 18.0396 23.7075C18.0483 23.6783 18.0566 23.6486 18.0649 23.6194C18.071 23.5976 18.0767 23.5757 18.0819 23.5535C18.0924 23.5111 18.1024 23.4684 18.1116 23.4256C18.1151 23.4086 18.1186 23.3916 18.1216 23.3745C18.1295 23.334 18.1369 23.2929 18.1435 23.2519C18.1461 23.2345 18.1491 23.2174 18.1513 23.2C18.1592 23.1481 18.1657 23.0957 18.1714 23.0433C18.1718 23.0385 18.1723 23.0333 18.1727 23.028C18.1775 22.9779 18.1814 22.9272 18.1845 22.8762C18.1854 22.8613 18.1862 22.8469 18.1867 22.8321C18.1893 22.7767 18.191 22.7208 18.191 22.6645C18.191 22.6108 18.1897 22.5572 18.1871 22.5039C18.1867 22.4969 18.1867 22.4895 18.1862 22.4825C18.1836 22.4324 18.1801 22.3822 18.1758 22.3324C18.1749 22.3228 18.174 22.3132 18.1731 22.3036C18.1683 22.2552 18.1627 22.2067 18.1561 22.1587C18.1548 22.1491 18.1535 22.1395 18.1518 22.1295C18.1448 22.0811 18.1369 22.033 18.1277 21.985C18.1264 21.9776 18.1247 21.9706 18.1234 21.9632C18.1147 21.9191 18.1055 21.8751 18.095 21.8314C18.0933 21.8231 18.0915 21.8153 18.0893 21.807C18.0784 21.762 18.0667 21.718 18.0544 21.6739C18.0509 21.6612 18.0475 21.649 18.044 21.6364C18.0317 21.5945 18.0186 21.5534 18.0051 21.5124C18.0003 21.498 17.9955 21.4841 17.9907 21.4697C17.9772 21.4299 17.9628 21.3902 17.9475 21.351C17.9418 21.3365 17.9362 21.3221 17.9301 21.3073C17.917 21.275 17.9039 21.2427 17.8899 21.2109C17.8816 21.1912 17.8729 21.172 17.8642 21.1524C17.8511 21.1231 17.8375 21.0943 17.8236 21.066C17.8157 21.0494 17.8079 21.0332 17.7996 21.0167C17.7826 20.9831 17.7651 20.9499 17.7472 20.9167C17.7372 20.8984 17.7276 20.8805 17.7175 20.8626C17.6996 20.8312 17.6813 20.7998 17.663 20.7688C17.6516 20.7505 17.6403 20.7317 17.6289 20.7134C17.6145 20.6907 17.6001 20.668 17.5853 20.6457C17.5687 20.6204 17.5517 20.5955 17.5342 20.5707C17.5211 20.5515 17.5076 20.5327 17.4937 20.5139C17.4749 20.4877 17.4557 20.462 17.436 20.4367C17.4212 20.4175 17.4064 20.3983 17.3911 20.3791C17.3771 20.3612 17.3627 20.3433 17.3483 20.3258C17.3261 20.2992 17.3038 20.273 17.2811 20.2469C17.2663 20.2298 17.2515 20.2132 17.2366 20.1967C17.2135 20.1709 17.1899 20.1456 17.1659 20.1203C17.1511 20.105 17.1362 20.0897 17.121 20.0749C17.1013 20.0548 17.0813 20.0352 17.0612 20.016C17.052 20.0073 17.0433 19.9981 17.0341 19.9894V15.7999C17.0341 15.7842 17.0328 15.7689 17.0306 15.7541L17.0341 4.98147C17.0341 4.44033 16.5938 4 16.0527 4H0.98147C0.44033 4 0 4.44033 0 4.98147V21.8773C0 22.4184 0.44033 22.8587 0.98147 22.8587H10.8368C10.8376 22.8788 10.8398 22.8984 10.8411 22.9185C10.8429 22.9469 10.8451 22.9748 10.8477 23.0027C10.8503 23.0294 10.8529 23.0555 10.856 23.0817C10.8595 23.1136 10.8638 23.145 10.8682 23.1769C10.8712 23.1987 10.8739 23.2205 10.8773 23.2419C10.8848 23.2895 10.8935 23.3366 10.9027 23.3837C10.9057 23.3999 10.9092 23.4156 10.9127 23.4313C10.9227 23.4784 10.9332 23.5251 10.945 23.5714C10.9463 23.5762 10.9472 23.5814 10.9485 23.5862C10.9633 23.6434 10.9795 23.7001 10.9969 23.7564C10.9969 23.7568 10.9974 23.7573 10.9974 23.7581C11.1047 24.1047 11.2636 24.4346 11.4713 24.7387C11.4792 24.7501 11.4874 24.7606 11.4962 24.7706C11.8213 25.2341 12.2494 25.6203 12.7486 25.8935C12.7574 25.8996 12.767 25.9053 12.7766 25.9101C12.9267 25.9903 13.0825 26.0597 13.2422 26.1182C13.2453 26.1195 13.2483 26.1204 13.2518 26.1217C13.3042 26.1409 13.3574 26.1588 13.4107 26.1754C13.4198 26.1784 13.429 26.1811 13.4386 26.1837C13.4792 26.1959 13.5202 26.2077 13.5617 26.2186C13.5774 26.223 13.5935 26.2273 13.6092 26.2312C13.6537 26.2426 13.6987 26.2526 13.7432 26.2622C13.7637 26.2666 13.7847 26.271 13.8056 26.2749C13.8427 26.2823 13.8802 26.2888 13.9178 26.295C13.9409 26.2989 13.9636 26.3024 13.9867 26.3054C14.0256 26.3111 14.0644 26.3159 14.1037 26.3203C14.1207 26.322 14.1377 26.3242 14.1547 26.3259C14.2054 26.3307 14.256 26.3347 14.3066 26.3377C14.3193 26.3386 14.3319 26.339 14.3441 26.3395C14.3996 26.3421 14.4554 26.3438 14.5108 26.3438C14.5719 26.3438 14.633 26.3421 14.6933 26.339C14.6963 26.339 14.6994 26.339 14.7024 26.3386C14.7605 26.3355 14.8181 26.3312 14.8752 26.3255C14.8809 26.3251 14.8866 26.3246 14.8923 26.3238C14.9472 26.3181 15.0014 26.3111 15.0555 26.3028C15.0633 26.3015 15.0712 26.3006 15.079 26.2993C15.131 26.291 15.1825 26.2819 15.2335 26.2718C15.2436 26.2696 15.2536 26.2679 15.2636 26.2657C15.3125 26.2557 15.361 26.2443 15.409 26.2321C15.4212 26.2291 15.4334 26.226 15.4452 26.223C15.491 26.2107 15.5364 26.1981 15.5818 26.1841C15.5957 26.1797 15.6101 26.1754 15.6241 26.171C15.6669 26.1575 15.7092 26.1431 15.7515 26.1278C15.7677 26.1221 15.7834 26.116 15.7995 26.1104C15.8393 26.0955 15.879 26.0798 15.9178 26.0637C15.9357 26.0562 15.9536 26.0484 15.9715 26.041C16.0081 26.0253 16.0444 26.0087 16.0806 25.9917C16.1002 25.9821 16.1203 25.9725 16.1399 25.9629C16.1705 25.9476 16.201 25.9323 16.2311 25.9162C16.2556 25.9031 16.28 25.89 16.304 25.876C16.3254 25.8642 16.3468 25.8516 16.3677 25.8394C16.4 25.8206 16.4319 25.801 16.4637 25.7809C16.479 25.7713 16.4947 25.7612 16.51 25.7512C16.5467 25.7272 16.5829 25.7028 16.6187 25.6779C16.6296 25.67 16.6409 25.6622 16.6518 25.6543C16.6911 25.626 16.7304 25.5967 16.7684 25.567C16.7762 25.5609 16.7841 25.5548 16.7915 25.5487C16.8325 25.5164 16.8727 25.4828 16.9124 25.4488C16.9176 25.4444 16.9228 25.4396 16.9281 25.4352C16.9695 25.399 17.0106 25.3615 17.0507 25.3235C17.0538 25.3205 17.0573 25.3174 17.0603 25.3144C17.1018 25.2742 17.1424 25.2336 17.1821 25.1917C17.1834 25.1904 17.1847 25.1891 17.186 25.1878V25.1874C17.3732 24.9888 17.539 24.7697 17.6791 24.5332C17.6796 24.5323 17.6804 24.531 17.6809 24.5297C17.7167 24.4695 17.7503 24.408 17.7826 24.3455C17.79 24.3342 17.7961 24.3224 17.8018 24.3102ZM0.655478 21.8773V4.98191C0.655478 4.80167 0.80211 4.6546 0.982781 4.6546H16.054C16.2342 4.6546 16.3813 4.80124 16.3813 4.98191L16.3773 16.2319C16.3773 16.2481 16.3786 16.2634 16.3813 16.2786V19.4967C16.3376 19.4709 16.2935 19.4465 16.249 19.4225C16.2416 19.4186 16.2346 19.4146 16.2272 19.4111C16.1853 19.3889 16.1434 19.3675 16.1007 19.347C16.0972 19.3452 16.0937 19.3435 16.0902 19.3418C15.6119 19.1135 15.0773 18.9852 14.513 18.9852C14.41 18.9852 14.3083 18.99 14.2075 18.9987C14.2023 18.9992 14.1975 18.9992 14.1923 18.9996C14.1635 19.0022 14.1351 19.0053 14.1063 19.0083C14.084 19.011 14.0618 19.0131 14.0395 19.0162C14.0142 19.0197 13.9885 19.0227 13.9632 19.0267C13.9313 19.0315 13.8994 19.0367 13.8676 19.0424C13.8519 19.045 13.8357 19.0476 13.82 19.0507C13.7711 19.0598 13.7223 19.0707 13.6738 19.0817C13.6633 19.0843 13.6529 19.0869 13.6424 19.0895C13.5975 19.1004 13.5529 19.1122 13.5089 19.1244C13.5041 19.1257 13.4993 19.127 13.4945 19.1283C13.1205 19.2357 12.7644 19.402 12.4384 19.625C12.4266 19.6328 12.4157 19.642 12.4052 19.6512C11.9452 19.9741 11.5625 20.3992 11.2902 20.8936C11.2819 20.9054 11.274 20.9172 11.2671 20.9303C11.0558 21.3252 10.9188 21.759 10.8625 22.2046H0.983217C0.802547 22.2046 0.655478 22.0579 0.655478 21.8773ZM11.5507 23.282C11.5498 23.2768 11.5485 23.272 11.5477 23.2668C11.5289 23.1742 11.5145 23.08 11.5045 22.9848C11.5031 22.9735 11.5023 22.9621 11.5014 22.9512C11.4979 22.9159 11.4953 22.8805 11.4931 22.8452C11.4922 22.8317 11.4914 22.8177 11.4909 22.8042C11.4887 22.7601 11.4874 22.7156 11.4874 22.6711C11.4874 22.6693 11.4874 22.6671 11.4874 22.6654C11.4874 22.6187 11.4887 22.5724 11.4909 22.5262C11.4914 22.517 11.4918 22.5079 11.4922 22.4987C11.4944 22.4559 11.4979 22.4132 11.5018 22.3704C11.5031 22.3582 11.5045 22.3459 11.5058 22.3337C11.5097 22.2984 11.5141 22.263 11.5193 22.2281C11.5215 22.2146 11.5232 22.2011 11.5254 22.1871C11.5311 22.1517 11.5376 22.1164 11.5446 22.0811C11.5477 22.0667 11.5503 22.0522 11.5533 22.0374C11.5616 21.9981 11.5708 21.9589 11.5804 21.92C11.583 21.9104 11.5856 21.9008 11.5878 21.8917C11.5983 21.8519 11.6092 21.8122 11.6214 21.7734C11.6223 21.7703 11.6232 21.7673 11.624 21.7647C11.9487 20.7265 12.8189 19.927 13.8977 19.7035C13.9012 19.7027 13.9042 19.7022 13.9077 19.7013C14.002 19.6821 14.0976 19.6673 14.1944 19.6573C14.2032 19.6564 14.2123 19.6555 14.2215 19.6547C14.2595 19.6512 14.2979 19.6481 14.3363 19.6459C14.3476 19.6451 14.3594 19.6446 14.3708 19.6442C14.4179 19.642 14.465 19.6407 14.5121 19.6407C16.1801 19.6407 17.5373 20.9979 17.5373 22.6658C17.5373 22.7178 17.536 22.7697 17.5334 22.8212C17.4522 24.4171 16.1281 25.691 14.5121 25.691C14.4646 25.691 14.4174 25.6897 14.3708 25.6875C14.3629 25.687 14.3546 25.6866 14.3468 25.6862C14.3027 25.684 14.259 25.6805 14.2158 25.6761C14.2045 25.6748 14.1936 25.674 14.1827 25.6726C14.1451 25.6687 14.108 25.6639 14.0714 25.6582C14.0605 25.6565 14.0496 25.6552 14.0387 25.6534C14.0011 25.6473 13.9636 25.6408 13.9265 25.6334C13.913 25.6308 13.8994 25.6281 13.8859 25.6251C13.8458 25.6168 13.8056 25.6076 13.7659 25.5972C13.7576 25.595 13.7489 25.5928 13.7406 25.5906C13.6991 25.5797 13.6581 25.5683 13.6175 25.5557C13.6158 25.5553 13.614 25.5548 13.6118 25.5539C12.5745 25.2288 11.775 24.3599 11.5507 23.282Z" fill="#1DABEA"/>
<path d="M35.9591 21.1511H47.0747C47.4958 21.1511 47.838 20.8086 47.838 20.3879V3.14865C47.838 2.72752 47.4954 2.38538 47.0747 2.38538H35.9591C35.5384 2.38538 35.1958 2.72795 35.1958 3.14865V20.3879C35.1958 20.8086 35.5384 21.1511 35.9591 21.1511ZM39.8758 16.7003C40.1429 16.5475 40.4745 16.5475 40.7416 16.7003C41.2199 16.9735 41.8143 16.9735 42.2922 16.7003C42.5592 16.5475 42.8909 16.5475 43.158 16.7003C43.3971 16.8369 43.6651 16.9054 43.9335 16.9054C44.2014 16.9054 44.4698 16.8369 44.709 16.7003C44.976 16.5475 45.3077 16.5475 45.5748 16.7003C46.0526 16.9735 46.6706 16.9735 47.1484 16.7003C47.1602 16.6937 47.172 16.688 47.1842 16.6819V17.4134C47.1004 17.3819 47.0044 17.3832 46.9167 17.4243C46.8792 17.4417 46.8421 17.4614 46.8059 17.4819C46.5357 17.6359 46.187 17.6359 45.9174 17.4819C45.4391 17.2087 44.8447 17.2087 44.3668 17.4819C44.0997 17.6346 43.7681 17.6346 43.501 17.4819C43.0227 17.2087 42.4283 17.2087 41.9504 17.4819C41.6834 17.6346 41.3517 17.6346 41.0846 17.4819C40.6063 17.2087 40.0119 17.2087 39.5341 17.4819C39.267 17.6346 38.9353 17.6346 38.6683 17.4819C38.1904 17.2087 37.5725 17.2087 37.0946 17.4819C36.8275 17.6346 36.4958 17.6346 36.2288 17.4819C36.1925 17.4614 36.1555 17.4417 36.1179 17.4243C36.0302 17.3832 35.9346 17.3819 35.8504 17.4134V16.8914V16.6819C35.8622 16.688 35.8744 16.6937 35.8862 16.7003C36.3645 16.9735 36.9589 16.9735 37.4367 16.7003C37.7069 16.5462 38.0556 16.5462 38.3252 16.7003C38.8035 16.9735 39.3975 16.9735 39.8758 16.7003ZM38.951 16.2023C39.5262 15.3583 40.478 14.8473 41.5171 14.8473C42.5562 14.8473 43.508 15.3583 44.0831 16.2023C43.8859 16.2364 43.6786 16.2028 43.5006 16.1011C43.0223 15.8279 42.4279 15.8279 41.95 16.1011C41.6829 16.2538 41.3513 16.2538 41.0842 16.1011C40.6059 15.8279 40.0115 15.8279 39.5336 16.1011C39.3552 16.2028 39.1483 16.2364 38.951 16.2023ZM35.85 18.0627C35.8618 18.0688 35.874 18.0745 35.8858 18.0815C36.3641 18.3547 36.9584 18.3547 37.4363 18.0815C37.7064 17.9274 38.0551 17.9274 38.3248 18.0815C38.8031 18.3547 39.3975 18.3547 39.8754 18.0815C40.1424 17.9287 40.4741 17.9287 40.7412 18.0815C41.2195 18.3547 41.8139 18.3547 42.2917 18.0815C42.5588 17.9287 42.8905 17.9287 43.1575 18.0815C43.3967 18.2181 43.6646 18.2866 43.933 18.2866C44.201 18.2866 44.4694 18.2181 44.7085 18.0815C44.9756 17.9287 45.3073 17.9287 45.5743 18.0815C46.0522 18.3547 46.6701 18.3547 47.148 18.0815C47.1598 18.0749 47.1716 18.0693 47.1838 18.0632V18.8251C47.1 18.7937 47.004 18.795 46.9163 18.836C46.8787 18.8535 46.8417 18.8731 46.8054 18.8936C46.5353 19.0477 46.1866 19.0477 45.9169 18.8936C45.4386 18.6204 44.8442 18.6204 44.3664 18.8936C44.0993 19.0464 43.7676 19.0464 43.5006 18.8936C43.0223 18.6204 42.4279 18.6204 41.95 18.8936C41.6829 19.0464 41.3513 19.0464 41.0842 18.8936C40.6059 18.6204 40.0115 18.6204 39.5336 18.8936C39.2666 19.0464 38.9349 19.0464 38.6678 18.8936C38.19 18.6204 37.572 18.6204 37.0942 18.8936C36.8271 19.0464 36.4954 19.0464 36.2283 18.8936C36.1921 18.8731 36.155 18.8535 36.1175 18.836C36.0302 18.795 35.9342 18.7937 35.85 18.8251V18.0627ZM47.0747 20.4965H46.7557H45.8301H35.9591C35.8988 20.4965 35.85 20.4477 35.85 20.3874V19.4736C35.8618 19.4797 35.874 19.4854 35.8858 19.4919C36.3641 19.7651 36.9584 19.7651 37.4363 19.4919C37.7064 19.3379 38.0551 19.3379 38.3248 19.4919C38.8031 19.7651 39.3975 19.7651 39.8754 19.4919C40.1424 19.3392 40.4741 19.3392 40.7412 19.4919C41.2195 19.7651 41.8139 19.7651 42.2917 19.4919C42.5588 19.3392 42.8905 19.3392 43.1575 19.4919C43.3967 19.6285 43.6646 19.697 43.933 19.697C44.201 19.697 44.4694 19.6285 44.7085 19.4919C44.9756 19.3392 45.3073 19.3392 45.5743 19.4919C46.0522 19.7651 46.6701 19.7651 47.148 19.4919C47.1598 19.4854 47.1716 19.4793 47.1838 19.4732V20.3874C47.1838 20.4477 47.1349 20.4965 47.0747 20.4965ZM35.9591 3.03954H47.0747C47.1349 3.03954 47.1838 3.08842 47.1838 3.14865V16.0326C47.1 16.0012 47.004 16.0025 46.9163 16.0435C46.8787 16.0609 46.8417 16.0806 46.8054 16.1011C46.5353 16.2551 46.1866 16.2551 45.9169 16.1011C45.5578 15.896 45.1331 15.8449 44.7412 15.9479C44.256 15.1672 43.5154 14.5999 42.6587 14.3315C42.8468 13.4316 43.2824 12.588 43.9082 11.9142L44.1329 11.9592C44.4135 12.0155 44.6308 12.2123 44.7138 12.4864C44.7967 12.7604 44.7255 13.045 44.523 13.2474C44.3882 13.3823 44.3882 13.6009 44.523 13.7358C44.6579 13.8706 44.8765 13.8706 45.0114 13.7358C45.3967 13.3504 45.5329 12.8084 45.3749 12.2865C45.2894 12.0046 45.1296 11.7654 44.9162 11.5882C45.4639 11.5992 45.8903 12.0565 45.8903 12.5811V13.0035C45.8903 13.1942 46.0448 13.3487 46.2355 13.3487C46.4262 13.3487 46.5807 13.1942 46.5807 13.0035V12.5811C46.5807 11.6847 45.8532 10.9096 44.921 10.8974L45.4997 10.3183C45.6346 10.1835 45.6346 9.96482 45.4997 9.82998C45.3649 9.69513 45.1462 9.69513 45.0114 9.82998L44.4323 10.4091C44.4196 9.47256 43.6411 8.74901 42.7486 8.74901H42.3262C42.1355 8.74901 41.981 8.90349 41.981 9.0942C41.981 9.28491 42.1355 9.43939 42.3262 9.43939H42.7486C43.2727 9.43939 43.7305 9.86532 43.7414 10.4134C43.5643 10.2 43.3251 10.0399 43.0432 9.95479C42.5213 9.79681 41.9797 9.93253 41.5939 10.3183C41.4591 10.4532 41.4591 10.6718 41.5939 10.8066C41.7288 10.9415 41.9474 10.9415 42.0822 10.8066C42.2847 10.6042 42.5693 10.533 42.8433 10.6159C43.1174 10.6989 43.3146 10.9162 43.3705 11.1968L43.4172 11.4294C42.6998 12.1962 42.2001 13.1593 41.9845 14.1866C41.8309 14.1678 41.6751 14.1578 41.518 14.1578C41.4019 14.1578 41.2867 14.1635 41.1728 14.1739V13.9802C41.1728 12.537 40.6295 11.1265 39.6187 10.049L39.6654 9.81645C39.785 9.2177 40.5221 8.99514 40.9537 9.4263C41.0886 9.56115 41.3072 9.56115 41.442 9.4263C41.5769 9.29145 41.5769 9.07282 41.442 8.93797C40.7944 8.29035 39.8007 8.42388 39.2945 9.03354C39.3058 8.45312 39.8269 8.03636 40.2873 8.03636H40.7098C40.9005 8.03636 41.0549 7.88187 41.0549 7.69116C41.0549 7.50046 40.9005 7.34597 40.7098 7.34597H40.2873C39.4595 7.34597 38.6168 8.05818 38.6037 9.02874L38.0246 8.44963C37.8897 8.31478 37.6711 8.31478 37.5362 8.44963C37.4014 8.58448 37.4014 8.80312 37.5362 8.93797L38.1149 9.51707C37.1823 9.52973 36.4553 10.3048 36.4553 11.2007V11.6232C36.4553 11.8139 36.6097 11.9684 36.8005 11.9684C36.9912 11.9684 37.1456 11.8139 37.1456 11.6232V11.2007C37.1456 10.6766 37.5716 10.2188 38.1197 10.2079C37.9063 10.3851 37.7461 10.6242 37.661 10.9061C37.5031 11.4281 37.6388 11.9697 38.0246 12.3554C38.1594 12.4903 38.3781 12.4903 38.5129 12.3554C38.6477 12.2206 38.6477 12.002 38.5129 11.8671C38.3104 11.6646 38.2393 11.3801 38.3222 11.106C38.4051 10.832 38.6224 10.6347 38.903 10.5788L39.1278 10.5339C40.0032 11.473 40.4833 12.6897 40.4833 13.9802V14.3005C39.5812 14.5545 38.7992 15.1366 38.2943 15.9497C37.895 15.8454 37.4559 15.8964 37.0959 16.102C36.8288 16.2547 36.4972 16.2547 36.2301 16.102C36.1939 16.0814 36.1568 16.0618 36.1192 16.0444C36.0319 16.0033 35.9359 16.002 35.8517 16.0334V15.9667V3.14908C35.85 3.08842 35.8993 3.03954 35.9591 3.03954Z" fill="#1DABEA"/>
<path d="M47.7116 29.2311C47.7605 29.2285 47.8089 29.2246 47.8569 29.2202C47.8748 29.2185 47.8927 29.2167 47.9106 29.215C47.9507 29.2106 47.9904 29.2054 48.0297 29.1997C48.0585 29.1958 48.0869 29.1914 48.1153 29.1866C48.1445 29.1818 48.1733 29.1766 48.2021 29.1709C48.2475 29.1622 48.2924 29.1526 48.337 29.1421C48.3492 29.1395 48.361 29.1364 48.3732 29.1338C49.987 28.7446 51.1902 27.2892 51.1902 25.5575C51.1902 24.5045 50.745 23.5544 50.0337 22.8832V18.6933C50.0337 18.6776 50.0324 18.6623 50.0302 18.6475L50.0337 0.981471C50.0337 0.440331 49.5934 3.24103e-07 49.0522 3.24103e-07H33.9815C33.4403 -0.000436079 33 0.439895 33 0.981034V24.7698C33 25.3109 33.4403 25.7513 33.9815 25.7513H43.8337C43.9027 27.0718 44.6712 28.2095 45.7744 28.8013C45.7753 28.8017 45.7761 28.8022 45.777 28.8026C45.8141 28.8227 45.8521 28.8419 45.89 28.8602C45.9105 28.8702 45.9311 28.8798 45.9516 28.8894C45.976 28.9008 46.0009 28.9121 46.0253 28.923C46.0659 28.9409 46.1069 28.958 46.1484 28.9745C46.1645 28.9811 46.1807 28.9876 46.1968 28.9937C46.2278 29.0055 46.2592 29.0173 46.2907 29.0282C46.2933 29.0291 46.2959 29.03 46.2985 29.0308C46.3653 29.054 46.4329 29.0754 46.5014 29.095C46.5049 29.0959 46.5084 29.0972 46.5119 29.098C46.6166 29.1277 46.7227 29.1526 46.8309 29.1727C46.8379 29.174 46.8445 29.1753 46.8514 29.1762C46.9077 29.1862 46.9649 29.1954 47.0221 29.2028C47.0421 29.2054 47.0622 29.208 47.0823 29.2106C47.1089 29.2137 47.1355 29.2167 47.1626 29.2194C47.208 29.2237 47.2529 29.2272 47.2983 29.2298C47.3149 29.2307 47.3315 29.2316 47.3481 29.232C47.3996 29.2342 47.4511 29.2359 47.503 29.2359C47.5047 29.2359 47.5065 29.2359 47.5078 29.2359C47.5082 29.2359 47.5091 29.2359 47.5095 29.2359C47.51 29.2359 47.5104 29.2359 47.5108 29.2359C47.5121 29.2359 47.513 29.2359 47.5143 29.2359C47.5715 29.2359 47.6282 29.2342 47.6845 29.2316C47.6937 29.232 47.7024 29.2316 47.7116 29.2311ZM33.6542 24.7698V0.981034C33.6542 0.8008 33.8008 0.653732 33.9815 0.653732H49.0527C49.2329 0.653732 49.38 0.800363 49.38 0.981034L49.376 19.1245C49.376 19.1406 49.3773 19.1559 49.38 19.1712V22.3892C48.8318 22.0645 48.1929 21.8773 47.5113 21.8773C47.4454 21.8773 47.3799 21.8795 47.3145 21.883H47.3136C47.2691 21.8852 47.2241 21.8887 47.1796 21.8926C47.1622 21.8943 47.1447 21.8961 47.1272 21.8978C47.0897 21.9018 47.0526 21.9061 47.0151 21.9109C47.0024 21.9127 46.9898 21.9144 46.9771 21.9162C46.4246 21.9956 45.8983 22.1989 45.4331 22.5171C45.4174 22.528 45.403 22.5398 45.3899 22.5529C44.9413 22.8706 44.5673 23.286 44.298 23.7683C44.2845 23.7848 44.2723 23.8027 44.2618 23.8224C44.0506 24.2173 43.9136 24.6511 43.8573 25.0967H33.9815C33.8012 25.0971 33.6542 24.9505 33.6542 24.7698ZM45.019 27.2739C45.0164 27.27 45.0146 27.266 45.012 27.2621C44.6681 26.7589 44.4861 26.1693 44.4861 25.5571C44.4861 23.9934 45.6788 22.703 47.2023 22.5476C47.249 22.5428 47.2966 22.5393 47.3437 22.5367C47.3502 22.5363 47.3568 22.5359 47.3633 22.5354C47.4118 22.5332 47.4611 22.5315 47.51 22.5315C49.177 22.5328 50.5325 23.8891 50.5325 25.5566C50.5325 27.2246 49.1753 28.5818 47.5073 28.5818C47.4624 28.5818 47.4174 28.5805 47.3729 28.5783C47.3612 28.5779 47.3489 28.5774 47.3372 28.5765C47.2987 28.5744 47.2603 28.5713 47.2219 28.5678C47.2014 28.5656 47.1805 28.5634 47.16 28.5613C47.1416 28.5591 47.1229 28.5565 47.1045 28.5543C47.06 28.5482 47.0155 28.5412 46.9714 28.5333C46.964 28.532 46.957 28.5307 46.9496 28.5294C46.8619 28.5128 46.7751 28.4928 46.6895 28.4688C46.686 28.4679 46.6825 28.467 46.6791 28.4657C46.6236 28.45 46.5686 28.4325 46.5141 28.4133C46.5119 28.4125 46.5093 28.4116 46.5071 28.4111C46.4809 28.402 46.4552 28.3924 46.429 28.3823C46.4168 28.3775 46.405 28.3727 46.3932 28.3679C46.357 28.3535 46.3212 28.3383 46.2854 28.3226C46.2671 28.3143 46.2488 28.3064 46.2309 28.2977C46.2125 28.289 46.1938 28.2802 46.1754 28.2715C45.7102 28.0433 45.3122 27.6976 45.019 27.2739Z" fill="#1DABEA"/>
<path d="M42.8861 22.4285H39.3944H39.0143H35.5231C35.3424 22.4285 35.1958 22.5751 35.1958 22.7558C35.1958 22.9364 35.3424 23.0831 35.5231 23.0831H39.0148H39.3949H42.8865C43.0672 23.0831 43.2138 22.9364 43.2138 22.7558C43.2138 22.5751 43.0668 22.4285 42.8861 22.4285Z" fill="#1DABEA"/>
<path d="M47.508 27.668C48.6448 27.668 49.5687 26.7441 49.5687 25.6073C49.5687 24.4704 48.6448 23.5466 47.508 23.5466C46.3711 23.5466 45.4473 24.4704 45.4473 25.6073C45.4473 26.7441 46.3711 27.668 47.508 27.668ZM48.3664 24.7484C48.5553 24.7484 48.7098 24.9029 48.7098 25.0919C48.7098 25.2808 48.5553 25.4353 48.3664 25.4353C48.1774 25.4353 48.0229 25.2808 48.0229 25.0919C48.0229 24.9029 48.1778 24.7484 48.3664 24.7484ZM48.245 26.381C48.3123 26.3138 48.4209 26.3138 48.4877 26.381C48.5549 26.4478 48.5549 26.5569 48.4877 26.6236C48.2258 26.8855 47.878 27.0295 47.5075 27.0295C47.137 27.0295 46.7892 26.8851 46.5274 26.6236C46.4602 26.5564 46.4602 26.4478 46.5274 26.381C46.5946 26.3138 46.7032 26.3138 46.77 26.381C46.9668 26.5778 47.2287 26.6865 47.5071 26.6865C47.7864 26.6865 48.0482 26.5783 48.245 26.381ZM46.6496 24.7484C46.8385 24.7484 46.993 24.9029 46.993 25.0919C46.993 25.2808 46.8385 25.4353 46.6496 25.4353C46.4606 25.4353 46.3061 25.2808 46.3061 25.0919C46.3061 24.9029 46.4606 24.7484 46.6496 24.7484Z" fill="#1DABEA"/>
</svg>
