<svg width="77" height="44" viewBox="0 0 77 44" fill="none" xmlns="http://www.w3.org/2000/svg">
<path d="M35.0807 20.4623H40.7722C41.0378 20.4623 41.2534 20.2467 41.2534 19.9811C41.2534 19.7155 41.0378 19.5 40.7722 19.5H35.0807C34.8152 19.5 34.5996 19.7155 34.5996 19.9811C34.5996 20.2473 34.8152 20.4623 35.0807 20.4623Z" fill="#1DABEA"/>
<path d="M38.4086 22.8269L38.4086 17.1354C38.4086 16.8698 38.193 16.6542 37.9274 16.6542C37.6618 16.6542 37.4463 16.8698 37.4463 17.1354L37.4463 22.8269C37.4463 23.0925 37.6618 23.308 37.9274 23.308C38.1937 23.308 38.4086 23.0925 38.4086 22.8269Z" fill="#1DABEA"/>
<path d="M21.4815 27.2301C22.1006 27.2301 22.6035 26.7265 22.6035 26.1081V12.9436C22.6035 12.3246 22.0999 11.8216 21.4815 11.8216H5.14154C4.52248 11.8216 4.01953 12.3252 4.01953 12.9436V26.1081C4.01953 26.7265 4.52312 27.2301 5.14154 27.2301H21.4815ZM4.9818 12.9436C4.9818 12.8551 5.05365 12.7833 5.14218 12.7833H21.4821C21.5707 12.7833 21.6425 12.8551 21.6425 12.9436V26.1081C21.6425 26.1967 21.5707 26.2685 21.4821 26.2685H21.0132L15.0215 20.2768C14.584 19.8393 13.8719 19.8393 13.4344 20.2768L12.2027 21.5085L10.5161 19.8219C10.5071 19.813 10.4982 19.8053 10.4892 19.7976L8.4357 17.7415C8.224 17.5298 7.94174 17.4131 7.64215 17.4131C7.34256 17.4131 7.06094 17.5298 6.8486 17.7415L4.98244 19.6077V12.9436H4.9818ZM4.9818 26.1081V20.9683L7.5286 18.4215C7.56966 18.3805 7.61713 18.3747 7.64215 18.3747C7.66717 18.3747 7.71464 18.3805 7.7557 18.4215L9.96506 20.6328C9.97405 20.6418 9.98303 20.6495 9.99265 20.6578L11.6362 22.3014C11.7876 22.4528 11.989 22.5362 12.2027 22.5362C12.4169 22.5362 12.6184 22.4528 12.7698 22.3014L14.115 20.9561C14.1772 20.8939 14.2792 20.8939 14.3415 20.9561L19.6532 26.2679H5.14282C5.05365 26.2685 4.9818 26.196 4.9818 26.1081Z" fill="#1DABEA"/>
<path d="M5.24247 28.814C4.87232 28.7775 4.54258 29.0476 4.50537 29.4177C4.46816 29.7879 4.73889 30.1176 5.10904 30.1548C5.47919 30.192 5.80893 29.9213 5.84614 29.5511C5.8827 29.181 5.61262 28.8506 5.24247 28.814Z" fill="#1DABEA"/>
<path d="M7.62323 28.814C7.25307 28.7775 6.92334 29.0476 6.88613 29.4177C6.84956 29.7879 7.11964 30.1176 7.48979 30.1548C7.85995 30.192 8.18968 29.9213 8.22689 29.5511C8.26346 29.181 7.99338 28.8513 7.62323 28.814Z" fill="#1DABEA"/>
<path d="M10.0052 28.8147C9.63501 28.7781 9.30528 29.0482 9.26807 29.4183C9.23086 29.7885 9.50158 30.1182 9.87173 30.1554C10.2419 30.1926 10.5716 29.9219 10.6088 29.5518C10.6454 29.181 10.3753 28.8512 10.0052 28.8147Z" fill="#1DABEA"/>
<path d="M13.0788 10.2679H15.1624C15.428 10.2679 15.6436 10.0524 15.6436 9.78678C15.6436 9.5212 15.428 9.30565 15.1624 9.30565H13.0788C12.8132 9.30565 12.5977 9.5212 12.5977 9.78678C12.5977 10.053 12.8132 10.2679 13.0788 10.2679Z" fill="#1DABEA"/>
<path d="M4.91766 10.2679H10.6092C10.8747 10.2679 11.0903 10.0524 11.0903 9.78678C11.0903 9.5212 10.8747 9.30565 10.6092 9.30565H4.91766C4.65207 9.30565 4.43652 9.5212 4.43652 9.78678C4.43652 10.053 4.65207 10.2679 4.91766 10.2679Z" fill="#1DABEA"/>
<path d="M17.3858 18.5671C18.325 18.5671 19.089 17.8031 19.089 16.8639C19.089 15.9247 18.325 15.1607 17.3858 15.1607C16.4467 15.1607 15.6826 15.9247 15.6826 16.8639C15.6826 17.8031 16.4467 18.5671 17.3858 18.5671ZM17.3858 16.1223C17.7945 16.1223 18.1274 16.4546 18.1274 16.8639C18.1274 17.2726 17.7951 17.6055 17.3858 17.6055C16.9766 17.6055 16.6442 17.2732 16.6442 16.8639C16.6442 16.4546 16.9772 16.1223 17.3858 16.1223Z" fill="#1DABEA"/>
<path d="M21.4159 35.6878L21.4165 35.6885C21.5929 35.8386 21.7925 36.0092 21.9997 36.1901C22.0548 36.2382 22.1248 36.2645 22.1979 36.2645C22.271 36.2645 22.3416 36.2382 22.3961 36.1901C22.604 36.0086 22.8041 35.8379 22.9805 35.6872C23.4976 35.2465 23.9434 34.8667 24.2539 34.4914C24.601 34.0725 24.7627 33.6754 24.7627 33.2417C24.7627 32.8203 24.6183 32.4315 24.3559 32.1467C24.0903 31.8586 23.726 31.7002 23.3295 31.7002C23.0331 31.7002 22.7624 31.7938 22.5231 31.9786C22.4025 32.0716 22.2935 32.1858 22.1972 32.3186C22.101 32.1858 21.992 32.0716 21.8714 31.9786C21.6327 31.7938 21.3614 31.7002 21.065 31.7002C20.6685 31.7002 20.3041 31.8586 20.0386 32.1467C19.7762 32.4315 19.6318 32.8203 19.6318 33.2417C19.6318 33.6754 19.7935 34.0731 20.1406 34.492C20.4523 34.8667 20.8988 35.2471 21.4159 35.6878Z" fill="#1DABEA"/>
<path d="M26.9586 36.126C26.9804 36.0824 27.0022 36.0381 27.0228 35.9938C27.0305 35.9772 27.0382 35.9605 27.0452 35.9438C27.0792 35.8687 27.1119 35.7924 27.1427 35.7154C27.1543 35.6872 27.1652 35.6596 27.1761 35.6314C27.1908 35.5922 27.2056 35.5531 27.2197 35.5133C27.2338 35.4729 27.2473 35.4325 27.2608 35.3921C27.2774 35.3421 27.2935 35.2914 27.3082 35.2401C27.3211 35.1971 27.3333 35.1534 27.3455 35.1105C27.3544 35.0784 27.3628 35.0463 27.3705 35.0136C27.3859 34.9514 27.4006 34.8885 27.4141 34.8256C27.4192 34.8006 27.4244 34.7756 27.4288 34.7506C27.4404 34.6909 27.4513 34.6306 27.4609 34.5703C27.4648 34.5447 27.4693 34.5196 27.4725 34.494C27.484 34.4176 27.4936 34.3407 27.502 34.2637C27.5026 34.2566 27.5033 34.2489 27.5039 34.2412C27.511 34.1674 27.5167 34.093 27.5212 34.018C27.5225 33.9962 27.5238 33.975 27.5244 33.9532C27.5283 33.8717 27.5309 33.7896 27.5309 33.7068C27.5309 33.6279 27.5289 33.549 27.5251 33.4708C27.5244 33.4605 27.5244 33.4496 27.5238 33.4393C27.5199 33.3656 27.5148 33.2918 27.5084 33.2186C27.5071 33.2045 27.5058 33.1904 27.5045 33.1763C27.4975 33.1051 27.4892 33.0339 27.4795 32.9633C27.4776 32.9492 27.4757 32.9351 27.4731 32.9203C27.4629 32.8491 27.4513 32.7786 27.4378 32.708C27.4359 32.6971 27.4333 32.6868 27.4314 32.6759C27.4186 32.6111 27.4051 32.5463 27.3897 32.4822C27.3871 32.47 27.3846 32.4585 27.3814 32.4463C27.3653 32.3802 27.348 32.3154 27.3301 32.2506C27.3249 32.232 27.3198 32.214 27.3147 32.1954C27.2967 32.1338 27.2775 32.0735 27.2576 32.0132C27.2505 31.9921 27.2434 31.9715 27.2364 31.9504C27.2165 31.892 27.1953 31.8336 27.1729 31.7759C27.1645 31.7547 27.1562 31.7335 27.1472 31.7117C27.128 31.6643 27.1087 31.6168 27.0882 31.57C27.076 31.5411 27.0632 31.5129 27.0504 31.484C27.0311 31.441 27.0112 31.3987 26.9907 31.357C26.9791 31.3326 26.9676 31.3089 26.9554 31.2845C26.9304 31.2351 26.9047 31.1863 26.8784 31.1376C26.8637 31.1106 26.8496 31.0843 26.8348 31.058C26.8085 31.0118 26.7816 30.9657 26.7546 30.9201C26.7379 30.8932 26.7213 30.8656 26.7046 30.8386C26.6834 30.8053 26.6622 30.7719 26.6404 30.7392C26.6161 30.702 26.591 30.6654 26.5654 30.6289C26.5461 30.6006 26.5262 30.5731 26.5057 30.5455C26.4781 30.507 26.4499 30.4691 26.421 30.4319C26.3992 30.4037 26.3774 30.3755 26.355 30.3472C26.3344 30.3209 26.3133 30.2946 26.2921 30.269C26.2594 30.2298 26.2267 30.1914 26.1933 30.1529C26.1715 30.1278 26.1497 30.1035 26.1279 30.0791C26.0939 30.0412 26.0592 30.004 26.0239 29.9668C26.0021 29.9444 25.9803 29.9219 25.9579 29.9001C25.929 29.8706 25.8995 29.8417 25.87 29.8135C25.8565 29.8007 25.8437 29.7872 25.8302 29.7744V23.6158C25.8302 23.5928 25.8283 23.5703 25.8251 23.5485L25.8302 7.71275C25.8302 6.91728 25.1829 6.26999 24.3874 6.26999H2.2328C1.43732 6.26999 0.790039 6.91728 0.790039 7.71275V32.5496C0.790039 33.345 1.43732 33.9923 2.2328 33.9923H16.7201C16.7214 34.0218 16.7246 34.0507 16.7265 34.0802C16.7291 34.1219 16.7323 34.163 16.7361 34.204C16.74 34.2431 16.7438 34.2816 16.7483 34.3201C16.7534 34.367 16.7599 34.4131 16.7663 34.46C16.7708 34.492 16.7746 34.5241 16.7797 34.5556C16.7906 34.6255 16.8035 34.6948 16.817 34.7641C16.8214 34.7878 16.8266 34.8109 16.8317 34.834C16.8465 34.9033 16.8619 34.9719 16.8792 35.0399C16.8811 35.047 16.8824 35.0547 16.8843 35.0617C16.9061 35.1458 16.9299 35.2291 16.9555 35.3119C16.9555 35.3125 16.9562 35.3132 16.9562 35.3145C17.114 35.8238 17.3475 36.3088 17.6528 36.7559C17.6644 36.7726 17.6766 36.788 17.6894 36.8028C18.1673 37.4841 18.7967 38.0518 19.5305 38.4534C19.5434 38.4624 19.5575 38.4707 19.5716 38.4778C19.7923 38.5958 20.0213 38.6978 20.2561 38.7838C20.2606 38.7857 20.2651 38.787 20.2702 38.7889C20.3472 38.8171 20.4255 38.8434 20.5037 38.8678C20.5172 38.8723 20.5307 38.8761 20.5448 38.88C20.6044 38.898 20.6647 38.9153 20.7257 38.9313C20.7488 38.9377 20.7725 38.9441 20.7956 38.9499C20.861 38.9666 20.9271 38.9814 20.9926 38.9955C21.0227 39.0019 21.0535 39.0083 21.0843 39.0141C21.1388 39.025 21.194 39.0346 21.2492 39.0436C21.2832 39.0494 21.3165 39.0545 21.3505 39.059C21.4076 39.0673 21.4647 39.0744 21.5224 39.0808C21.5475 39.0834 21.5725 39.0866 21.5975 39.0891C21.6719 39.0962 21.7463 39.102 21.8207 39.1064C21.8394 39.1077 21.858 39.1084 21.8759 39.109C21.9574 39.1129 22.0395 39.1154 22.121 39.1154C22.2108 39.1154 22.3006 39.1129 22.3891 39.1084C22.3936 39.1084 22.3981 39.1084 22.4026 39.1077C22.4879 39.1032 22.5726 39.0968 22.6566 39.0885C22.665 39.0878 22.6733 39.0872 22.6817 39.0859C22.7625 39.0776 22.842 39.0673 22.9216 39.0551C22.9331 39.0532 22.9447 39.0519 22.9562 39.05C23.0326 39.0378 23.1083 39.0243 23.1833 39.0096C23.1981 39.0064 23.2128 39.0038 23.2276 39.0006C23.2994 38.9858 23.3706 38.9692 23.4412 38.9512C23.4592 38.9467 23.4771 38.9422 23.4945 38.9377C23.5618 38.9198 23.6285 38.9012 23.6952 38.8806C23.7158 38.8742 23.7369 38.8678 23.7575 38.8614C23.8203 38.8415 23.8826 38.8203 23.9448 38.7979C23.9685 38.7895 23.9916 38.7806 24.0154 38.7722C24.0737 38.7504 24.1321 38.7273 24.1892 38.7036C24.2155 38.6927 24.2418 38.6811 24.2681 38.6702C24.322 38.6471 24.3753 38.6227 24.4285 38.5977C24.4574 38.5836 24.4869 38.5695 24.5157 38.5554C24.5606 38.5329 24.6056 38.5105 24.6498 38.4867C24.6857 38.4675 24.7217 38.4483 24.757 38.4277C24.7884 38.4104 24.8198 38.3918 24.8506 38.3738C24.8981 38.3463 24.9449 38.3174 24.9917 38.2879C25.0142 38.2738 25.0373 38.259 25.0597 38.2443C25.1136 38.209 25.1669 38.173 25.2195 38.1365C25.2355 38.1249 25.2522 38.1134 25.2682 38.1018C25.326 38.0601 25.3837 38.0172 25.4395 37.9735C25.4511 37.9646 25.4626 37.9556 25.4735 37.9466C25.5338 37.8991 25.5928 37.8497 25.6512 37.7997C25.6589 37.7933 25.6666 37.7862 25.6743 37.7798C25.7353 37.7266 25.7956 37.6714 25.8546 37.6156C25.8591 37.6111 25.8642 37.6066 25.8687 37.6021C25.9296 37.5431 25.9893 37.4834 26.0477 37.4218C26.0496 37.4199 26.0515 37.418 26.0534 37.4161V37.4154C26.3287 37.1235 26.5724 36.8015 26.7784 36.4538C26.779 36.4525 26.7803 36.4506 26.7809 36.4487C26.8335 36.3601 26.8829 36.2697 26.9304 36.1779C26.9413 36.1613 26.9503 36.1439 26.9586 36.126ZM1.75359 32.5496V7.71339C1.75359 7.44845 1.96914 7.23226 2.23473 7.23226H24.3894C24.6543 7.23226 24.8705 7.44781 24.8705 7.71339L24.8647 24.2509C24.8647 24.2747 24.8666 24.2971 24.8705 24.3196V29.0501C24.8063 29.0123 24.7416 28.9763 24.6761 28.941C24.6652 28.9353 24.655 28.9295 24.644 28.9244C24.5825 28.8916 24.5209 28.8602 24.458 28.8301C24.4529 28.8275 24.4477 28.8249 24.4426 28.8224C23.7395 28.4869 22.9537 28.2982 22.1242 28.2982C21.9728 28.2982 21.8233 28.3053 21.6751 28.3181C21.6674 28.3188 21.6604 28.3188 21.6527 28.3194C21.6103 28.3233 21.5686 28.3278 21.5263 28.3322C21.4936 28.3361 21.4609 28.3393 21.4281 28.3438C21.3909 28.3489 21.3531 28.3534 21.3159 28.3592C21.269 28.3662 21.2222 28.3739 21.1754 28.3823C21.1523 28.3861 21.1286 28.39 21.1055 28.3945C21.0336 28.4079 20.9618 28.424 20.8906 28.44C20.8752 28.4439 20.8598 28.4477 20.8444 28.4516C20.7783 28.4676 20.7129 28.4849 20.6481 28.5029C20.641 28.5048 20.634 28.5067 20.6269 28.5087C20.0771 28.6665 19.5536 28.9109 19.0744 29.2387C19.0571 29.2503 19.0411 29.2637 19.0257 29.2772C18.3495 29.7519 17.7869 30.3767 17.3866 31.1036C17.3744 31.1209 17.3629 31.1382 17.3526 31.1575C17.0421 31.738 16.8407 32.3757 16.7579 33.0307H2.23537C1.96978 33.0307 1.75359 32.8151 1.75359 32.5496ZM17.7696 34.6146C17.7683 34.6069 17.7664 34.5998 17.7651 34.5921C17.7375 34.4561 17.7163 34.3176 17.7016 34.1777C17.6997 34.161 17.6984 34.1444 17.6971 34.1283C17.692 34.0763 17.6881 34.0244 17.6849 33.9724C17.6836 33.9525 17.6824 33.932 17.6817 33.9121C17.6785 33.8473 17.6766 33.7819 17.6766 33.7165C17.6766 33.7139 17.6766 33.7107 17.6766 33.7081C17.6766 33.6395 17.6785 33.5715 17.6817 33.5035C17.6824 33.49 17.683 33.4765 17.6836 33.4631C17.6868 33.4002 17.692 33.3373 17.6977 33.2745C17.6997 33.2565 17.7016 33.2385 17.7035 33.2206C17.7093 33.1686 17.7157 33.1166 17.7234 33.0653C17.7266 33.0454 17.7292 33.0256 17.7324 33.005C17.7407 32.9531 17.7503 32.9011 17.7606 32.8491C17.7651 32.828 17.7689 32.8068 17.7734 32.785C17.7856 32.7272 17.7991 32.6695 17.8132 32.6124C17.8171 32.5983 17.8209 32.5842 17.8241 32.5707C17.8395 32.5123 17.8556 32.454 17.8735 32.3969C17.8748 32.3924 17.8761 32.3879 17.8774 32.384C18.3547 30.8579 19.6338 29.6826 21.2197 29.3542C21.2248 29.3529 21.2293 29.3523 21.2344 29.351C21.373 29.3227 21.5135 29.3009 21.6559 29.2862C21.6687 29.2849 21.6822 29.2836 21.6956 29.2823C21.7515 29.2772 21.8079 29.2727 21.8644 29.2695C21.881 29.2682 21.8984 29.2676 21.915 29.2669C21.9843 29.2637 22.0536 29.2618 22.1229 29.2618C24.5748 29.2618 26.5699 31.2569 26.5699 33.7088C26.5699 33.7851 26.5679 33.8614 26.5641 33.9371C26.4448 36.2832 24.4984 38.1557 22.1229 38.1557C22.053 38.1557 21.9837 38.1538 21.915 38.1506C21.9035 38.15 21.8913 38.1493 21.8798 38.1487C21.815 38.1455 21.7508 38.1403 21.6873 38.1339C21.6706 38.132 21.6546 38.1307 21.6386 38.1288C21.5834 38.123 21.5289 38.116 21.475 38.1076C21.4589 38.105 21.4429 38.1031 21.4269 38.1006C21.3717 38.0916 21.3165 38.082 21.262 38.071C21.2421 38.0672 21.2222 38.0634 21.2023 38.0589C21.1433 38.0467 21.0843 38.0332 21.0259 38.0178C21.0137 38.0146 21.0009 38.0114 20.9887 38.0082C20.9278 37.9921 20.8675 37.9755 20.8078 37.9569C20.8052 37.9562 20.8027 37.9556 20.7995 37.9543C19.2746 37.4764 18.0993 36.1991 17.7696 34.6146Z" fill="#1DABEA"/>
<path d="M53.6493 31.4821H69.9893C70.6084 31.4821 71.1113 30.9786 71.1113 30.3601V5.01847C71.1113 4.39942 70.6077 3.89647 69.9893 3.89647H53.6493C53.0309 3.89647 52.5273 4.40006 52.5273 5.01847V30.3601C52.5273 30.9786 53.0309 31.4821 53.6493 31.4821ZM59.4069 24.9394C59.7995 24.7148 60.2871 24.7148 60.6797 24.9394C61.3828 25.341 62.2565 25.341 62.959 24.9394C63.3516 24.7148 63.8391 24.7148 64.2317 24.9394C64.5833 25.1402 64.9772 25.2409 65.3717 25.2409C65.7656 25.2409 66.1601 25.1402 66.5117 24.9394C66.9043 24.7148 67.3918 24.7148 67.7844 24.9394C68.4869 25.341 69.3953 25.341 70.0977 24.9394C70.115 24.9297 70.1324 24.9214 70.1503 24.9124V25.9876C70.0272 25.9414 69.886 25.9433 69.7571 26.0036C69.7019 26.0293 69.6474 26.0582 69.5941 26.0883C69.197 26.3148 68.6845 26.3148 68.288 26.0883C67.5849 25.6867 66.7112 25.6867 66.0087 26.0883C65.6161 26.3128 65.1286 26.3128 64.736 26.0883C64.0329 25.6867 63.1591 25.6867 62.4567 26.0883C62.0641 26.3128 61.5765 26.3128 61.1839 26.0883C60.4808 25.6867 59.6071 25.6867 58.9046 26.0883C58.512 26.3128 58.0245 26.3128 57.6319 26.0883C56.9294 25.6867 56.021 25.6867 55.3186 26.0883C54.926 26.3128 54.4384 26.3128 54.0458 26.0883C53.9926 26.0582 53.938 26.0293 53.8829 26.0036C53.7539 25.9433 53.6134 25.9414 53.4896 25.9876V25.2203V24.9124C53.5069 24.9214 53.5249 24.9297 53.5422 24.9394C54.2453 25.341 55.1191 25.341 55.8215 24.9394C56.2186 24.7129 56.7312 24.7129 57.1276 24.9394C57.8307 25.341 58.7038 25.341 59.4069 24.9394ZM58.0476 24.2074C58.8931 22.9667 60.2922 22.2155 61.8197 22.2155C63.3471 22.2155 64.7462 22.9667 65.5917 24.2074C65.3018 24.2574 64.9971 24.208 64.7353 24.0586C64.0322 23.657 63.1585 23.657 62.456 24.0586C62.0634 24.2831 61.5759 24.2831 61.1833 24.0586C60.4802 23.657 59.6064 23.657 58.904 24.0586C58.6416 24.208 58.3375 24.2574 58.0476 24.2074ZM53.489 26.9422C53.5063 26.9511 53.5243 26.9595 53.5416 26.9697C54.2447 27.3713 55.1184 27.3713 55.8209 26.9697C56.218 26.7433 56.7305 26.7433 57.127 26.9697C57.8301 27.3713 58.7038 27.3713 59.4063 26.9697C59.7989 26.7452 60.2864 26.7452 60.679 26.9697C61.3821 27.3713 62.2559 27.3713 62.9583 26.9697C63.3509 26.7452 63.8385 26.7452 64.2311 26.9697C64.5826 27.1705 64.9765 27.2713 65.3711 27.2713C65.765 27.2713 66.1595 27.1705 66.511 26.9697C66.9036 26.7452 67.3912 26.7452 67.7838 26.9697C68.4863 27.3713 69.3946 27.3713 70.0971 26.9697C70.1144 26.9601 70.1317 26.9518 70.1497 26.9428V28.0629C70.0265 28.0167 69.8854 28.0186 69.7564 28.0789C69.7013 28.1046 69.6467 28.1335 69.5935 28.1636C69.1964 28.3901 68.6838 28.3901 68.2874 28.1636C67.5843 27.762 66.7105 27.762 66.0081 28.1636C65.6155 28.3881 65.1279 28.3881 64.7353 28.1636C64.0322 27.762 63.1585 27.762 62.456 28.1636C62.0634 28.3881 61.5759 28.3881 61.1833 28.1636C60.4802 27.762 59.6064 27.762 58.904 28.1636C58.5114 28.3881 58.0238 28.3881 57.6312 28.1636C56.9288 27.762 56.0204 27.762 55.3179 28.1636C54.9253 28.3881 54.4378 28.3881 54.0452 28.1636C53.9919 28.1335 53.9374 28.1046 53.8822 28.0789C53.7539 28.0186 53.6128 28.0167 53.489 28.0629V26.9422ZM69.9893 30.5199H69.5204H68.1597H53.6493C53.5608 30.5199 53.489 30.448 53.489 30.3595V29.0162C53.5063 29.0252 53.5243 29.0335 53.5416 29.0431C54.2447 29.4447 55.1184 29.4447 55.8209 29.0431C56.218 28.8167 56.7305 28.8167 57.127 29.0431C57.8301 29.4447 58.7038 29.4447 59.4063 29.0431C59.7989 28.8186 60.2864 28.8186 60.679 29.0431C61.3821 29.4447 62.2559 29.4447 62.9583 29.0431C63.3509 28.8186 63.8385 28.8186 64.2311 29.0431C64.5826 29.2439 64.9765 29.3446 65.3711 29.3446C65.765 29.3446 66.1595 29.2439 66.511 29.0431C66.9036 28.8186 67.3912 28.8186 67.7838 29.0431C68.4863 29.4447 69.3946 29.4447 70.0971 29.0431C70.1144 29.0335 70.1317 29.0245 70.1497 29.0155V30.3595C70.1497 30.448 70.0778 30.5199 69.9893 30.5199ZM53.6493 4.8581H69.9893C70.0778 4.8581 70.1497 4.92995 70.1497 5.01847V23.9578C70.0265 23.9117 69.8854 23.9136 69.7564 23.9739C69.7013 23.9995 69.6467 24.0284 69.5935 24.0586C69.1964 24.285 68.6838 24.285 68.2874 24.0586C67.7594 23.7571 67.1352 23.682 66.5591 23.8334C65.8458 22.6857 64.7571 21.8518 63.4978 21.4572C63.7743 20.1344 64.4146 18.8944 65.3345 17.9039L65.6649 17.97C66.0774 18.0527 66.3968 18.342 66.5187 18.7449C66.6406 19.1478 66.5361 19.5661 66.2384 19.8637C66.0402 20.0619 66.0402 20.3833 66.2384 20.5816C66.4366 20.7798 66.758 20.7798 66.9562 20.5816C67.5227 20.0151 67.7228 19.2184 67.4906 18.4511C67.3649 18.0367 67.1301 17.6851 66.8164 17.4247C67.6215 17.4407 68.2482 18.113 68.2482 18.8841V19.5051C68.2482 19.7855 68.4753 20.0125 68.7557 20.0125C69.036 20.0125 69.2631 19.7855 69.2631 19.5051V18.8841C69.2631 17.5665 68.1937 16.4271 66.8235 16.4092L67.6741 15.5579C67.8723 15.3597 67.8723 15.0383 67.6741 14.84C67.4759 14.6418 67.1545 14.6418 66.9562 14.84L66.105 15.6913C66.0864 14.3146 64.9419 13.251 63.63 13.251H63.009C62.7287 13.251 62.5016 13.4781 62.5016 13.7584C62.5016 14.0388 62.7287 14.2659 63.009 14.2659H63.63C64.4005 14.2659 65.0734 14.892 65.0894 15.6977C64.829 15.384 64.4774 15.1486 64.063 15.0235C63.2958 14.7913 62.4997 14.9908 61.9326 15.5579C61.7343 15.7561 61.7343 16.0775 61.9326 16.2757C62.1308 16.474 62.4522 16.474 62.6504 16.2757C62.9481 15.9781 63.3663 15.8735 63.7692 15.9954C64.1721 16.1173 64.462 16.4368 64.5442 16.8492L64.6128 17.1912C63.5582 18.3183 62.8236 19.7341 62.5067 21.2442C62.2809 21.2167 62.0519 21.2019 61.8209 21.2019C61.6503 21.2019 61.4809 21.2103 61.3135 21.2256V20.9408C61.3135 18.8193 60.5148 16.746 59.0291 15.1621L59.0977 14.8201C59.2735 13.94 60.357 13.6128 60.9915 14.2466C61.1897 14.4449 61.5111 14.4449 61.7093 14.2466C61.9075 14.0484 61.9075 13.727 61.7093 13.5288C60.7573 12.5768 59.2966 12.7731 58.5524 13.6693C58.5691 12.8161 59.3351 12.2034 60.0119 12.2034H60.6329C60.9132 12.2034 61.1403 11.9763 61.1403 11.696C61.1403 11.4156 60.9132 11.1885 60.6329 11.1885H60.0119C58.7949 11.1885 57.5562 12.2355 57.5369 13.6622L56.6856 12.8109C56.4874 12.6127 56.166 12.6127 55.9678 12.8109C55.7695 13.0092 55.7695 13.3306 55.9678 13.5288L56.8184 14.3801C55.4475 14.3987 54.3787 15.538 54.3787 16.855V17.476C54.3787 17.7563 54.6058 17.9834 54.8862 17.9834C55.1665 17.9834 55.3936 17.7563 55.3936 17.476V16.855C55.3936 16.0846 56.0197 15.4116 56.8255 15.3956C56.5118 15.656 56.2763 16.0076 56.1512 16.422C55.919 17.1892 56.1185 17.9854 56.6856 18.5525C56.8839 18.7507 57.2053 18.7507 57.4035 18.5525C57.6017 18.3542 57.6017 18.0328 57.4035 17.8346C57.1058 17.537 57.0013 17.1187 57.1231 16.7158C57.245 16.3129 57.5645 16.023 57.977 15.9409L58.3074 15.8748C59.5942 17.2553 60.2999 19.0439 60.2999 20.9408V21.4117C58.9739 21.785 57.8243 22.6408 57.0821 23.836C56.4951 23.6826 55.8497 23.7577 55.3205 24.0598C54.9279 24.2844 54.4403 24.2844 54.0477 24.0598C53.9945 24.0297 53.94 24.0008 53.8848 23.9752C53.7565 23.9149 53.6153 23.9129 53.4915 23.9591V23.861V5.01912C53.489 4.92995 53.5615 4.8581 53.6493 4.8581Z" fill="#1DABEA"/>
<path d="M70.9258 43.3598C70.9977 43.3559 71.0689 43.3502 71.1395 43.3437C71.1658 43.3412 71.1921 43.3386 71.2184 43.336C71.2774 43.3296 71.3358 43.3219 71.3935 43.3136C71.4358 43.3078 71.4775 43.3014 71.5192 43.2943C71.5622 43.2873 71.6046 43.2796 71.6469 43.2712C71.7136 43.2584 71.7797 43.2443 71.8451 43.2289C71.8631 43.2251 71.8804 43.2206 71.8984 43.2167C74.2707 42.6445 76.0393 40.505 76.0393 37.9595C76.0393 36.4116 75.385 35.015 74.3393 34.0283V27.8692C74.3393 27.8461 74.3374 27.8236 74.3342 27.8018L74.3393 1.83275C74.3393 1.03727 73.692 0.389985 72.8966 0.389985H50.7426C49.9471 0.389343 49.2998 1.03663 49.2998 1.8321V36.8016C49.2998 37.5971 49.9471 38.2444 50.7426 38.2444H65.2254C65.3267 40.1856 66.4564 41.858 68.0782 42.7279C68.0794 42.7285 68.0807 42.7292 68.082 42.7298C68.1365 42.7593 68.1923 42.7875 68.2482 42.8145C68.2783 42.8292 68.3085 42.8434 68.3386 42.8575C68.3745 42.8741 68.4111 42.8908 68.447 42.9069C68.5067 42.9332 68.567 42.9582 68.6279 42.9826C68.6517 42.9922 68.6754 43.0018 68.6991 43.0108C68.7447 43.0281 68.7909 43.0454 68.8371 43.0615C68.8409 43.0628 68.8448 43.064 68.8486 43.0653C68.9468 43.0993 69.0462 43.1308 69.1469 43.1596C69.1521 43.1609 69.1572 43.1628 69.1623 43.1641C69.3163 43.2077 69.4722 43.2443 69.6313 43.2738C69.6415 43.2757 69.6511 43.2777 69.6614 43.2789C69.7442 43.2937 69.8282 43.3072 69.9122 43.3181C69.9418 43.3219 69.9713 43.3258 70.0008 43.3296C70.0399 43.3341 70.079 43.3386 70.1188 43.3425C70.1855 43.3489 70.2516 43.354 70.3183 43.3578C70.3427 43.3591 70.3671 43.3604 70.3915 43.3611C70.4672 43.3643 70.5428 43.3668 70.6192 43.3668C70.6218 43.3668 70.6243 43.3668 70.6262 43.3668C70.6269 43.3668 70.6282 43.3668 70.6288 43.3668C70.6295 43.3668 70.6301 43.3668 70.6307 43.3668C70.6327 43.3668 70.6339 43.3668 70.6359 43.3668C70.7199 43.3668 70.8033 43.3643 70.8861 43.3604C70.8995 43.3611 70.9124 43.3604 70.9258 43.3598ZM50.2614 36.8016V1.8321C50.2614 1.56716 50.477 1.35097 50.7426 1.35097H72.8972C73.1621 1.35097 73.3783 1.56652 73.3783 1.8321L73.3726 28.503C73.3726 28.5267 73.3745 28.5492 73.3783 28.5716V33.3021C72.5726 32.8249 71.6334 32.5496 70.6314 32.5496C70.5345 32.5496 70.4383 32.5529 70.3421 32.558H70.3408C70.2753 32.5612 70.2093 32.5663 70.1438 32.5721C70.1182 32.5747 70.0925 32.5772 70.0668 32.5798C70.0117 32.5856 69.9571 32.592 69.902 32.599C69.8834 32.6016 69.8648 32.6042 69.8462 32.6067C69.034 32.7235 68.2603 33.0224 67.5765 33.4901C67.5534 33.5061 67.5322 33.5235 67.513 33.5427C66.8535 34.0097 66.3037 34.6204 65.9079 35.3293C65.888 35.3537 65.8701 35.38 65.8547 35.4089C65.5442 35.9894 65.3427 36.6271 65.26 37.2821H50.7426C50.4776 37.2827 50.2614 37.0672 50.2614 36.8016ZM66.9677 40.4826C66.9639 40.4768 66.9613 40.471 66.9574 40.4653C66.4519 39.7256 66.1844 38.8589 66.1844 37.9589C66.1844 35.6603 67.9377 33.7634 70.1772 33.535C70.2458 33.528 70.3158 33.5228 70.385 33.519C70.3947 33.5183 70.4043 33.5177 70.4139 33.517C70.4851 33.5138 70.5576 33.5113 70.6295 33.5113C73.08 33.5132 75.0726 35.507 75.0726 37.9582C75.0726 40.4101 73.0775 42.4052 70.6256 42.4052C70.5595 42.4052 70.4935 42.4033 70.428 42.4001C70.4107 42.3994 70.3927 42.3988 70.3754 42.3975C70.319 42.3943 70.2625 42.3898 70.2061 42.3847C70.1759 42.3815 70.1451 42.3783 70.115 42.375C70.088 42.3718 70.0604 42.368 70.0335 42.3648C69.9681 42.3558 69.9026 42.3455 69.8378 42.334C69.8269 42.3321 69.8167 42.3301 69.8058 42.3282C69.6768 42.3038 69.5491 42.2743 69.4234 42.2391C69.4183 42.2378 69.4131 42.2365 69.408 42.2346C69.3265 42.2115 69.2457 42.1858 69.1655 42.1576C69.1623 42.1563 69.1585 42.155 69.1553 42.1544C69.1168 42.1409 69.0789 42.1268 69.0404 42.112C69.0225 42.105 69.0051 42.0979 68.9878 42.0909C68.9346 42.0697 68.882 42.0472 68.8294 42.0241C68.8024 42.012 68.7755 42.0004 68.7492 41.9876C68.7222 41.9747 68.6947 41.9619 68.6677 41.9491C67.9839 41.6136 67.3988 41.1055 66.9677 40.4826Z" fill="#1DABEA"/>
<path d="M63.8321 33.3599H58.6993H58.1406H53.0085C52.7429 33.3599 52.5273 33.5754 52.5273 33.841C52.5273 34.1066 52.7429 34.3221 53.0085 34.3221H58.1412H58.7H63.8327C64.0983 34.3221 64.3139 34.1066 64.3139 33.841C64.3139 33.5754 64.0977 33.3599 63.8321 33.3599Z" fill="#1DABEA"/>
<path d="M70.6269 41.0619C72.298 41.0619 73.6561 39.7038 73.6561 38.0326C73.6561 36.3615 72.298 35.0034 70.6269 35.0034C68.9557 35.0034 67.5977 36.3615 67.5977 38.0326C67.5977 39.7038 68.9557 41.0619 70.6269 41.0619ZM71.8887 36.7701C72.1665 36.7701 72.3936 36.9972 72.3936 37.275C72.3936 37.5528 72.1665 37.7799 71.8887 37.7799C71.611 37.7799 71.3839 37.5528 71.3839 37.275C71.3839 36.9972 71.6116 36.7701 71.8887 36.7701ZM71.7104 39.17C71.8092 39.0712 71.9689 39.0712 72.0671 39.17C72.1659 39.2682 72.1659 39.4286 72.0671 39.5267C71.6822 39.9116 71.1709 40.1233 70.6262 40.1233C70.0816 40.1233 69.5703 39.911 69.1854 39.5267C69.0866 39.4279 69.0866 39.2682 69.1854 39.17C69.2842 39.0712 69.4439 39.0712 69.5421 39.17C69.8314 39.4594 70.2163 39.6191 70.6256 39.6191C71.0362 39.6191 71.4211 39.46 71.7104 39.17ZM69.365 36.7701C69.6428 36.7701 69.8699 36.9972 69.8699 37.275C69.8699 37.5528 69.6428 37.7799 69.365 37.7799C69.0872 37.7799 68.8602 37.5528 68.8602 37.275C68.8602 36.9972 69.0872 36.7701 69.365 36.7701Z" fill="#1DABEA"/>
</svg>
