<svg width="41" height="47" viewBox="0 0 41 47" fill="none" xmlns="http://www.w3.org/2000/svg">
<path d="M21.1129 21.3107C20.4974 21.3107 20.0832 21.3667 19.8594 21.4283V25.3792C20.1168 25.4408 20.4358 25.4576 20.8723 25.4576C22.4784 25.4576 23.469 24.6461 23.469 23.275C23.4746 22.0438 22.6184 21.3107 21.1129 21.3107Z" fill="#D022ED"/>
<path d="M11.9397 23.275C11.9397 22.0438 11.0891 21.3107 9.57806 21.3107C8.96246 21.3107 8.54833 21.3667 8.33008 21.4283V25.3792C8.58751 25.4408 8.9065 25.4576 9.34301 25.4576C10.9492 25.4576 11.9397 24.6461 11.9397 23.275Z" fill="#D022ED"/>
<path d="M38.3209 16.7274H37.224V11.4389C37.224 11.4053 37.2184 11.3717 37.2128 11.3381C37.2128 11.1255 37.1457 10.924 37.0002 10.7561L28.1972 0.699521L28.1916 0.693925C28.1412 0.637962 28.0797 0.587595 28.0125 0.54842C27.9901 0.537228 27.9733 0.526035 27.9509 0.514843C27.895 0.481265 27.8334 0.458879 27.7719 0.44209C27.7551 0.436494 27.7439 0.430898 27.7215 0.425302C27.6655 0.402916 27.5928 0.391724 27.5256 0.391724H5.88467C4.89972 0.391724 4.09385 1.19759 4.09385 2.18254V16.7274H2.99697C1.5867 16.7274 0.439453 17.869 0.439453 19.2849V32.5929C0.439453 34.0088 1.5867 35.1504 2.99697 35.1504H4.09385V44.2668C4.09385 45.2574 4.89972 46.0577 5.88467 46.0577H35.4332C36.4238 46.0577 37.224 45.2518 37.224 44.2668V35.156H38.3209C39.7368 35.156 40.8784 34.0088 40.8784 32.5985V19.2849C40.884 17.869 39.7368 16.7274 38.3209 16.7274ZM5.88467 2.18254H26.6302V11.3493C26.6302 11.8418 27.0331 12.2447 27.5256 12.2447H35.4332V16.733H5.88467V2.18254ZM26.4679 23.1967C26.4679 24.5062 26.0314 25.6143 25.2367 26.3698C24.207 27.3436 22.6736 27.7801 20.8884 27.7801C20.4911 27.7801 20.1385 27.7577 19.8587 27.7185V32.5034H16.8646V19.3073C17.7992 19.1506 19.1088 19.0275 20.95 19.0275C22.8135 19.0275 24.1454 19.3856 25.0353 20.1019C25.8915 20.7735 26.4679 21.8872 26.4679 23.1967ZM5.33623 32.4978V19.3073C6.26522 19.1506 7.58035 19.0275 9.42154 19.0275C11.2851 19.0275 12.617 19.3856 13.5069 20.1019C14.3575 20.7735 14.9339 21.8872 14.9339 23.1967C14.9339 24.5062 14.4974 25.6143 13.7027 26.3698C12.673 27.3436 11.1452 27.7801 9.35438 27.7801C8.95705 27.7801 8.59888 27.7577 8.32466 27.7185V32.5034H5.33623V32.4978ZM35.4332 43.78H5.88467V35.156H35.4332V43.78ZM37.655 21.6689H34.0062V32.5034H30.973V21.6689H27.3801V19.1282H37.655V21.6689Z" fill="#D022ED"/>
</svg>
