<svg width="41" height="47" viewBox="0 0 41 47" fill="none" xmlns="http://www.w3.org/2000/svg">
<path d="M21.1122 21.3105C20.4966 21.3105 20.0825 21.3665 19.8586 21.4281V25.3791C20.1161 25.4406 20.4351 25.4574 20.8716 25.4574C22.4777 25.4574 23.4683 24.646 23.4683 23.2749C23.4739 22.0437 22.6176 21.3105 21.1122 21.3105Z" fill="#30A5E7"/>
<path d="M11.9395 23.2749C11.9395 22.0437 11.0888 21.3105 9.57781 21.3105C8.96222 21.3105 8.54809 21.3665 8.32983 21.4281V25.3791C8.58726 25.4406 8.90625 25.4574 9.34277 25.4574C10.9489 25.4574 11.9395 24.646 11.9395 23.2749Z" fill="#30A5E7"/>
<path d="M38.3204 16.7272H37.2236V11.4387C37.2236 11.4052 37.218 11.3716 37.2124 11.338C37.2124 11.1253 37.1452 10.9239 36.9997 10.756L28.1967 0.699399L28.1911 0.693803C28.1407 0.637839 28.0792 0.587473 28.012 0.548298C27.9896 0.537106 27.9728 0.525913 27.9505 0.514721C27.8945 0.481143 27.8329 0.458757 27.7714 0.441968C27.7546 0.436372 27.7434 0.430776 27.721 0.425179C27.665 0.402794 27.5923 0.391602 27.5251 0.391602H5.88418C4.89923 0.391602 4.09336 1.19747 4.09336 2.18242V16.7272H2.99648C1.58621 16.7272 0.438965 17.8689 0.438965 19.2848V32.5928C0.438965 34.0087 1.58621 35.1503 2.99648 35.1503H4.09336V44.2667C4.09336 45.2573 4.89923 46.0575 5.88418 46.0575H35.4327C36.4233 46.0575 37.2236 45.2517 37.2236 44.2667V35.1559H38.3204C39.7363 35.1559 40.8779 34.0087 40.8779 32.5984V19.2848C40.8835 17.8689 39.7363 16.7272 38.3204 16.7272ZM5.88418 2.18242H26.6297V11.3492C26.6297 11.8417 27.0327 12.2446 27.5251 12.2446H35.4327V16.7328H5.88418V2.18242ZM26.4674 23.1966C26.4674 24.5061 26.0309 25.6142 25.2362 26.3697C24.2065 27.3435 22.6731 27.78 20.8879 27.78C20.4906 27.78 20.138 27.7576 19.8582 27.7184V32.5033H16.8642V19.3071C17.7987 19.1505 19.1083 19.0273 20.9495 19.0273C22.813 19.0273 24.145 19.3855 25.0348 20.1018C25.891 20.7734 26.4674 21.8871 26.4674 23.1966ZM5.33574 32.4977V19.3071C6.26473 19.1505 7.57986 19.0273 9.42105 19.0273C11.2846 19.0273 12.6165 19.3855 13.5064 20.1018C14.357 20.7734 14.9334 21.8871 14.9334 23.1966C14.9334 24.5061 14.4969 25.6142 13.7022 26.3697C12.6725 27.3435 11.1447 27.78 9.3539 27.78C8.95656 27.78 8.59839 27.7576 8.32417 27.7184V32.5033H5.33574V32.4977ZM35.4327 43.7798H5.88418V35.1559H35.4327V43.7798ZM37.6545 21.6688H34.0057V32.5033H30.9725V21.6688H27.3796V19.1281H37.6545V21.6688Z" fill="#30A5E7"/>
</svg>
