<svg width="29" height="18" viewBox="0 0 29 18" fill="none" xmlns="http://www.w3.org/2000/svg">
<path d="M1.59444 10.523L22.6404 10.523L18.0166 15.1467C17.3789 15.7845 17.3789 16.7411 18.0166 17.3789C18.6544 18.0166 19.611 18.0166 20.2488 17.3789L27.583 10.0447C28.2207 9.40692 28.2207 8.45029 27.583 7.81253L20.2488 0.478349C19.611 -0.159405 18.6544 -0.159406 18.0166 0.478349C17.3789 1.11611 17.3789 2.07274 18.0166 2.71049L22.6404 7.33422L1.59444 7.33422C0.797246 7.33422 5.23626e-05 7.97197 5.2279e-05 8.9286C5.21953e-05 9.88524 0.797246 10.523 1.59444 10.523Z" fill="#0496FF"/>
</svg>
