<svg width="19" height="30" viewBox="0 0 19 30" fill="none" xmlns="http://www.w3.org/2000/svg">
<path d="M2.95907 21.1511H14.0747C14.4958 21.1511 14.838 20.8086 14.838 20.3879V3.14865C14.838 2.72752 14.4954 2.38538 14.0747 2.38538H2.95907C2.53838 2.38538 2.1958 2.72795 2.1958 3.14865V20.3879C2.1958 20.8086 2.53838 21.1511 2.95907 21.1511ZM6.87579 16.7003C7.14287 16.5475 7.47453 16.5475 7.74161 16.7003C8.21991 16.9735 8.81429 16.9735 9.29215 16.7003C9.55923 16.5475 9.8909 16.5475 10.158 16.7003C10.3971 16.8369 10.6651 16.9054 10.9335 16.9054C11.2014 16.9054 11.4698 16.8369 11.709 16.7003C11.976 16.5475 12.3077 16.5475 12.5748 16.7003C13.0526 16.9735 13.6706 16.9735 14.1484 16.7003C14.1602 16.6937 14.172 16.688 14.1842 16.6819V17.4134C14.1004 17.3819 14.0044 17.3832 13.9167 17.4243C13.8792 17.4417 13.8421 17.4614 13.8059 17.4819C13.5357 17.6359 13.187 17.6359 12.9174 17.4819C12.4391 17.2087 11.8447 17.2087 11.3668 17.4819C11.0997 17.6346 10.7681 17.6346 10.501 17.4819C10.0227 17.2087 9.42831 17.2087 8.95045 17.4819C8.68337 17.6346 8.3517 17.6346 8.08462 17.4819C7.60633 17.2087 7.01194 17.2087 6.53408 17.4819C6.267 17.6346 5.93534 17.6346 5.66826 17.4819C5.1904 17.2087 4.57245 17.2087 4.09459 17.4819C3.82751 17.6346 3.49585 17.6346 3.22877 17.4819C3.19255 17.4614 3.15545 17.4417 3.11792 17.4243C3.0302 17.3832 2.93463 17.3819 2.85041 17.4134V16.8914V16.6819C2.86219 16.688 2.87441 16.6937 2.88619 16.7003C3.36449 16.9735 3.95887 16.9735 4.43673 16.7003C4.70686 16.5462 5.05555 16.5462 5.32525 16.7003C5.80354 16.9735 6.39749 16.9735 6.87579 16.7003ZM5.95105 16.2023C6.52623 15.3583 7.47802 14.8473 8.5171 14.8473C9.55618 14.8473 10.508 15.3583 11.0831 16.2023C10.8859 16.2364 10.6786 16.2028 10.5006 16.1011C10.0223 15.8279 9.42787 15.8279 8.95001 16.1011C8.68293 16.2538 8.35127 16.2538 8.08419 16.1011C7.60589 15.8279 7.01151 15.8279 6.53365 16.1011C6.35516 16.2028 6.1483 16.2364 5.95105 16.2023ZM2.84997 18.0627C2.86175 18.0688 2.87397 18.0745 2.88575 18.0815C3.36405 18.3547 3.95843 18.3547 4.43629 18.0815C4.70643 17.9274 5.05511 17.9274 5.32481 18.0815C5.80311 18.3547 6.39749 18.3547 6.87535 18.0815C7.14243 17.9287 7.4741 17.9287 7.74117 18.0815C8.21947 18.3547 8.81385 18.3547 9.29172 18.0815C9.55879 17.9287 9.89046 17.9287 10.1575 18.0815C10.3967 18.2181 10.6646 18.2866 10.933 18.2866C11.201 18.2866 11.4694 18.2181 11.7085 18.0815C11.9756 17.9287 12.3073 17.9287 12.5743 18.0815C13.0522 18.3547 13.6701 18.3547 14.148 18.0815C14.1598 18.0749 14.1716 18.0693 14.1838 18.0632V18.8251C14.1 18.7937 14.004 18.795 13.9163 18.836C13.8787 18.8535 13.8417 18.8731 13.8054 18.8936C13.5353 19.0477 13.1866 19.0477 12.9169 18.8936C12.4386 18.6204 11.8442 18.6204 11.3664 18.8936C11.0993 19.0464 10.7676 19.0464 10.5006 18.8936C10.0223 18.6204 9.42787 18.6204 8.95001 18.8936C8.68293 19.0464 8.35127 19.0464 8.08419 18.8936C7.60589 18.6204 7.01151 18.6204 6.53365 18.8936C6.26657 19.0464 5.9349 19.0464 5.66782 18.8936C5.18996 18.6204 4.57202 18.6204 4.09415 18.8936C3.82708 19.0464 3.49541 19.0464 3.22833 18.8936C3.19211 18.8731 3.15501 18.8535 3.11748 18.836C3.0302 18.795 2.93419 18.7937 2.84997 18.8251V18.0627ZM14.0747 20.4965H13.7557H12.8301H2.95907C2.89885 20.4965 2.84997 20.4477 2.84997 20.3874V19.4736C2.86175 19.4797 2.87397 19.4854 2.88575 19.4919C3.36405 19.7651 3.95843 19.7651 4.43629 19.4919C4.70643 19.3379 5.05511 19.3379 5.32481 19.4919C5.80311 19.7651 6.39749 19.7651 6.87535 19.4919C7.14243 19.3392 7.4741 19.3392 7.74117 19.4919C8.21947 19.7651 8.81385 19.7651 9.29172 19.4919C9.55879 19.3392 9.89046 19.3392 10.1575 19.4919C10.3967 19.6285 10.6646 19.697 10.933 19.697C11.201 19.697 11.4694 19.6285 11.7085 19.4919C11.9756 19.3392 12.3073 19.3392 12.5743 19.4919C13.0522 19.7651 13.6701 19.7651 14.148 19.4919C14.1598 19.4854 14.1716 19.4793 14.1838 19.4732V20.3874C14.1838 20.4477 14.1349 20.4965 14.0747 20.4965ZM2.95907 3.03954H14.0747C14.1349 3.03954 14.1838 3.08842 14.1838 3.14865V16.0326C14.1 16.0012 14.004 16.0025 13.9163 16.0435C13.8787 16.0609 13.8417 16.0806 13.8054 16.1011C13.5353 16.2551 13.1866 16.2551 12.9169 16.1011C12.5578 15.896 12.1331 15.8449 11.7412 15.9479C11.256 15.1672 10.5154 14.5999 9.65873 14.3315C9.84682 13.4316 10.2824 12.588 10.9082 11.9142L11.1329 11.9592C11.4135 12.0155 11.6308 12.2123 11.7138 12.4864C11.7967 12.7604 11.7255 13.045 11.523 13.2474C11.3882 13.3823 11.3882 13.6009 11.523 13.7358C11.6579 13.8706 11.8765 13.8706 12.0114 13.7358C12.3967 13.3504 12.5329 12.8084 12.3749 12.2865C12.2894 12.0046 12.1296 11.7654 11.9162 11.5882C12.4639 11.5992 12.8903 12.0565 12.8903 12.5811V13.0035C12.8903 13.1942 13.0448 13.3487 13.2355 13.3487C13.4262 13.3487 13.5807 13.1942 13.5807 13.0035V12.5811C13.5807 11.6847 12.8532 10.9096 11.921 10.8974L12.4997 10.3183C12.6346 10.1835 12.6346 9.96482 12.4997 9.82998C12.3649 9.69513 12.1462 9.69513 12.0114 9.82998L11.4323 10.4091C11.4196 9.47256 10.6411 8.74901 9.74863 8.74901H9.32619C9.13548 8.74901 8.981 8.90349 8.981 9.0942C8.981 9.28491 9.13548 9.43939 9.32619 9.43939H9.74863C10.2727 9.43939 10.7305 9.86532 10.7414 10.4134C10.5643 10.2 10.3251 10.0399 10.0432 9.95479C9.52126 9.79681 8.97969 9.93253 8.59391 10.3183C8.45906 10.4532 8.45906 10.6718 8.59391 10.8066C8.72875 10.9415 8.94739 10.9415 9.08224 10.8066C9.28473 10.6042 9.56927 10.533 9.84333 10.6159C10.1174 10.6989 10.3146 10.9162 10.3705 11.1968L10.4172 11.4294C9.69975 12.1962 9.20007 13.1593 8.98449 14.1866C8.83087 14.1678 8.67508 14.1578 8.51797 14.1578C8.40189 14.1578 8.28668 14.1635 8.17278 14.1739V13.9802C8.17278 12.537 7.62946 11.1265 6.61875 10.049L6.66544 9.81645C6.78502 9.2177 7.5221 8.99514 7.9537 9.4263C8.08855 9.56115 8.30719 9.56115 8.44204 9.4263C8.57689 9.29145 8.57689 9.07282 8.44204 8.93797C7.79442 8.29035 6.80073 8.42388 6.2945 9.03354C6.30585 8.45312 6.82691 8.03636 7.28732 8.03636H7.70975C7.90046 8.03636 8.05495 7.88187 8.05495 7.69116C8.05495 7.50046 7.90046 7.34597 7.70975 7.34597H7.28732C6.45946 7.34597 5.61676 8.05818 5.60367 9.02874L5.02457 8.44963C4.88972 8.31478 4.67108 8.31478 4.53623 8.44963C4.40138 8.58448 4.40138 8.80312 4.53623 8.93797L5.1149 9.51707C4.18231 9.52973 3.45526 10.3048 3.45526 11.2007V11.6232C3.45526 11.8139 3.60975 11.9684 3.80045 11.9684C3.99116 11.9684 4.14565 11.8139 4.14565 11.6232V11.2007C4.14565 10.6766 4.57158 10.2188 5.1197 10.2079C4.9063 10.3851 4.74614 10.6242 4.66104 10.9061C4.50306 11.4281 4.63879 11.9697 5.02457 12.3554C5.15941 12.4903 5.37805 12.4903 5.5129 12.3554C5.64775 12.2206 5.64775 12.002 5.5129 11.8671C5.31041 11.6646 5.23928 11.3801 5.32219 11.106C5.40511 10.832 5.62244 10.6347 5.90305 10.5788L6.12779 10.5339C7.00322 11.473 7.48326 12.6897 7.48326 13.9802V14.3005C6.58122 14.5545 5.79918 15.1366 5.29426 15.9497C4.89495 15.8454 4.45593 15.8964 4.0959 16.102C3.82882 16.2547 3.49715 16.2547 3.23008 16.102C3.19385 16.0814 3.15676 16.0618 3.11923 16.0444C3.03195 16.0033 2.93594 16.002 2.85171 16.0334V15.9667V3.14908C2.84997 3.08842 2.89928 3.03954 2.95907 3.03954Z" fill="#1DABEA"/>
<path d="M14.7116 29.2311C14.7605 29.2285 14.8089 29.2246 14.8569 29.2202C14.8748 29.2185 14.8927 29.2167 14.9106 29.215C14.9507 29.2106 14.9904 29.2054 15.0297 29.1997C15.0585 29.1958 15.0869 29.1914 15.1153 29.1866C15.1445 29.1818 15.1733 29.1766 15.2021 29.1709C15.2475 29.1622 15.2924 29.1526 15.337 29.1421C15.3492 29.1395 15.361 29.1364 15.3732 29.1338C16.987 28.7446 18.1902 27.2892 18.1902 25.5575C18.1902 24.5045 17.745 23.5544 17.0337 22.8832V18.6933C17.0337 18.6776 17.0324 18.6623 17.0302 18.6475L17.0337 0.981471C17.0337 0.440331 16.5934 3.24103e-07 16.0522 3.24103e-07H0.981471C0.440331 -0.000436079 0 0.439895 0 0.981034V24.7698C0 25.3109 0.440331 25.7513 0.981471 25.7513H10.8337C10.9027 27.0718 11.6712 28.2095 12.7744 28.8013C12.7753 28.8017 12.7761 28.8022 12.777 28.8026C12.8141 28.8227 12.8521 28.8419 12.89 28.8602C12.9105 28.8702 12.9311 28.8798 12.9516 28.8894C12.976 28.9008 13.0009 28.9121 13.0253 28.923C13.0659 28.9409 13.1069 28.958 13.1484 28.9745C13.1645 28.9811 13.1807 28.9876 13.1968 28.9937C13.2278 29.0055 13.2592 29.0173 13.2907 29.0282C13.2933 29.0291 13.2959 29.03 13.2985 29.0308C13.3653 29.054 13.4329 29.0754 13.5014 29.095C13.5049 29.0959 13.5084 29.0972 13.5119 29.098C13.6166 29.1277 13.7227 29.1526 13.8309 29.1727C13.8379 29.174 13.8445 29.1753 13.8514 29.1762C13.9077 29.1862 13.9649 29.1954 14.0221 29.2028C14.0421 29.2054 14.0622 29.208 14.0823 29.2106C14.1089 29.2137 14.1355 29.2167 14.1626 29.2194C14.208 29.2237 14.2529 29.2272 14.2983 29.2298C14.3149 29.2307 14.3315 29.2316 14.3481 29.232C14.3996 29.2342 14.4511 29.2359 14.503 29.2359C14.5047 29.2359 14.5065 29.2359 14.5078 29.2359C14.5082 29.2359 14.5091 29.2359 14.5095 29.2359C14.51 29.2359 14.5104 29.2359 14.5108 29.2359C14.5121 29.2359 14.513 29.2359 14.5143 29.2359C14.5715 29.2359 14.6282 29.2342 14.6845 29.2316C14.6937 29.232 14.7024 29.2316 14.7116 29.2311ZM0.654168 24.7698V0.981034C0.654168 0.8008 0.8008 0.653732 0.981471 0.653732H16.0527C16.2329 0.653732 16.38 0.800363 16.38 0.981034L16.376 19.1245C16.376 19.1406 16.3773 19.1559 16.38 19.1712V22.3892C15.8318 22.0645 15.1929 21.8773 14.5113 21.8773C14.4454 21.8773 14.3799 21.8795 14.3145 21.883H14.3136C14.2691 21.8852 14.2241 21.8887 14.1796 21.8926C14.1622 21.8943 14.1447 21.8961 14.1272 21.8978C14.0897 21.9018 14.0526 21.9061 14.0151 21.9109C14.0024 21.9127 13.9898 21.9144 13.9771 21.9162C13.4246 21.9956 12.8983 22.1989 12.4331 22.5171C12.4174 22.528 12.403 22.5398 12.3899 22.5529C11.9413 22.8706 11.5673 23.286 11.298 23.7683C11.2845 23.7848 11.2723 23.8027 11.2618 23.8224C11.0506 24.2173 10.9136 24.6511 10.8573 25.0967H0.981471C0.801236 25.0971 0.654168 24.9505 0.654168 24.7698ZM12.019 27.2739C12.0164 27.27 12.0146 27.266 12.012 27.2621C11.6681 26.7589 11.4861 26.1693 11.4861 25.5571C11.4861 23.9934 12.6788 22.703 14.2023 22.5476C14.249 22.5428 14.2966 22.5393 14.3437 22.5367C14.3502 22.5363 14.3568 22.5359 14.3633 22.5354C14.4118 22.5332 14.4611 22.5315 14.51 22.5315C16.177 22.5328 17.5325 23.8891 17.5325 25.5566C17.5325 27.2246 16.1753 28.5818 14.5073 28.5818C14.4624 28.5818 14.4174 28.5805 14.3729 28.5783C14.3612 28.5779 14.3489 28.5774 14.3372 28.5765C14.2987 28.5744 14.2603 28.5713 14.2219 28.5678C14.2014 28.5656 14.1805 28.5634 14.16 28.5613C14.1416 28.5591 14.1229 28.5565 14.1045 28.5543C14.06 28.5482 14.0155 28.5412 13.9714 28.5333C13.964 28.532 13.957 28.5307 13.9496 28.5294C13.8619 28.5128 13.7751 28.4928 13.6895 28.4688C13.686 28.4679 13.6825 28.467 13.6791 28.4657C13.6236 28.45 13.5686 28.4325 13.5141 28.4133C13.5119 28.4125 13.5093 28.4116 13.5071 28.4111C13.4809 28.402 13.4552 28.3924 13.429 28.3823C13.4168 28.3775 13.405 28.3727 13.3932 28.3679C13.357 28.3535 13.3212 28.3383 13.2854 28.3226C13.2671 28.3143 13.2488 28.3064 13.2309 28.2977C13.2125 28.289 13.1938 28.2802 13.1754 28.2715C12.7102 28.0433 12.3122 27.6976 12.019 27.2739Z" fill="#1DABEA"/>
<path d="M9.8861 22.4285H6.39443H6.01433H2.5231C2.34243 22.4285 2.1958 22.5751 2.1958 22.7558C2.1958 22.9364 2.34243 23.0831 2.5231 23.0831H6.01476H6.39487H9.88653C10.0672 23.0831 10.2138 22.9364 10.2138 22.7558C10.2138 22.5751 10.0668 22.4285 9.8861 22.4285Z" fill="#1DABEA"/>
<path d="M14.508 27.668C15.6448 27.668 16.5687 26.7441 16.5687 25.6073C16.5687 24.4704 15.6448 23.5466 14.508 23.5466C13.3711 23.5466 12.4473 24.4704 12.4473 25.6073C12.4473 26.7441 13.3711 27.668 14.508 27.668ZM15.3664 24.7484C15.5553 24.7484 15.7098 24.9029 15.7098 25.0919C15.7098 25.2808 15.5553 25.4353 15.3664 25.4353C15.1774 25.4353 15.0229 25.2808 15.0229 25.0919C15.0229 24.9029 15.1778 24.7484 15.3664 24.7484ZM15.245 26.381C15.3123 26.3138 15.4209 26.3138 15.4877 26.381C15.5549 26.4478 15.5549 26.5569 15.4877 26.6236C15.2258 26.8855 14.878 27.0295 14.5075 27.0295C14.137 27.0295 13.7892 26.8851 13.5274 26.6236C13.4602 26.5564 13.4602 26.4478 13.5274 26.381C13.5946 26.3138 13.7032 26.3138 13.77 26.381C13.9668 26.5778 14.2287 26.6865 14.5071 26.6865C14.7864 26.6865 15.0482 26.5783 15.245 26.381ZM13.6496 24.7484C13.8385 24.7484 13.993 24.9029 13.993 25.0919C13.993 25.2808 13.8385 25.4353 13.6496 25.4353C13.4606 25.4353 13.3061 25.2808 13.3061 25.0919C13.3061 24.9029 13.4606 24.7484 13.6496 24.7484Z" fill="#1DABEA"/>
</svg>
