<svg width="41" height="47" viewBox="0 0 41 47" fill="none" xmlns="http://www.w3.org/2000/svg">
<path d="M38.2044 16.7274H37.1076V11.4389C37.1076 11.4053 37.102 11.3717 37.102 11.3381C37.102 11.1255 37.0292 10.924 36.8893 10.7561L28.0807 0.69954L28.0751 0.693944C28.0247 0.63798 27.9632 0.587614 27.896 0.548439C27.8736 0.537247 27.8568 0.526054 27.8345 0.514862C27.7785 0.481284 27.7169 0.458898 27.6554 0.442109C27.6386 0.436513 27.6274 0.430917 27.605 0.42532C27.5379 0.408532 27.4707 0.397339 27.3979 0.397339H5.76259C4.77764 0.397339 3.97178 1.20321 3.97178 2.18816V16.733H2.87489C1.45902 16.733 0.317383 17.8802 0.317383 19.2905V32.5985C0.317383 34.0144 1.46461 35.1561 2.87489 35.1561H3.97178V44.2669C3.97178 45.2574 4.77764 46.0577 5.76259 46.0577H35.3111C36.3017 46.0577 37.102 45.2518 37.102 44.2669V35.1561H38.1988C39.6147 35.1561 40.7564 34.0088 40.7564 32.5985V19.2849C40.7675 17.869 39.6203 16.7274 38.2044 16.7274ZM5.77379 2.18256H26.5137V11.3437C26.5137 11.8418 26.9167 12.2391 27.4091 12.2391H35.3167V16.7274H5.76819V2.18256H5.77379ZM25.8646 29.7724V32.3691H17.319V18.6861H20.4249V29.7668H25.8646V29.7724ZM3.86545 32.3691L7.82203 25.4465L4.00535 18.6917H7.559L8.75662 21.1877C9.16515 22.0215 9.46735 22.6875 9.79194 23.4598H9.83112C10.1557 22.5867 10.4187 21.9767 10.7657 21.1877L11.9241 18.6917H15.4554L11.5995 25.3681L15.6569 32.3691H12.0864L10.8496 29.8899C10.346 28.9386 10.0158 28.2278 9.63525 27.4331H9.59607C9.31065 28.2222 8.96368 28.933 8.53835 29.8899L7.4023 32.3691H3.86545ZM35.3167 43.78H5.76819V35.1561H35.3167V43.78ZM31.0412 32.5706C29.4798 32.5706 27.9352 32.162 27.1629 31.7367L27.7953 29.1792C28.6291 29.6045 29.9051 30.0298 31.2258 30.0298C32.6473 30.0298 33.3972 29.4422 33.3972 28.5468C33.3972 27.6962 32.748 27.2093 31.1027 26.6217C28.8306 25.8326 27.3476 24.5734 27.3476 22.5811C27.3476 20.2475 29.2951 18.4622 32.5242 18.4622C34.0688 18.4622 35.2048 18.7868 36.0163 19.1506L35.3223 21.6466C34.7739 21.3835 33.8001 20.9974 32.4626 20.9974C31.1251 20.9974 30.4759 21.6074 30.4759 22.3181C30.4759 23.1911 31.2426 23.5773 33.0111 24.2432C35.4287 25.1331 36.5591 26.3922 36.5591 28.323C36.5591 30.623 34.7963 32.5706 31.0412 32.5706Z" fill="#D022ED"/>
</svg>
