<svg width="41" height="47" viewBox="0 0 41 47" fill="none" xmlns="http://www.w3.org/2000/svg">
<path d="M38.2042 16.7275H37.1073V11.439C37.1073 11.4054 37.1017 11.3718 37.1017 11.3383C37.1017 11.1256 37.029 10.9241 36.889 10.7562L28.0805 0.699662L28.0749 0.694066C28.0245 0.638103 27.9629 0.587736 27.8958 0.548561C27.8734 0.537369 27.8566 0.526176 27.8342 0.514984C27.7783 0.481406 27.7167 0.45902 27.6551 0.442231C27.6383 0.436635 27.6271 0.431039 27.6048 0.425443C27.5376 0.408654 27.4705 0.397461 27.3977 0.397461H5.76234C4.77739 0.397461 3.97153 1.20333 3.97153 2.18828V16.7331H2.87464C1.45877 16.7331 0.317139 17.8804 0.317139 19.2906V32.5987C0.317139 34.0145 1.46437 35.1562 2.87464 35.1562H3.97153V44.267C3.97153 45.2575 4.77739 46.0578 5.76234 46.0578H35.3109C36.3014 46.0578 37.1017 45.2519 37.1017 44.267V35.1562H38.1986C39.6145 35.1562 40.7561 34.0089 40.7561 32.5987V19.285C40.7673 17.8692 39.6201 16.7275 38.2042 16.7275ZM5.77355 2.18269H26.5135V11.3439C26.5135 11.8419 26.9164 12.2393 27.4089 12.2393H35.3165V16.7275H5.76794V2.18269H5.77355ZM25.8643 29.7725V32.3692H17.3187V18.6862H20.4247V29.7669H25.8643V29.7725ZM3.8652 32.3692L7.82178 25.4466L4.00511 18.6918H7.55876L8.75638 21.1878C9.16491 22.0216 9.46711 22.6876 9.7917 23.4599H9.83088C10.1555 22.5869 10.4185 21.9769 10.7655 21.1878L11.9239 18.6918H15.4552L11.5993 25.3682L15.6566 32.3692H12.0862L10.8494 29.89C10.3457 28.9387 10.0156 28.2279 9.635 27.4333H9.59582C9.31041 28.2223 8.96343 28.9331 8.53811 29.89L7.40206 32.3692H3.8652ZM35.3165 43.7801H5.76794V35.1562H35.3165V43.7801ZM31.0409 32.5707C29.4795 32.5707 27.9349 32.1622 27.1626 31.7368L27.795 29.1793C28.6289 29.6046 29.9049 30.03 31.2256 30.03C32.647 30.03 33.397 29.4423 33.397 28.5469C33.397 27.6963 32.7478 27.2094 31.1025 26.6218C28.8304 25.8327 27.3473 24.5735 27.3473 22.5813C27.3473 20.2476 29.2949 18.4624 32.5239 18.4624C34.0685 18.4624 35.2046 18.787 36.016 19.1507L35.3221 21.6467C34.7736 21.3836 33.7999 20.9975 32.4624 20.9975C31.1248 20.9975 30.4757 21.6075 30.4757 22.3182C30.4757 23.1913 31.2424 23.5774 33.0108 24.2434C35.4284 25.1332 36.5589 26.3924 36.5589 28.3231C36.5589 30.6232 34.796 32.5707 31.0409 32.5707Z" fill="#30A5E7"/>
</svg>
