<svg width="42" height="46" viewBox="0 0 42 46" fill="none" xmlns="http://www.w3.org/2000/svg">
<path d="M38.6317 16.3356H37.5348V11.0471C37.5348 11.0136 37.5293 10.98 37.5237 10.9464C37.5237 10.7337 37.4565 10.5323 37.311 10.3644L28.508 0.307797L28.5024 0.302201C28.452 0.246238 28.3905 0.195871 28.3233 0.156697C28.3009 0.145504 28.2842 0.134312 28.2618 0.123119C28.2058 0.0895411 28.1442 0.0671558 28.0827 0.0503668C28.0659 0.0447705 28.0547 0.0391742 28.0323 0.0335779C27.9764 0.0111926 27.9036 0 27.8364 0H6.20108C5.21613 0 4.41025 0.80587 4.41025 1.79082V16.3356H3.31338C1.89751 16.3356 0.755859 17.4829 0.755859 18.8932V32.2012C0.755859 33.6171 1.90311 34.7587 3.31338 34.7587H4.41025V43.8751C4.41025 44.8657 5.21613 45.6659 6.20108 45.6659H35.7496C36.7402 45.6659 37.5405 44.8601 37.5405 43.8751V34.7643H38.6373C40.0532 34.7643 41.1948 33.6171 41.1948 32.2068V18.8932C41.1948 17.4773 40.0476 16.3356 38.6317 16.3356ZM6.20108 1.79082H26.941V10.9576C26.941 11.4501 27.344 11.853 27.8364 11.853H35.744V16.3412H6.19548V1.79082H6.20108ZM25.0663 18.6245V31.9941H22.0331V18.6245H25.0663ZM10.3256 21.1261V18.6245H20.0296V20.3706L13.7953 29.4198V29.4982H20.1247V31.9997H9.72675V30.3712L16.0954 21.2044V21.1261H10.3256ZM35.744 43.3938H6.19548V34.7643H35.744V43.3938ZM36.0574 25.8662C35.0277 26.8399 33.4999 27.2708 31.7147 27.2708C31.3173 27.2708 30.9592 27.2541 30.685 27.2093V31.9885H27.6909V18.8036C28.6255 18.6413 29.9351 18.5238 31.7763 18.5238C33.6398 18.5238 34.9717 18.882 35.8616 19.5983C36.7122 20.2755 37.2886 21.3835 37.2886 22.6931C37.2886 24.0026 36.8521 25.1107 36.0574 25.8662Z" fill="#D022ED"/>
<path d="M31.9335 20.8071C31.3179 20.8071 30.8982 20.8687 30.6855 20.9247V24.8701C30.943 24.9316 31.262 24.954 31.6985 24.954C33.3046 24.954 34.2952 24.1369 34.2952 22.7714C34.2952 21.5458 33.4389 20.8071 31.9335 20.8071Z" fill="#D022ED"/>
</svg>
