<svg width="42" height="46" viewBox="0 0 42 46" fill="none" xmlns="http://www.w3.org/2000/svg">
<path d="M38.632 16.3356H37.5351V11.0471C37.5351 11.0136 37.5295 10.98 37.5239 10.9464C37.5239 10.7337 37.4567 10.5323 37.3112 10.3644L28.5082 0.307797L28.5026 0.302201C28.4523 0.246238 28.3907 0.195871 28.3236 0.156697C28.3012 0.145504 28.2844 0.134312 28.262 0.123119C28.206 0.0895411 28.1445 0.0671558 28.0829 0.0503668C28.0661 0.0447705 28.0549 0.0391742 28.0326 0.0335779C27.9766 0.0111926 27.9038 0 27.8367 0H6.20132C5.21637 0 4.4105 0.80587 4.4105 1.79082V16.3356H3.31362C1.89776 16.3356 0.756104 17.4829 0.756104 18.8932V32.2012C0.756104 33.6171 1.90335 34.7587 3.31362 34.7587H4.4105V43.8751C4.4105 44.8657 5.21637 45.6659 6.20132 45.6659H35.7499C36.7404 45.6659 37.5407 44.8601 37.5407 43.8751V34.7643H38.6376C40.0534 34.7643 41.1951 33.6171 41.1951 32.2068V18.8932C41.1951 17.4773 40.0479 16.3356 38.632 16.3356ZM6.20132 1.79082H26.9413V10.9576C26.9413 11.4501 27.3442 11.853 27.8367 11.853H35.7443V16.3412H6.19572V1.79082H6.20132ZM25.0665 18.6245V31.9941H22.0333V18.6245H25.0665ZM10.3258 21.1261V18.6245H20.0298V20.3706L13.7955 29.4198V29.4982H20.125V31.9997H9.727V30.3712L16.0956 21.2044V21.1261H10.3258ZM35.7443 43.3938H6.19572V34.7643H35.7443V43.3938ZM36.0577 25.8662C35.028 26.8399 33.5002 27.2708 31.7149 27.2708C31.3176 27.2708 30.9594 27.2541 30.6852 27.2093V31.9885H27.6912V18.8036C28.6258 18.6413 29.9353 18.5238 31.7765 18.5238C33.6401 18.5238 34.972 18.882 35.8618 19.5983C36.7124 20.2755 37.2889 21.3835 37.2889 22.6931C37.2889 24.0026 36.8524 25.1107 36.0577 25.8662Z" fill="#30A5E7"/>
<path d="M31.9335 20.8066C31.3179 20.8066 30.8982 20.8682 30.6855 20.9242V24.8696C30.943 24.9311 31.262 24.9535 31.6985 24.9535C33.3046 24.9535 34.2952 24.1364 34.2952 22.7709C34.2952 21.5454 33.4389 20.8066 31.9335 20.8066Z" fill="#30A5E7"/>
</svg>
